<?xml version="1.0" encoding="utf-8"?>
<!-- Generator: Adobe Illustrator 28.1.0, SVG Export Plug-In . SVG Version: 6.00 Build 0)  -->
<svg version="1.1" id="Capa_1" xmlns="http://www.w3.org/2000/svg" xmlns:xlink="http://www.w3.org/1999/xlink" x="0px" y="0px"
	 viewBox="0 0 120 170" style="enable-background:new 0 0 120 170;" xml:space="preserve">
<style type="text/css">
	.st0{fill:#BFBFBF;}
	.st1{opacity:0.8;}
</style>
<g>
	<g>
		<path class="st0" d="M76.05,56.6c-0.64-0.97-1.27-1.85-1.83-2.77c-0.64-1.05-0.6-1.21,0.37-1.92c0.69-0.5,1.4-1,2.12-1.45
			c1.04-0.65,1.48-0.47,1.91,0.7c0.1,0.26,0.21,0.52,0.28,0.78c0.57,2.05,1.76,3.7,3.2,5.24c1.05,1.12,2,2.34,2.92,3.57
			c0.74,0.99,0.95,2.16,0.84,3.38c-0.09,1.09-0.56,1.41-1.56,0.99c-1.07-0.44-2.1-0.98-3.14-1.49c-1.68-0.81-3.35-1.64-5.18-2.53
			c-0.09,1.68-0.2,3.23-0.24,4.78c-0.07,3.46-1.2,6.54-3.44,9.17c-2.84,3.35-6.52,5.38-10.76,6.35c-1.96,0.45-3.76-0.04-5.21-1.53
			c-0.13-0.14-0.29-0.25-0.55-0.47c-0.05,0.34-0.1,0.55-0.1,0.76c-0.01,0.91-0.02,1.82,0.01,2.73c0.03,1.05,0.31,1.34,1.31,1.64
			c3.16,0.95,6.4,1.11,9.67,1.07c3.86-0.04,7.56-0.81,11.07-2.44c1.55-0.72,3.14-1.38,4.73-2.02c0.6-0.25,1.24-0.46,1.88-0.56
			c1.09-0.18,1.57,0.32,1.29,1.37c-0.23,0.84-0.51,1.71-0.98,2.44c-0.68,1.05-1.43,2.1-2.35,2.95c-1.94,1.79-3.16,3.97-4,6.41
			c-0.18,0.52-0.33,1.09-0.65,1.52c-0.2,0.28-0.74,0.56-1.03,0.48c-1.09-0.3-2.15-0.72-3.19-1.16c-0.55-0.23-0.33-0.71-0.15-1.11
			c0.61-1.3,1.24-2.59,1.85-3.89c0.11-0.22,0.19-0.45,0.28-0.64c-1.68,0-3.34-0.07-4.98,0.01c-4.54,0.24-9.07,0.56-13.61,0.85
			c-0.23,0.01-0.46,0.02-0.68,0.07c-0.54,0.12-0.77,0.47-0.46,0.94c0.58,0.85,1.15,1.73,1.88,2.43c0.83,0.79,1.88,1.36,2.77,2.1
			c0.54,0.45,0.95,1.05,1.47,1.63c-0.76,0.58-1.4,0.87-2.17,0.65c-0.89-0.25-1.81-0.45-2.67-0.79c-2.52-1.01-5.09-1.8-7.79-2.1
			c-3.23-0.36-5.56-2.07-7.3-4.71c-0.33-0.51-0.6-1.05-0.93-1.56c-0.36-0.58-0.24-1.08,0.25-1.47c0.57-0.45,1.19-0.85,1.81-1.23
			c0.48-0.3,0.82-0.05,1.05,0.38c0.31,0.58,0.56,1.19,0.92,1.74c0.42,0.65,0.87,1.31,1.42,1.85c0.74,0.74,1.64,0.76,2.14,0.18
			c0.55-0.63,0.44-1.41-0.32-2.14c-0.25-0.24-0.54-0.46-0.83-0.66c-2.16-1.53-4.39-2.97-6.49-4.59c-3.2-2.47-5.78-5.55-8.07-8.87
			c-0.73-1.06-0.83-2.25-0.03-3.25c2.6-3.26,5.17-6.54,8.33-9.29c2.1-1.83,4.55-3.06,7.21-3.88c1.41-0.43,1.57-0.68,1.64-2.14
			c0.04-0.91,0.18-1.81,0.22-2.72c0.03-0.62,0.01-1.26-0.09-1.88c-0.1-0.65-0.51-1.11-1.18-1.22c-0.64-0.1-1.07,0.28-1.32,0.81
			c-0.52,1.09-1.02,2.19-1.49,3.3c-0.43,1.03-0.56,1.12-1.63,0.95c-0.45-0.07-0.9-0.12-1.35-0.14c-0.96-0.05-1.28-0.35-1.36-1.34
			c-0.14-1.9,0.58-3.44,1.96-4.71c1.57-1.45,3.42-2.43,5.47-2.98c3.91-1.04,7.87-1.74,11.96-1.61c4.51,0.15,7.94,2.13,10.19,6.02
			c1.16,2,2.11,4.13,3.11,6.22C74.8,56.45,75.2,56.8,76.05,56.6z M56.13,71.82c0.45-0.51,0.73-0.9,1.08-1.22
			c0.61-0.56,1.2-1.19,1.91-1.57c1.13-0.62,2.37-0.78,3.51,0.04c1.2,0.87,1.65,2.59,1.15,4.1c-0.43,1.29-1.2,1.76-2.97,1.79
			c-0.66,0.01-1.21,0.25-1.42,0.9c-0.15,0.45,0.46,1.19,1.1,1.37c0.28,0.08,0.64,0.16,0.88,0.05c0.75-0.32,1.59-0.59,2.18-1.13
			c0.76-0.7,1.42-1.58,1.94-2.48c2.14-3.75,2.99-7.84,2.99-12.12c0-1.49-0.62-2.09-2.12-2.18c-0.23-0.01-0.45-0.01-0.68-0.01
			c-2.6,0.06-5.2,0.11-7.8,0.18c-1.37,0.04-1.75,0.43-1.76,1.79c-0.01,3.28-0.01,6.56-0.02,9.84C56.1,71.32,56.11,71.46,56.13,71.82
			z M49.05,81.19c0.02-0.29,0.03-0.44,0.04-0.58c0.09-3.33,0.18-6.65,0.26-9.98c0.06-2.5,0.11-4.99,0.17-7.49
			c0.01-0.45-0.03-0.82-0.62-0.48c-1.6,0.92-3.13,1.95-4.3,3.41c-2.4,2.97-3.12,6.66-0.37,10.25C45.6,78.12,47.19,79.68,49.05,81.19
			z M66.91,55.39c-1.21-2.72-2.8-5.05-4.92-7.01c-1.13-1.04-2.05-1.04-3.18,0.02c-1.44,1.35-2.34,3-2.79,4.92
			c-0.33,1.42-0.05,1.76,1.42,1.79c1.44,0.03,2.87,0.03,4.31,0.08C63.45,55.24,65.13,55.32,66.91,55.39z"/>
		<path class="st0" d="M36.79,116.79c0-3.92,0-7.74,0-11.57c1.3,0,2.56-0.11,3.8,0.03c1.19,0.14,1.93,0.98,2.13,2.16
			c0.19,1.12,0.25,2.26-0.37,3.31c-0.08,0.14-0.04,0.43,0.05,0.6c0.6,1.15,0.54,2.36,0.25,3.54c-0.29,1.16-1.39,1.91-2.61,1.92
			C38.98,116.8,37.93,116.79,36.79,116.79z M38.87,107.09c0,1.09,0,1.95,0,3.06c0.66-0.23,1.49-0.28,1.66-0.63
			c0.25-0.53,0.24-1.39-0.03-1.91C40.32,107.26,39.48,107.27,38.87,107.09z M38.85,114.92c0.67-0.21,1.51-0.24,1.68-0.59
			c0.26-0.54,0.25-1.39-0.02-1.92c-0.17-0.34-1.02-0.33-1.65-0.5C38.85,112.96,38.85,113.78,38.85,114.92z"/>
		<path class="st0" d="M77.38,105.19c1.24,0,2.46-0.09,3.65,0.02c1.28,0.12,2.2,1.13,2.33,2.42c0.14,1.4,0.2,2.79-1.07,3.83
			c-0.11,0.09-0.09,0.41-0.04,0.6c0.36,1.54,0.75,3.08,1.14,4.68c-0.74,0-1.4,0-2.14,0c-0.35-1.37-0.7-2.75-1.04-4.14
			c-0.09-0.39-0.2-0.69-0.77-0.47c0,1.49,0,3.02,0,4.6c-0.72,0-1.36,0-2.06,0C77.38,112.9,77.38,109.06,77.38,105.19z M79.44,110.12
			c0.66-0.2,1.52-0.23,1.67-0.57c0.25-0.57,0.23-1.42-0.03-1.98c-0.15-0.32-1.02-0.3-1.64-0.45
			C79.44,108.17,79.44,108.99,79.44,110.12z"/>
		<path class="st0" d="M61.18,116.77c-0.69,0-1.34,0-2.06,0c-0.36-1.41-0.73-2.81-1.06-4.22c-0.11-0.46-0.3-0.6-0.79-0.39
			c0,1.51,0,3.04,0,4.6c-0.71,0-1.35,0-2.04,0c0-3.85,0-7.67,0-11.67c1.39,0.07,2.76,0.07,4.12,0.25c0.46,0.06,0.94,0.49,1.27,0.88
			c1.05,1.23,0.91,3.92-0.26,5.03c-0.31,0.29-0.35,0.52-0.24,0.91c0.39,1.46,0.73,2.93,1.09,4.4
			C61.21,116.59,61.19,116.64,61.18,116.77z M57.32,107.06c0,1.13,0,1.98,0,3.05c0.64-0.19,1.47-0.21,1.65-0.55
			c0.27-0.53,0.27-1.39,0.01-1.92C58.8,107.28,57.96,107.26,57.32,107.06z"/>
		<path class="st0" d="M68.49,110.99c0,1.01,0.02,2.02,0,3.03c-0.04,1.66-1.22,2.7-2.93,2.8c-2.01,0.11-3.12-1.45-3.13-2.77
			c-0.01-2.04-0.03-4.09,0.01-6.13c0.03-1.65,1.32-2.79,3.05-2.78c1.74,0.01,2.96,1.15,3,2.82
			C68.51,108.97,68.49,109.98,68.49,110.99z M66.4,111.02c0-0.96,0-1.92,0-2.88c0-0.63-0.31-0.92-0.93-0.91
			c-0.62,0-0.94,0.28-0.94,0.91c0,1.89,0,3.78,0,5.68c0,0.64,0.33,0.91,0.94,0.91c0.62,0,0.94-0.28,0.94-0.91
			C66.39,112.89,66.4,111.95,66.4,111.02z"/>
		<path class="st0" d="M103.97,110.98c0,1.09,0.02,2.17-0.01,3.26c-0.04,1.42-1.16,2.51-2.57,2.55c-2.33,0.07-3.4-0.97-3.4-3.3
			c0-1.82,0-3.64,0-5.45c0-1.27,0.58-2.21,1.76-2.66c1.2-0.46,2.44-0.41,3.37,0.57c0.43,0.45,0.72,1.16,0.8,1.78
			C104.07,108.8,103.97,109.9,103.97,110.98z M101.97,111c0-0.96,0-1.92,0-2.88c0-0.63-0.35-0.9-0.96-0.89
			c-0.59,0-0.91,0.26-0.91,0.86c-0.01,1.92,0,3.84,0,5.75c0,0.64,0.35,0.9,0.96,0.9c0.62-0.01,0.93-0.3,0.92-0.93
			C101.96,112.87,101.97,111.94,101.97,111z"/>
		<path class="st0" d="M75.83,108.31c-0.64,0-1.28,0-1.92,0c0.04-0.06,0.08-0.12,0.12-0.17c-0.33-0.3-0.61-0.76-1-0.87
			c-0.71-0.2-1.09,0.17-1.09,0.92c-0.01,1.87,0,3.73-0.01,5.6c0,0.63,0.29,0.93,0.91,0.94c0.66,0.01,0.98-0.29,0.96-0.96
			c-0.01-0.55,0-1.1,0-1.68c-0.33-0.04-0.6-0.07-0.9-0.1c0-0.68,0-1.32,0-2c0.98,0,1.93,0,2.88,0c0,1.58,0.17,3.21-0.05,4.77
			c-0.22,1.54-1.7,2.24-3.54,2.02c-1.28-0.15-2.33-1.35-2.35-2.75c-0.02-2.04-0.03-4.09,0-6.13c0.03-1.75,1.48-2.91,3.37-2.76
			C74.9,105.28,76.03,106.63,75.83,108.31z"/>
		<path class="st0" d="M29.2,105.18c0.62,0,1.24,0,1.96,0c0.01,0.25,0.03,0.52,0.03,0.78c0,2.58,0,5.15,0.01,7.73
			c0,0.81,0.36,1.12,1.12,1.04c0.67-0.07,0.79-0.52,0.79-1.08c0-2.5,0-5,0-7.5c0-0.3,0-0.6,0-0.96c0.7,0,1.34,0,2.01,0
			c0.02,0.16,0.06,0.31,0.06,0.45c0,2.78,0.02,5.55-0.01,8.33c-0.01,1.29-0.7,2.32-1.86,2.66c-1.33,0.39-2.65,0.25-3.41-0.75
			c-0.39-0.51-0.74-1.21-0.75-1.83c-0.08-2.88-0.03-5.76-0.03-8.63C29.12,105.36,29.16,105.29,29.2,105.18z"/>
		<path class="st0" d="M50.19,116.76c-0.75,0-1.37,0-2.06,0c0-3.85,0-7.69,0-11.53c1.29,0,2.56-0.01,3.84,0.01
			c0.17,0,0.34,0.08,0.5,0.16c1.76,0.87,1.85,2.23,1.6,4.38c-0.15,1.27-1.33,2.17-2.75,2.26c-0.35,0.02-0.7,0-1.12,0
			C50.19,113.63,50.19,115.15,50.19,116.76z M50.2,107.05c0,1.14,0,1.98,0,3.06c0.64-0.19,1.47-0.2,1.65-0.55
			c0.27-0.53,0.28-1.38,0.02-1.92C51.69,107.29,50.86,107.26,50.2,107.05z"/>
		<path class="st0" d="M84.74,116.75c0-3.9,0-7.7,0-11.56c1.73,0,3.43,0,5.19,0c0,0.66,0,1.3,0,2.01c-1.01,0-2.01,0-3.06,0
			c0,0.93,0,1.8,0,2.72c0.76,0,1.51,0,2.31,0c0,0.7,0,1.35,0,2.08c-0.75,0-1.51,0-2.32,0c0,0.94,0,1.78,0,2.71c1.01,0,2.01,0,3.06,0
			c0,0.72,0,1.35,0,2.03C88.2,116.75,86.49,116.75,84.74,116.75z"/>
		<path class="st0" d="M96.87,107.85c-0.69,0.14-1.3,0.26-1.88,0.37c-0.19-0.3-0.3-0.72-0.53-0.81c-0.36-0.13-0.86-0.15-1.18,0.01
			c-0.21,0.11-0.35,0.69-0.25,0.96c0.16,0.45,0.49,0.87,0.84,1.21c0.49,0.47,1.09,0.82,1.59,1.28c1.11,0.99,1.65,2.23,1.36,3.72
			c-0.29,1.53-1.63,2.34-3.54,2.18c-1.28-0.11-2.33-1.25-2.38-2.68c0.61-0.13,1.24-0.26,1.95-0.41c0.09,0.75,0.46,1.12,1.21,1.02
			c0.56-0.07,0.88-0.43,0.72-0.93c-0.17-0.52-0.49-1.04-0.87-1.44c-0.42-0.45-1.06-0.71-1.46-1.18c-0.56-0.66-1.14-1.37-1.43-2.17
			c-0.44-1.19-0.16-2.35,0.86-3.22c0.91-0.76,2.52-0.89,3.57-0.28C96.31,106,96.8,106.75,96.87,107.85z"/>
		<path class="st0" d="M21.95,108.43c-0.68,0-1.3,0-1.99,0c-0.07-0.66-0.21-1.3-1.13-1.2c-0.51,0.06-0.81,0.29-0.81,0.8
			c-0.01,1.97-0.01,3.93,0,5.9c0,0.57,0.37,0.79,0.9,0.8c0.51,0.01,0.9-0.14,0.97-0.72c0.02-0.15,0.04-0.29,0.07-0.49
			c0.66,0,1.3,0,1.94,0c0.31,1.71-0.89,3.21-2.58,3.27c-0.91,0.03-1.76-0.05-2.46-0.72c-0.56-0.53-0.85-1.16-0.84-1.95
			c0.02-2.07-0.01-4.14,0.01-6.2c0.01-1.72,1.18-2.8,2.97-2.79c1.74,0.01,2.96,1.16,3,2.83C21.98,108.09,21.96,108.22,21.95,108.43z
			"/>
		<path class="st0" d="M25.25,114.76c1.11,0,2.09,0,3.11,0c0,0.69,0,1.3,0,1.98c-1.71,0-3.41,0-5.16,0c0-3.84,0-7.68,0-11.56
			c0.68,0,1.32,0,2.05,0C25.25,108.36,25.25,111.5,25.25,114.76z"/>
	</g>
	<g class="st1">
		<path class="st0" d="M25.9,126.43l-0.82-1.38h-0.61v1.38h-0.33v-3.31h0.99c0.37,0,0.65,0.09,0.84,0.26
			c0.19,0.18,0.29,0.41,0.29,0.7c0,0.24-0.07,0.44-0.21,0.61c-0.14,0.17-0.34,0.28-0.61,0.33l0.85,1.41H25.9z M24.48,124.77h0.67
			c0.26,0,0.45-0.06,0.58-0.19c0.13-0.13,0.2-0.29,0.2-0.51c0-0.22-0.06-0.39-0.19-0.5c-0.13-0.12-0.32-0.18-0.6-0.18h-0.66V124.77z
			"/>
		<path class="st0" d="M28.2,123.39v1.24h1.25v0.27H28.2v1.25h1.4v0.27h-1.73v-3.31h1.73v0.27H28.2z"/>
		<path class="st0" d="M31.62,126.35c-0.17-0.08-0.3-0.18-0.39-0.32c-0.09-0.14-0.15-0.29-0.15-0.45h0.35
			c0.02,0.16,0.09,0.3,0.21,0.42c0.13,0.12,0.31,0.18,0.55,0.18c0.22,0,0.4-0.06,0.53-0.17c0.13-0.12,0.2-0.26,0.2-0.44
			c0-0.14-0.04-0.26-0.11-0.34c-0.07-0.09-0.16-0.15-0.27-0.19c-0.11-0.04-0.26-0.09-0.44-0.14c-0.22-0.06-0.4-0.12-0.53-0.18
			c-0.13-0.06-0.24-0.15-0.33-0.26c-0.09-0.12-0.14-0.28-0.14-0.49c0-0.17,0.04-0.32,0.13-0.46c0.09-0.13,0.21-0.24,0.37-0.31
			c0.16-0.08,0.35-0.11,0.55-0.11c0.31,0,0.55,0.08,0.74,0.22c0.19,0.15,0.3,0.34,0.32,0.58h-0.36c-0.02-0.14-0.1-0.26-0.22-0.36
			c-0.13-0.11-0.3-0.16-0.51-0.16c-0.2,0-0.36,0.05-0.5,0.16c-0.13,0.11-0.2,0.25-0.2,0.43c0,0.14,0.04,0.25,0.11,0.34
			c0.07,0.09,0.16,0.15,0.27,0.19c0.11,0.04,0.26,0.09,0.44,0.14c0.21,0.06,0.39,0.12,0.52,0.18c0.13,0.06,0.24,0.15,0.34,0.27
			c0.09,0.12,0.14,0.28,0.14,0.48c0,0.15-0.04,0.3-0.12,0.44c-0.08,0.14-0.2,0.25-0.36,0.34c-0.16,0.09-0.35,0.13-0.58,0.13
			C31.98,126.46,31.79,126.42,31.62,126.35z"/>
		<path class="st0" d="M36.78,123.12v0.27h-0.92v3.03h-0.33v-3.03h-0.92v-0.27H36.78z"/>
		<path class="st0" d="M38.91,126.24c-0.25-0.14-0.45-0.34-0.59-0.6c-0.14-0.26-0.22-0.55-0.22-0.87c0-0.32,0.07-0.62,0.22-0.87
			c0.14-0.26,0.34-0.46,0.59-0.6c0.25-0.14,0.53-0.22,0.83-0.22c0.31,0,0.59,0.07,0.84,0.22c0.25,0.14,0.44,0.34,0.59,0.6
			c0.14,0.26,0.21,0.55,0.21,0.87c0,0.32-0.07,0.62-0.21,0.87c-0.14,0.26-0.34,0.46-0.59,0.6c-0.25,0.14-0.53,0.22-0.84,0.22
			C39.43,126.46,39.16,126.39,38.91,126.24z M40.4,126c0.2-0.11,0.35-0.28,0.46-0.49c0.11-0.21,0.17-0.46,0.17-0.74
			c0-0.28-0.06-0.53-0.17-0.74c-0.11-0.21-0.27-0.37-0.46-0.49c-0.2-0.11-0.42-0.17-0.66-0.17s-0.47,0.06-0.66,0.17
			c-0.2,0.11-0.35,0.28-0.46,0.49c-0.11,0.21-0.17,0.46-0.17,0.74c0,0.28,0.06,0.53,0.17,0.74c0.11,0.21,0.27,0.38,0.46,0.49
			c0.2,0.11,0.42,0.17,0.66,0.17S40.21,126.11,40.4,126z"/>
		<path class="st0" d="M47.19,125c0.13,0.15,0.19,0.33,0.19,0.54c0,0.17-0.04,0.32-0.13,0.45c-0.08,0.13-0.21,0.24-0.37,0.32
			c-0.16,0.08-0.35,0.12-0.58,0.12h-1.15v-3.31h1.11c0.33,0,0.59,0.08,0.76,0.23c0.18,0.15,0.26,0.35,0.26,0.6
			c0,0.21-0.06,0.37-0.17,0.5c-0.11,0.13-0.25,0.22-0.43,0.27C46.91,124.75,47.06,124.85,47.19,125z M45.5,124.58h0.77
			c0.22,0,0.4-0.05,0.52-0.16c0.12-0.11,0.18-0.25,0.18-0.44c0-0.18-0.06-0.33-0.18-0.43c-0.12-0.1-0.3-0.16-0.53-0.16H45.5V124.58z
			 M46.86,125.98c0.13-0.11,0.2-0.27,0.2-0.47c0-0.2-0.07-0.36-0.21-0.48c-0.14-0.12-0.33-0.18-0.57-0.18H45.5v1.29h0.79
			C46.53,126.15,46.72,126.09,46.86,125.98z"/>
		<path class="st0" d="M50.86,125.64h-1.5l-0.29,0.79h-0.35l1.21-3.27h0.37l1.2,3.27h-0.35L50.86,125.64z M50.76,125.37l-0.65-1.79
			l-0.65,1.79H50.76z"/>
		<path class="st0" d="M54.74,126.43l-0.82-1.38h-0.61v1.38h-0.33v-3.31h0.99c0.37,0,0.65,0.09,0.84,0.26
			c0.19,0.18,0.29,0.41,0.29,0.7c0,0.24-0.07,0.44-0.21,0.61c-0.14,0.17-0.34,0.28-0.61,0.33l0.85,1.41H54.74z M53.31,124.77h0.67
			c0.26,0,0.45-0.06,0.58-0.19c0.13-0.13,0.2-0.29,0.2-0.51c0-0.22-0.06-0.39-0.19-0.5c-0.13-0.12-0.32-0.18-0.6-0.18h-0.66V124.77z
			"/>
		<path class="st0" d="M61.07,126.38c-0.05-0.05-0.07-0.11-0.07-0.18c0-0.07,0.02-0.13,0.07-0.17c0.05-0.05,0.1-0.07,0.17-0.07
			c0.07,0,0.12,0.02,0.17,0.07c0.05,0.05,0.07,0.1,0.07,0.17c0,0.07-0.02,0.13-0.07,0.18s-0.1,0.07-0.17,0.07
			C61.17,126.45,61.12,126.43,61.07,126.38z"/>
		<path class="st0" d="M67.07,124.76c-0.19,0.17-0.47,0.26-0.84,0.26h-0.67v1.41h-0.33v-3.31h1c0.37,0,0.65,0.09,0.84,0.26
			c0.19,0.17,0.28,0.4,0.28,0.69C67.35,124.35,67.26,124.58,67.07,124.76z M67.01,124.07c0-0.22-0.06-0.39-0.18-0.5
			c-0.12-0.11-0.32-0.17-0.59-0.17h-0.67v1.33h0.67C66.75,124.73,67.01,124.51,67.01,124.07z"/>
		<path class="st0" d="M70.77,125.64h-1.5l-0.29,0.79h-0.35l1.21-3.27h0.37l1.2,3.27h-0.35L70.77,125.64z M70.67,125.37l-0.65-1.79
			l-0.65,1.79H70.67z"/>
		<path class="st0" d="M74.64,126.43l-0.82-1.38h-0.61v1.38h-0.33v-3.31h0.99c0.37,0,0.65,0.09,0.84,0.26
			c0.19,0.18,0.29,0.41,0.29,0.7c0,0.24-0.07,0.44-0.21,0.61c-0.14,0.17-0.34,0.28-0.61,0.33l0.85,1.41H74.64z M73.21,124.77h0.67
			c0.26,0,0.45-0.06,0.58-0.19c0.13-0.13,0.2-0.29,0.2-0.51c0-0.22-0.06-0.39-0.19-0.5c-0.13-0.12-0.32-0.18-0.6-0.18h-0.66V124.77z
			"/>
		<path class="st0" d="M78.37,126.43l-0.82-1.38h-0.61v1.38h-0.33v-3.31h0.99c0.37,0,0.65,0.09,0.84,0.26
			c0.19,0.18,0.29,0.41,0.29,0.7c0,0.24-0.07,0.44-0.21,0.61c-0.14,0.17-0.34,0.28-0.61,0.33l0.85,1.41H78.37z M76.94,124.77h0.67
			c0.26,0,0.45-0.06,0.58-0.19c0.13-0.13,0.2-0.29,0.2-0.51c0-0.22-0.06-0.39-0.19-0.5c-0.13-0.12-0.32-0.18-0.6-0.18h-0.66V124.77z
			"/>
		<path class="st0" d="M80.66,123.12v3.31h-0.33v-3.31H80.66z"/>
		<path class="st0" d="M82.69,126.16h1.19v0.27h-1.52v-3.31h0.33V126.16z"/>
		<path class="st0" d="M85.63,126.16h1.19v0.27H85.3v-3.31h0.33V126.16z"/>
		<path class="st0" d="M90.16,125.64h-1.5l-0.29,0.79h-0.35l1.21-3.27h0.37l1.2,3.27h-0.35L90.16,125.64z M90.06,125.37l-0.65-1.79
			l-0.65,1.79H90.06z"/>
	</g>
</g>
</svg>
