<?xml version="1.0" encoding="utf-8"?>
<!-- Generator: Adobe Illustrator 28.1.0, SVG Export Plug-In . SVG Version: 6.00 Build 0)  -->
<svg version="1.1" id="Capa_1" xmlns="http://www.w3.org/2000/svg" xmlns:xlink="http://www.w3.org/1999/xlink" x="0px" y="0px"
	 viewBox="0 0 300 170" style="enable-background:new 0 0 300 170;" xml:space="preserve">
<style type="text/css">
	.st0{fill:#BFBFBF;}
</style>
<g>
	<path class="st0" d="M16.21,89.1c0.67,0,1.15,0,1.63,0c4.47,0,8.94-0.01,13.41-0.01c0.4,0,0.8-0.03,1.19,0.02
		c1.56,0.21,2.27,1.53,1.59,2.96c-0.21,0.45-0.49,0.86-0.74,1.29c-1.98,3.33-3.96,6.65-5.94,9.98c-0.25,0.41-0.46,0.85-0.82,1.53
		c0.74,0,1.26,0,1.78,0c6.26-0.01,12.51-0.01,18.77-0.01c0.5,0,1-0.02,1.48,0.08c0.96,0.2,1.56,0.98,1.56,1.91
		c0,0.96-0.56,1.66-1.58,1.88c-0.43,0.09-0.89,0.1-1.33,0.1c-7.8,0.01-15.59,0.02-23.39,0.03c-0.2,0-0.4,0.01-0.6-0.01
		c-2.11-0.15-2.86-1.55-1.77-3.4c2.12-3.59,4.26-7.17,6.39-10.75c0.27-0.45,0.5-0.92,0.9-1.65c-0.81,0-1.34,0-1.87,0
		c-4.42,0-8.84,0.01-13.26,0.01c-0.54,0-1.1-0.01-1.62-0.15c-1.18-0.31-1.7-1.44-1.24-2.57c0.15-0.37,0.36-0.71,0.57-1.05
		c3.1-5.2,6.23-10.39,9.27-15.62c0.71-1.23,1.59-1.72,3-1.71C29,72,34.42,71.93,39.83,71.98c1.13,0.01,1.8-0.31,2.38-1.32
		c1.81-3.2,3.76-6.31,5.59-9.49c0.65-1.13,1.52-1.57,2.79-1.57c7.35,0.02,14.7,0,22.05,0c0.44,0,0.9,0.03,1.32,0.16
		c1.18,0.37,1.67,1.46,1.19,2.61c-0.15,0.36-0.37,0.7-0.58,1.04c-1.37,2.31-2.74,4.61-4.11,6.91c-0.25,0.42-0.48,0.86-0.85,1.52
		c0.7,0.05,1.21,0.11,1.73,0.11c3.48,0.02,6.95,0.02,10.43,0.03c0.4,0,0.8-0.02,1.19,0.04c1.01,0.15,1.69,0.99,1.65,1.97
		c-0.03,0.93-0.7,1.67-1.66,1.81c-0.34,0.05-0.69,0.03-1.04,0.03c-5.07,0-10.13-0.01-15.2-0.02c-0.15,0-0.3,0-0.45,0
		c-1.9-0.08-2.75-1.53-1.81-3.18c1.3-2.28,2.68-4.53,4.03-6.79c0.4-0.67,0.78-1.34,1.27-2.19c-0.68-0.04-1.11-0.09-1.54-0.09
		c-5.26,0-10.53,0.03-15.79-0.01c-1-0.01-1.61,0.26-2.13,1.18c-1.82,3.19-3.77,6.31-5.6,9.49c-0.67,1.16-1.52,1.66-2.89,1.65
		c-5.51-0.05-11.02,0.01-16.54-0.03c-0.96-0.01-1.52,0.26-2.02,1.12c-2.11,3.65-4.3,7.26-6.45,10.89
		C16.61,88.18,16.48,88.54,16.21,89.1z"/>
	<path class="st0" d="M215.53,109.85c-1.09,0-2.11,0-3.25,0c0-6.62,0-13.16,0-19.64c-0.16-0.08-0.19-0.11-0.23-0.11
		c-0.04,0-0.11,0.02-0.12,0.05c-2.43,6.55-4.86,13.1-7.31,19.71c-1.01,0-1.99,0-3.18,0c-2.37-6.62-4.75-13.3-7.14-19.98
		c-0.12,0.02-0.24,0.04-0.36,0.06c0,6.61,0,13.23,0,19.92c-1.21,0-2.23,0-3.36,0c0-8.33,0-16.6,0-24.96c1.71,0,3.37,0,5.23,0
		c2.41,6.86,4.84,13.79,7.27,20.73c0.1,0,0.21,0.01,0.31,0.01c2.48-6.88,4.97-13.77,7.49-20.74c1.52,0,3.04,0,4.56,0
		C215.74,85.94,215.84,107.52,215.53,109.85z"/>
	<path class="st0" d="M113.83,101.86c1.22-0.12,2.19-0.22,3.19-0.31c0.1,0.27,0.21,0.44,0.24,0.63c0.51,2.91,2.47,4.31,5.15,4.87
		c2.17,0.46,4.34,0.43,6.43-0.46c1.09-0.46,1.94-1.19,2.35-2.34c0.52-1.46,0.12-2.99-1.21-3.79c-0.96-0.58-2.06-0.99-3.14-1.3
		c-2-0.58-4.07-0.94-6.05-1.57c-1.3-0.42-2.64-0.97-3.72-1.79c-3.15-2.39-2.96-7.03,0.28-9.49c1.91-1.45,4.14-1.87,6.45-1.93
		c2.05-0.06,4.07,0.21,5.95,1.1c2.65,1.26,4.02,3.38,4.27,6.43c-1.13,0.07-2.15,0.14-3.25,0.21c-0.14-0.42-0.28-0.78-0.38-1.15
		c-0.49-1.73-1.64-2.81-3.35-3.26c-2.01-0.53-4.05-0.56-6.02,0.1c-0.8,0.27-1.61,0.84-2.14,1.49c-1.22,1.5-0.72,3.59,1.05,4.36
		c1.31,0.57,2.72,0.91,4.11,1.29c1.58,0.43,3.19,0.75,4.76,1.2c0.9,0.26,1.78,0.63,2.6,1.09c3.99,2.26,4.59,7.26,1.28,10.45
		c-1.37,1.32-3.04,2.04-4.87,2.41c-2.53,0.51-5.06,0.36-7.52-0.33c-3.2-0.89-5.38-2.89-6.23-6.18
		C113.92,103.09,113.91,102.54,113.83,101.86z"/>
	<path class="st0" d="M254.03,94.25c-0.88-0.06-1.51-0.11-2.19-0.16c-0.12-0.33-0.23-0.65-0.4-1.11c-0.34,0.72-0.63,1.33-0.96,2.03
		c-0.34-0.08-0.66-0.14-0.98-0.22c-2.47-0.68-4.08,0.22-4.66,2.74c-0.26,1.1-0.35,2.26-0.38,3.39c-0.05,2.43-0.02,4.87-0.02,7.3
		c0,0.49,0,0.98,0,1.6c-1.1,0-2.1,0-3.18,0c0-6.01,0-11.95,0-17.99c0.9,0,1.76,0,2.75,0c0.06,0.62,0.13,1.27,0.21,2.15
		c0.37-0.43,0.64-0.69,0.86-0.99c1.11-1.47,2.59-1.91,4.36-1.55c0.74,0.15,1.47,0.44,2.21,0.47c0.71,0.03,1.43-0.2,2.29-0.33
		c0-1.37,0-2.79,0-4.29c1.08-0.62,2.09-1.2,3.37-1.92c0,2.26,0,4.22,0,6.27c1.13,0.05,2.1,0.1,3.14,0.15c0,0.76,0,1.44,0,2.28
		c-0.96,0.06-1.92,0.12-2.97,0.19c-0.06,0.36-0.16,0.69-0.16,1.01c-0.01,3.13-0.01,6.26,0,9.38c0,0.25,0.02,0.5,0.04,0.74
		c0.13,1.52,0.42,1.79,1.93,1.82c0.39,0.01,0.78,0,1.26,0c0.16,0.84,0.3,1.61,0.45,2.37c-1.61,1-4.61,0.79-5.83-0.47
		c-0.42-0.44-0.75-1.06-0.89-1.66c-0.2-0.86-0.23-1.77-0.24-2.66c-0.03-2.93-0.01-5.86-0.01-8.79
		C254.03,95.46,254.03,94.92,254.03,94.25z"/>
	<path class="st0" d="M155.52,109.88c-1.24,0-2.22,0-3.31,0c-0.26-0.63-0.51-1.24-0.8-1.94c-0.53,0.33-0.99,0.61-1.44,0.89
		c-2.4,1.48-5,1.84-7.73,1.27c-2.28-0.47-3.92-2.19-4.18-4.3c-0.28-2.2,0.78-4.13,2.88-5.26c1.34-0.73,2.82-0.89,4.3-1.11
		c1.95-0.28,3.9-0.6,5.76-0.89c0.62-2.66-0.3-4.1-2.69-4.5c-0.2-0.03-0.39-0.05-0.59-0.07c-3.32-0.36-4.48,0.26-6.09,3.35
		c-0.93-0.12-1.9-0.25-3-0.39c0.39-1.97,1.23-3.55,3-4.42c3.29-1.61,6.71-1.65,10.12-0.43c1.56,0.55,2.47,1.79,2.7,3.46
		c0.1,0.69,0.16,1.38,0.17,2.07c0.03,2.04,0,4.07,0.02,6.11C154.64,105.75,154.54,107.8,155.52,109.88z M151.08,101.07
		c-2.14,0.37-4.18,0.73-6.21,1.09c-0.44,0.08-0.87,0.18-1.3,0.32c-1.35,0.45-2.05,1.35-2.03,2.59c0.02,1.27,0.83,2.31,2.23,2.6
		C147.51,108.44,152.11,106.68,151.08,101.07z"/>
	<path class="st0" d="M237.27,109.86c-1.31,0-2.34,0-3.41,0c-0.25-0.63-0.48-1.21-0.75-1.9c-0.47,0.28-0.89,0.5-1.29,0.76
		c-2.37,1.54-4.95,1.94-7.7,1.42c-2.37-0.45-4.07-2.12-4.38-4.27c-0.33-2.27,0.79-4.41,3.08-5.39c1.25-0.54,2.65-0.75,4.01-1.02
		c1.7-0.33,3.41-0.59,5.13-0.84c0.82-0.12,1.06-0.54,1-1.33c-0.13-1.86-0.89-2.9-2.73-3.18c-1.21-0.18-2.47-0.14-3.69-0.03
		c-1.21,0.11-2.09,0.85-2.6,1.97c-0.16,0.36-0.31,0.73-0.54,1.24c-0.48-0.05-1.01-0.1-1.53-0.16c-0.49-0.06-0.97-0.14-1.56-0.23
		c0.34-2.09,1.34-3.69,3.22-4.54c3.11-1.41,6.35-1.48,9.57-0.4c2.22,0.74,3.11,2.5,3.14,4.73c0.04,2.58,0.02,5.16,0.05,7.74
		C236.33,106.23,236.26,108.02,237.27,109.86z M232.79,101.04c-1.69,0.32-3.38,0.64-5.07,0.96c-0.78,0.15-1.57,0.24-2.33,0.45
		c-1.44,0.4-2.19,1.36-2.17,2.64c0.02,1.26,0.84,2.32,2.25,2.59C229.14,108.4,233.75,106.81,232.79,101.04z"/>
	<path class="st0" d="M162.8,109.87c-1.15,0-2.08,0-2.99,0c-0.33-1.07-0.43-15.87-0.12-18.06c0.85,0,1.71,0,2.7,0
		c0.05,0.61,0.11,1.23,0.18,2.01c0.32-0.22,0.59-0.37,0.82-0.58c2.4-2.14,6.2-2.58,9.02-1.02c1.67,0.92,2.49,2.41,2.57,4.26
		c0.1,2.28,0.09,4.56,0.11,6.85c0.02,2.13,0,4.25,0,6.5c-1.14,0-2.14,0-3.31,0c0-0.56,0-1.05,0-1.53c0-3.03,0.01-6.06-0.01-9.08
		c0-0.69-0.02-1.39-0.1-2.08c-0.16-1.56-1.06-2.51-2.55-2.93c-2.93-0.84-5.72,0.92-6.13,3.93c-0.14,1.08-0.18,2.18-0.19,3.26
		C162.78,104.16,162.8,106.93,162.8,109.87z"/>
	<path class="st0" d="M277.1,109.84c-1.06,0-2.03,0-3.1,0c0-6,0-11.97,0-18.04c0.89,0,1.76,0,2.75,0c0.06,0.62,0.12,1.24,0.19,2.04
		c0.37-0.29,0.68-0.49,0.93-0.74c2.31-2.3,6.81-2.23,9.18-0.69c1.5,0.97,2.16,2.43,2.29,4.14c0.09,1.14,0.07,2.28,0.07,3.42
		c0.01,2.78,0.01,5.56,0,8.34c0,0.48-0.04,0.97-0.07,1.54c-1.06,0-2.03,0-3.22,0c0-0.51,0-0.98,0-1.46c0-3.18,0.01-6.35-0.01-9.53
		c0-0.64-0.06-1.29-0.14-1.92c-0.2-1.52-1.15-2.37-2.56-2.75c-2.8-0.77-5.48,0.87-6.04,3.71c-0.13,0.68-0.18,1.38-0.19,2.07
		c-0.02,2.78-0.01,5.56-0.01,8.34C277.17,108.78,277.13,109.27,277.1,109.84z"/>
	<path class="st0" d="M88.71,81.4c-0.37-0.26-0.6-0.42-1.08-0.75c1.54-0.14,2.82-0.1,4.28-0.01c-0.46,2.3-0.88,4.47-1.38,6.97
		c0.56-0.42,0.9-0.64,1.2-0.91c2.01-1.77,4.03-3.53,6.01-5.33c0.63-0.57,1.27-0.88,2.12-0.82c0.88,0.06,1.78,0.01,2.74,0.13
		c-1.92,0.48-2.47,2.21-3.41,3.56c-1.3,1.86-2.53,3.78-3.81,5.7c0.33,0.26,0.56,0.43,0.78,0.61c-0.16,0.33-2.58,0.41-5.28,0.1
		c1.98-0.47,2.56-2.27,3.55-3.65c0.85-1.18,1.62-2.43,2.21-3.83c-0.51,0.44-1.02,0.87-1.52,1.32c-2.07,1.85-4.13,3.71-6.21,5.55
		c-0.42,0.37-0.79,0.95-1.71,0.61c0.24-1.21,0.49-2.45,0.74-3.69c0.24-1.21,0.47-2.41,0.73-3.73c-0.94,0.64-4.14,5.3-4.74,6.81
		c0.25,0.17,0.5,0.35,0.97,0.68c-1.25,0-2.25,0-3.25,0c1.37-0.42,1.91-1.62,2.6-2.65C85.72,85.89,87.17,83.7,88.71,81.4z"/>
	<path class="st0" d="M267.95,109.86c-1.05,0-2.02,0-3.09,0c0-6.05,0-12.03,0-18.07c1.06,0,2.04,0,3.01,0
		C268.17,92.84,268.25,107.86,267.95,109.86z"/>
	<path class="st0" d="M153.77,65.01c-0.83,0.2-1.3,0.31-1.79,0.43c-0.13-0.23-0.23-0.39-0.32-0.56c-0.93-1.66-2.1-2.28-3.89-2.08
		c-1.79,0.2-2.99,1.22-3.5,2.97c-0.42,1.47-0.41,2.94,0,4.4c0.51,1.79,1.8,2.83,3.66,2.96c1.76,0.13,3.08-0.7,3.86-2.41
		c0.1-0.22,0.19-0.45,0.35-0.82c0.55,0.14,1.09,0.27,1.71,0.42c-0.64,2.35-2,3.8-4.27,4.21c-3.44,0.62-6.24-0.8-7.18-4.35
		c-0.44-1.66-0.45-3.35,0.11-4.98c1.43-4.1,7.19-5.37,9.98-2.2C152.97,63.53,153.27,64.21,153.77,65.01z"/>
	<path class="st0" d="M75.71,80.82c-0.66,0.97-1.35,1.96-2.03,2.96c-0.1-0.04-0.2-0.07-0.3-0.11c0.04-0.35,0.14-0.71,0.09-1.04
		c-0.06-0.42-0.14-0.92-0.4-1.2c-0.62-0.66-2.17-0.44-3,0.33c-0.82,0.75-0.88,1.56-0.13,2.5c0.43,0.54,0.94,1.03,1.37,1.57
		c0.92,1.17,0.89,2.08-0.09,3.19c-0.85,0.97-1.94,1.59-3.21,1.73c-1.07,0.12-2.18,0.11-3.25-0.05c-0.98-0.15-1.92-0.5-2.97,0.06
		c0.64-1.39,1.43-2.56,2.28-3.7c0.11,0.04,0.21,0.07,0.32,0.11c-0.06,0.34-0.13,0.68-0.19,1.02c-0.21,1.2,0.35,1.91,1.55,2.02
		c0.83,0.07,1.58-0.16,2.23-0.67c0.95-0.75,1.06-1.61,0.33-2.56c-0.33-0.43-0.73-0.81-1.08-1.23c-1.05-1.25-1.04-2.53,0.11-3.72
		c1.52-1.57,3.4-1.89,5.48-1.5C73.71,80.69,74.63,80.71,75.71,80.82z"/>
	<path class="st0" d="M225.68,69.66c-0.07,3.77-2.86,5.83-6.13,4.72c-1.81-0.61-2.83-2.18-2.88-4.41c-0.05-2.57,0.87-4.14,2.86-4.87
		c1.88-0.69,3.92-0.18,5.15,1.28C225.54,67.4,225.72,68.6,225.68,69.66z M223.99,69.8c-0.07-0.6-0.08-1.05-0.18-1.48
		c-0.31-1.27-1.3-2.06-2.54-2.1c-1.27-0.04-2.27,0.65-2.64,1.94c-0.34,1.16-0.35,2.35,0.12,3.49c0.45,1.1,1.38,1.64,2.58,1.6
		c1.17-0.04,1.97-0.62,2.34-1.72C223.85,70.93,223.9,70.28,223.99,69.8z"/>
	<path class="st0" d="M251.47,69.74c-0.02,3.63-2.88,5.78-6.19,4.64c-2.06-0.71-3.18-2.86-2.85-5.48c0.31-2.38,1.8-3.88,4.03-4.05
		C249.52,64.63,251.49,66.55,251.47,69.74z M249.83,69.68c-0.13-0.59-0.21-1.24-0.43-1.83c-0.4-1.07-1.45-1.7-2.58-1.63
		c-1.14,0.07-1.97,0.64-2.37,1.72c-0.45,1.2-0.44,2.43,0,3.63c0.41,1.1,1.35,1.7,2.54,1.68c1.2-0.01,2.08-0.62,2.46-1.77
		C249.63,70.92,249.69,70.32,249.83,69.68z"/>
	<path class="st0" d="M165.95,69.61c0.03,3.73-2.85,5.93-6.21,4.77c-0.05-0.02-0.1-0.03-0.14-0.05c-2.43-0.93-3.51-4.45-2.21-7.16
		c1.07-2.23,4.21-3.07,6.44-1.74C165.22,66.27,165.94,67.69,165.95,69.61z M164.3,69.66c-0.13-0.58-0.2-1.17-0.39-1.72
		c-0.39-1.09-1.39-1.74-2.52-1.73c-1.13,0.01-2.1,0.69-2.48,1.78c-0.41,1.16-0.41,2.33-0.01,3.49c0.4,1.16,1.38,1.8,2.63,1.77
		c1.19-0.03,2.05-0.65,2.42-1.82C164.12,70.86,164.18,70.27,164.3,69.66z"/>
	<path class="st0" d="M51.86,88.67c-1.85,1.76-4.01,2.65-6.61,2.19c-2.21-0.39-3.18-2.08-2.38-4.19c0.28-0.73,0.64-1.48,1.15-2.06
		c2.29-2.62,5.15-4.13,8.68-4.21c0.39-0.01,0.79,0.06,1.18,0.09c0.81,0.06,1.61,0.11,2.47,0.17c-0.46,0.91-0.99,1.9-1.88,2.7
		c-0.1-0.18-0.18-0.26-0.18-0.34c0.02-1.77-0.6-2.28-2.34-1.91c-1.62,0.34-2.96,1.23-3.95,2.49c-0.88,1.11-1.69,2.34-2.22,3.65
		c-0.76,1.86,0.25,3.05,2.25,2.76c0.9-0.13,1.76-0.58,2.62-0.93c0.38-0.16,0.72-0.44,1.07-0.66C51.77,88.49,51.82,88.58,51.86,88.67
		z"/>
	<path class="st0" d="M180.92,71.6c0.59-0.08,1.05-0.15,1.47-0.21c0.96,1.68,1.69,2.08,3.27,1.81c0.33-0.06,0.69-0.17,0.96-0.37
		c0.83-0.6,0.73-1.59-0.23-1.97c-0.73-0.29-1.53-0.42-2.28-0.67c-0.61-0.2-1.25-0.37-1.79-0.7c-1.17-0.69-1.5-2.11-0.76-3.23
		c1-1.5,2.55-1.57,4.12-1.39c1.37,0.16,2.48,0.73,2.78,2.25c0.01,0.05-0.01,0.1-0.02,0.28c-0.42,0.08-0.87,0.16-1.36,0.25
		c-0.67-1.43-1.79-1.68-3.14-1.39c-0.58,0.13-1.14,0.43-1.06,1.03c0.05,0.38,0.52,0.83,0.91,1c0.72,0.32,1.51,0.46,2.27,0.68
		c0.29,0.08,0.57,0.17,0.85,0.26c1.14,0.35,1.94,1.01,2.01,2.28c0.06,1.11-0.63,2.16-1.79,2.67c-1.44,0.63-2.91,0.62-4.34,0.02
		C181.76,73.8,181.2,72.94,180.92,71.6z"/>
	<path class="st0" d="M254.48,71.64c0.51-0.1,0.92-0.18,1.46-0.28c0.48,1.56,1.59,2.09,3.1,1.87c0.33-0.05,0.73-0.12,0.96-0.33
		c0.3-0.28,0.64-0.73,0.62-1.08c-0.02-0.34-0.43-0.78-0.77-0.93c-0.72-0.31-1.52-0.44-2.27-0.68c-0.61-0.2-1.24-0.38-1.79-0.7
		c-1.17-0.7-1.46-2.08-0.74-3.23c1.22-1.98,5.43-1.96,6.62,0.03c0.17,0.28,0.23,0.63,0.39,1.09c-0.54,0.1-0.99,0.18-1.48,0.27
		c-0.64-1.34-1.69-1.66-2.99-1.4c-0.62,0.12-1.19,0.33-1.23,1.06c-0.03,0.68,0.52,0.91,1.05,1.07c0.95,0.28,1.91,0.51,2.85,0.81
		c1.5,0.49,2.2,1.3,2.18,2.47c-0.01,1.18-0.88,2.24-2.21,2.7c-1.22,0.42-2.45,0.41-3.65-0.03
		C255.38,73.91,254.66,73.05,254.48,71.64z"/>
	<path class="st0" d="M192.69,65.06c0.51,0.03,0.94,0.06,1.52,0.1c0,1.42,0,2.75,0,4.08c0,0.64-0.01,1.29,0.03,1.93
		c0.07,1.32,0.59,1.93,1.68,2.04c1.2,0.12,2.36-0.62,2.57-1.75c0.13-0.67,0.11-1.38,0.12-2.07c0.02-1.38,0-2.75,0-4.22
		c0.63,0,1.09,0,1.62,0c0,3.09,0,6.09,0,9.15c-0.74,0.16-1.41,0.33-1.54-0.81c-0.44,0.28-0.78,0.55-1.17,0.74
		c-2.09,1.06-5.18,0.08-5.02-2.94c0.1-1.88,0.02-3.76,0.03-5.64C192.54,65.52,192.61,65.38,192.69,65.06z"/>
	<path class="st0" d="M177.34,74.36c-0.61,0-1.04,0-1.68,0c0-1.18,0-2.3,0-3.43c0-0.84,0.02-1.69-0.01-2.53
		c-0.05-1.43-0.56-2.02-1.77-2.1c-1.34-0.08-2.29,0.56-2.52,1.79c-0.12,0.68-0.14,1.38-0.15,2.07c-0.02,1.34-0.01,2.67-0.01,4.12
		c-0.56,0-1.01,0-1.56,0c0-3.03,0-6.03,0-9.04c0.77-0.37,1.33-0.28,1.63,0.74c1.04-1.02,2.21-1.29,3.5-1.11
		c1.5,0.21,2.51,1.16,2.56,2.64C177.4,69.75,177.34,71.98,177.34,74.36z"/>
	<path class="st0" d="M212.49,72.83c0.55,0.08,0.93,0.14,1.42,0.22c0.09,0.36,0.2,0.76,0.3,1.17c-0.21,0.11-0.33,0.22-0.46,0.24
		c-0.39,0.04-0.79,0.1-1.18,0.06c-1.23-0.11-1.79-0.66-1.83-1.91c-0.06-1.54-0.02-3.08-0.03-4.62c0-0.45,0-0.89,0-1.42
		c-0.37-0.14-0.72-0.26-1.06-0.39c-0.05-0.93-0.05-0.93,1.02-1.4c0.08-1.12-0.28-2.56,1.66-2.77c0.05,0.95,0.09,1.87,0.14,2.85
		c0.49,0.12,0.95,0.23,1.46,0.35c0,0.32,0,0.61,0,0.97c-0.45,0.08-0.91,0.17-1.44,0.27C212.49,68.55,212.49,70.62,212.49,72.83z"/>
	<path class="st0" d="M206.12,74.36c-0.55,0-0.99,0-1.52,0c0-4.24,0-8.43,0-12.7c0.24-0.05,0.47-0.12,0.7-0.13
		c0.24-0.01,0.48,0.05,0.82,0.09C206.12,65.83,206.12,70.01,206.12,74.36z"/>
	<path class="st0" d="M234.05,66.62c-2.51-0.11-3.02,0.37-3.07,2.87c-0.04,1.53-0.04,3.07-0.06,4.6c0,0.04-0.05,0.08-0.16,0.25
		c-0.38,0.02-0.84,0.04-1.41,0.06c0-3.12,0-6.12,0-9.13c0.75-0.44,1.3-0.3,1.65,0.62c1.01-1.18,2.1-1.38,3.47-0.55
		C234.33,65.78,234.18,66.21,234.05,66.62z"/>
	<path class="st0" d="M264.69,89.37c0.72-1.45,1.37-2.82,2.1-4.15c0.15-0.28,0.59-0.54,0.92-0.56c1.07-0.07,2.14-0.03,3.46-0.03
		c-0.34,0.51-0.52,0.83-0.74,1.12c-0.58,0.73-1.27,1.4-1.76,2.19C267.76,89.39,266.55,89.9,264.69,89.37z"/>
	<path class="st0" d="M237.31,65.14c0.51,0,0.94,0,1.58,0c0.02,3.06,0.01,6.05,0,9.17c-0.56,0.04-1.02,0.07-1.59,0.11
		C237.31,71.28,237.31,68.23,237.31,65.14z"/>
	<path class="st0" d="M238.79,63.3c-0.51,0-0.94,0-1.47,0c0-0.54,0-1.05,0-1.7c0.44-0.03,0.89-0.06,1.47-0.09
		C238.79,62.12,238.79,62.63,238.79,63.3z"/>
</g>
</svg>
