<?xml version="1.0" encoding="utf-8"?>
<!-- Generator: Adobe Illustrator 28.1.0, SVG Export Plug-In . SVG Version: 6.00 Build 0)  -->
<svg version="1.1" id="Capa_1" xmlns="http://www.w3.org/2000/svg" xmlns:xlink="http://www.w3.org/1999/xlink" x="0px" y="0px"
	 viewBox="0 0 325 170" style="enable-background:new 0 0 325 170;" xml:space="preserve">
<style type="text/css">
	.st0{fill:#BFBFBF;}
</style>
<g>
	<path class="st0" d="M114.34,81.28c-0.77,1.62-2.94,2.51-5.15,2.51c-5.43,0-7.64-3.76-7.64-9.01c0-5.82,2.99-9.63,8.74-9.63
		c3.93,0,6.79,1.77,7.12,6.3l-3.58,0.35c-0.2-1.92-1.02-3.48-3.61-3.48c-3.16,0-4.68,2.26-4.68,6.12c0,4.28,1.39,6.27,4.55,6.27
		c2.41,0,3.68-1.39,3.68-3.14v-0.65h-3.29v-2.81h7.07v9.38h-2.79L114.34,81.28z"/>
	<rect x="120.5" y="64.71" class="st0" width="3.76" height="18.79"/>
	<path class="st0" d="M126.52,77.07c0-4.15,2.17-6.82,6.67-6.82c4.5,0,6.25,2.71,6.25,6.55c0,4.23-1.94,6.99-6.59,6.99
		C128.14,83.79,126.52,80.96,126.52,77.07 M135.53,76.93c0-2.84-0.77-3.83-2.44-3.83c-1.69,0-2.64,1.07-2.64,3.88
		c0,2.89,0.72,4.03,2.56,4.03C134.66,81.01,135.53,79.96,135.53,76.93"/>
	<path class="st0" d="M141.76,83.5V64.71h3.68v7c1.05-1.02,2.32-1.44,3.91-1.44c2.61,0,4.78,1.69,4.78,6.47
		c0,5.08-2.29,7.07-5.4,7.07c-1.59,0-2.76-0.6-3.56-1.39h-0.07l-0.17,1.1H141.76z M145.49,79.94c0.47,0.35,1.32,0.85,2.26,0.85
		c1.67,0,2.41-1.29,2.41-3.96c0-2.07-0.5-3.56-2.29-3.56c-0.9,0-1.84,0.5-2.39,0.99V79.94z"/>
	<path class="st0" d="M166.71,80.26c0,0.7,0.12,1,0.77,1c0.22,0,0.45-0.05,0.77-0.15l0.1,2.16c-0.5,0.25-1.59,0.5-2.39,0.5
		c-1.49,0-2.39-0.42-2.66-1.64c-0.82,1.07-2.07,1.67-3.86,1.67c-3.24,0-3.86-2.16-3.86-3.46c0-3.96,4.11-4.56,7.44-4.53v-0.47
		c0-1.47-0.2-2.36-1.84-2.36c-1.24,0-1.72,0.52-1.97,1.79l-3.19-0.62c0.4-2.44,1.94-3.88,5.48-3.88c3.46,0,5.2,1.34,5.2,4.58V80.26z
		 M163.05,78h-0.6c-1.79,0.05-3.09,0.4-3.09,1.72c0,0.75,0.32,1.42,1.52,1.42c0.9,0,1.77-0.45,2.17-0.85V78z"/>
	<rect x="170.12" y="64.71" class="st0" width="3.76" height="18.79"/>
	<polygon class="st0" points="185.71,83.5 181.87,83.5 181.87,65.48 193.22,65.48 193.22,68.69 185.71,68.69 185.71,73.27 
		192.62,73.27 192.62,76.43 185.71,76.43 	"/>
	<path class="st0" d="M205.03,80.26c0,0.7,0.12,1,0.77,1c0.22,0,0.45-0.05,0.77-0.15l0.1,2.16c-0.5,0.25-1.59,0.5-2.39,0.5
		c-1.49,0-2.39-0.42-2.66-1.64c-0.82,1.07-2.07,1.67-3.86,1.67c-3.24,0-3.86-2.16-3.86-3.46c0-3.96,4.11-4.56,7.44-4.53v-0.47
		c0-1.47-0.2-2.36-1.84-2.36c-1.24,0-1.72,0.52-1.97,1.79l-3.19-0.62c0.4-2.44,1.94-3.88,5.48-3.88c3.46,0,5.2,1.34,5.2,4.58V80.26z
		 M201.37,78h-0.6c-1.79,0.05-3.09,0.4-3.09,1.72c0,0.75,0.32,1.42,1.52,1.42c0.9,0,1.77-0.45,2.17-0.85V78z"/>
	<path class="st0" d="M216.58,73.94c-1.69-0.15-3.36,0.3-4.46,1.17v8.39h-3.76V70.53h3.21l0.27,2.04c0.87-1.27,2.09-2.31,4.08-2.31
		c0.2,0,0.42,0,0.65,0.02V73.94z"/>
	<path class="st0" d="M221.91,83.5h-3.76V70.53h3.19l0.17,1.22c1.02-0.85,2.26-1.49,3.93-1.49c1.54,0,2.71,0.45,3.31,1.62
		c0.92-0.95,2.29-1.62,4.03-1.62c2.59,0,3.88,1.42,3.88,4.3v8.93h-3.76v-8.34c0-1.22-0.37-1.87-1.47-1.87c-0.7,0-1.67,0.4-2.14,0.9
		c0,0.1,0.03,0.2,0.03,0.32v8.98h-3.76v-8.34c0-1.22-0.37-1.87-1.44-1.87c-0.77,0-1.72,0.42-2.21,0.92V83.5z"/>
	<polygon class="st0" points="248.4,83.5 244.57,83.5 244.57,65.48 255.92,65.48 255.92,68.69 248.4,68.69 248.4,73.27 
		255.32,73.27 255.32,76.43 248.4,76.43 	"/>
	<path class="st0" d="M257.1,77.07c0-4.15,2.17-6.82,6.67-6.82c4.5,0,6.25,2.71,6.25,6.55c0,4.23-1.94,6.99-6.59,6.99
		C258.71,83.79,257.1,80.96,257.1,77.07 M266.11,76.93c0-2.84-0.77-3.83-2.44-3.83c-1.69,0-2.64,1.07-2.64,3.88
		c0,2.89,0.72,4.03,2.56,4.03C265.23,81.01,266.11,79.96,266.11,76.93"/>
	<path class="st0" d="M271.71,77.07c0-4.15,2.17-6.82,6.67-6.82c4.5,0,6.25,2.71,6.25,6.55c0,4.23-1.94,6.99-6.59,6.99
		C273.33,83.79,271.71,80.96,271.71,77.07 M280.72,76.93c0-2.84-0.77-3.83-2.44-3.83c-1.69,0-2.64,1.07-2.64,3.88
		c0,2.89,0.72,4.03,2.56,4.03C279.85,81.01,280.72,79.96,280.72,76.93"/>
	<path class="st0" d="M298.77,83.5h-3.14l-0.22-1.27l-0.07-0.02c-0.9,1-2.12,1.59-3.83,1.59c-3.04,0-5.1-1.86-5.1-6.52
		c0-5.2,2.79-7.02,5.48-7.02c1.44,0,2.46,0.32,3.29,1.09v-6.65h3.61V83.5z M295.04,73.97c-0.5-0.37-1.24-0.72-2.09-0.72
		c-1.89,0-2.61,1.67-2.61,3.91c0,2.31,0.72,3.68,2.49,3.68c0.8,0,1.62-0.37,2.21-0.92V73.97z"/>
	<path class="st0" d="M300.74,80.36l3.04-1.05c0.3,1.02,0.82,1.99,2.59,1.99c1.27,0,1.97-0.42,1.97-1.27c0-1-1.02-1.27-2.49-1.54
		c-2.07-0.4-4.68-0.87-4.68-4.03c0-2.84,2.49-4.2,5.4-4.2c2.94,0,4.55,1.29,5.18,3.48l-3.01,0.9c-0.3-1.12-0.85-1.89-2.21-1.89
		c-1.24,0-1.77,0.52-1.77,1.24c0,1.02,1.05,1.22,2.66,1.52c2.14,0.4,4.55,0.9,4.55,3.93c0,2.94-2.51,4.35-5.72,4.35
		C302.94,83.79,301.17,82.53,300.74,80.36"/>
	<path class="st0" d="M102.99,101.72h-1.44V90.28h3.73c2.92,0,3.81,1.61,3.81,3.43c0,2.72-1.61,3.85-4.36,3.85h-1.74V101.72z
		 M104.61,96.32c1.66,0,2.97-0.39,2.97-2.53c0-1.64-0.9-2.28-2.73-2.28h-1.86v4.8H104.61z"/>
	<path class="st0" d="M117.88,100.19c0,0.44,0.08,0.63,0.49,0.63c0.14,0,0.28-0.03,0.49-0.1l0.06,0.9
		c-0.32,0.16-0.73,0.25-1.12,0.25c-0.8,0-1.17-0.44-1.25-0.96c-0.63,0.63-1.47,1-2.61,1c-2.05,0-2.4-1.39-2.4-2.18
		c0-2.17,1.91-2.77,4.2-2.77c0.25,0,0.49,0.02,0.71,0.03v-0.79c0-1.03-0.29-1.66-1.61-1.66c-1.12,0-1.55,0.44-1.72,1.34l-1.26-0.24
		c0.25-1.52,1.23-2.23,3.11-2.23c2.01,0,2.91,0.77,2.91,2.8V100.19z M116.47,98.04c-0.22-0.03-0.52-0.05-0.82-0.05
		c-1.12,0-2.62,0.11-2.62,1.5c0,0.69,0.25,1.29,1.36,1.29c0.84,0,1.64-0.44,2.09-0.92V98.04z"/>
	<path class="st0" d="M126.49,101.37c-0.39,0.27-1.23,0.54-1.99,0.54c-1.52,0-2.29-0.7-2.29-2.32v-4.83h-1.25V93.6h1.25v-2.35
		l1.44-0.22v2.57h2.24v1.15h-2.24v4.64c0,0.85,0.19,1.33,1.17,1.33c0.49,0,1.07-0.21,1.42-0.4L126.49,101.37z"/>
	<path class="st0" d="M135.21,100.19c0,0.44,0.08,0.63,0.49,0.63c0.14,0,0.28-0.03,0.49-0.1l0.06,0.9
		c-0.32,0.16-0.73,0.25-1.12,0.25c-0.81,0-1.17-0.44-1.25-0.96c-0.63,0.63-1.47,1-2.61,1c-2.05,0-2.4-1.39-2.4-2.18
		c0-2.17,1.91-2.77,4.2-2.77c0.25,0,0.49,0.02,0.71,0.03v-0.79c0-1.03-0.28-1.66-1.61-1.66c-1.12,0-1.55,0.44-1.72,1.34l-1.26-0.24
		c0.25-1.52,1.23-2.23,3.11-2.23c2.01,0,2.91,0.77,2.91,2.8V100.19z M133.81,98.04c-0.22-0.03-0.52-0.05-0.82-0.05
		c-1.12,0-2.62,0.11-2.62,1.5c0,0.69,0.25,1.29,1.36,1.29c0.84,0,1.64-0.44,2.09-0.92V98.04z"/>
	<path class="st0" d="M144.78,94.17c0.25-0.58,0.68-1.03,1.28-1.03c0.25,0,0.47,0.05,0.71,0.13v1.06c-0.49-0.03-1.17,0.05-1.58,0.17
		c0.41,0.44,0.63,1.17,0.63,1.83c0,1.83-1.47,2.89-3.33,2.89c-0.54,0-1.09-0.05-1.5-0.19c-0.22,0.2-0.51,0.44-0.51,0.77
		c0,0.32,0.17,0.55,1.04,0.62l2.32,0.16c1.67,0.11,2.65,0.52,2.65,2.12c0,1.99-2.13,2.59-4.17,2.59c-3.03,0-3.65-1.04-3.65-2.01
		c0-0.92,0.65-1.55,1.31-1.86v-0.02c-0.55-0.22-0.88-0.58-0.88-1.17c0-0.7,0.51-1.11,1.07-1.55c-0.74-0.4-1.2-1.23-1.2-2.28
		c0-1.79,1.34-2.99,3.45-2.99C143.42,93.43,144.24,93.63,144.78,94.17 M143.66,101.87l-2.69-0.16c-0.62,0.41-0.9,0.77-0.9,1.31
		c0,0.68,0.55,1.14,2.43,1.14c1.67,0,2.51-0.43,2.51-1.28C145.01,102.29,144.76,101.94,143.66,101.87 M142.44,94.57
		c-1.12,0-2.07,0.52-2.07,1.77c0,1.06,0.62,1.76,2.05,1.76c1.18,0,2.01-0.63,2.01-1.72C144.43,95.15,143.67,94.57,142.44,94.57"/>
	<path class="st0" d="M149,97.69c0-2.62,1.36-4.27,3.95-4.27c2.57,0,3.63,1.66,3.63,4.08c0,2.67-1.11,4.41-3.84,4.41
		C149.94,101.91,149,100.1,149,97.69 M155.09,97.6c0-2.24-0.79-2.99-2.2-2.99c-1.44,0-2.4,0.85-2.4,3.02c0,2.15,0.76,3.13,2.34,3.13
		C154.23,100.76,155.09,99.91,155.09,97.6"/>
	<path class="st0" d="M166.98,101.72h-1.44v-5.29c0-1.12-0.41-1.74-1.52-1.74c-0.93,0-1.94,0.6-2.37,0.98v6.05h-1.44V93.6h1.26
		l0.08,0.96c0.79-0.63,1.8-1.14,2.92-1.14c1.74,0,2.5,0.95,2.5,2.78V101.72z"/>
	<path class="st0" d="M171.72,92.04c-0.65,0-1.01-0.38-1.01-1.04c0-0.66,0.36-1.03,1.01-1.03c0.65,0,1.03,0.36,1.03,1.03
		C172.75,91.66,172.37,92.04,171.72,92.04 M172.42,101.72h-1.44V93.6h1.44V101.72z"/>
	<path class="st0" d="M182.43,100.19c0,0.44,0.08,0.63,0.49,0.63c0.14,0,0.28-0.03,0.49-0.1l0.06,0.9
		c-0.32,0.16-0.73,0.25-1.12,0.25c-0.8,0-1.17-0.44-1.25-0.96c-0.63,0.63-1.47,1-2.61,1c-2.05,0-2.4-1.39-2.4-2.18
		c0-2.17,1.91-2.77,4.2-2.77c0.25,0,0.49,0.02,0.71,0.03v-0.79c0-1.03-0.29-1.66-1.61-1.66c-1.12,0-1.55,0.44-1.72,1.34l-1.26-0.24
		c0.25-1.52,1.23-2.23,3.11-2.23c2.01,0,2.91,0.77,2.91,2.8V100.19z M181.02,98.04c-0.22-0.03-0.52-0.05-0.82-0.05
		c-1.12,0-2.62,0.11-2.62,1.5c0,0.69,0.25,1.29,1.36,1.29c0.84,0,1.64-0.44,2.09-0.92V98.04z"/>
	<path class="st0" d="M193.43,101.72H192v-5.29c0-1.12-0.41-1.74-1.52-1.74c-0.93,0-1.94,0.6-2.37,0.98v6.05h-1.44V93.6h1.26
		l0.08,0.96c0.79-0.63,1.8-1.14,2.92-1.14c1.74,0,2.5,0.95,2.5,2.78V101.72z"/>
	<polygon class="st0" points="204.18,101.72 202.73,101.72 202.73,90.28 209.41,90.28 209.41,91.55 204.18,91.55 204.18,95.51 
		209.02,95.51 209.02,96.78 204.18,96.78 	"/>
	<rect x="212.71" y="89.79" class="st0" width="1.44" height="11.93"/>
	<path class="st0" d="M224.16,100.19c0,0.44,0.08,0.63,0.49,0.63c0.14,0,0.28-0.03,0.49-0.1l0.06,0.9
		c-0.32,0.16-0.73,0.25-1.12,0.25c-0.8,0-1.17-0.44-1.25-0.96c-0.63,0.63-1.47,1-2.61,1c-2.05,0-2.4-1.39-2.4-2.18
		c0-2.17,1.91-2.77,4.2-2.77c0.25,0,0.49,0.02,0.71,0.03v-0.79c0-1.03-0.29-1.66-1.61-1.66c-1.12,0-1.55,0.44-1.72,1.34l-1.26-0.24
		c0.25-1.52,1.23-2.23,3.11-2.23c2.01,0,2.91,0.77,2.91,2.8V100.19z M222.75,98.04c-0.22-0.03-0.52-0.05-0.82-0.05
		c-1.12,0-2.62,0.11-2.62,1.5c0,0.69,0.25,1.29,1.36,1.29c0.84,0,1.64-0.44,2.09-0.92V98.04z"/>
	<polygon class="st0" points="229.9,101.72 226.8,93.6 228.37,93.6 230.75,100.28 230.77,100.28 233.12,93.6 234.59,93.6 
		231.54,101.72 	"/>
	<path class="st0" d="M236.88,97.69c0-2.62,1.36-4.27,3.95-4.27c2.57,0,3.63,1.66,3.63,4.08c0,2.67-1.11,4.41-3.84,4.41
		C237.81,101.91,236.88,100.1,236.88,97.69 M242.96,97.6c0-2.24-0.79-2.99-2.2-2.99c-1.44,0-2.4,0.85-2.4,3.02
		c0,2.15,0.76,3.13,2.34,3.13C242.11,100.76,242.96,99.91,242.96,97.6"/>
	<path class="st0" d="M252.4,94.93c-1.01-0.14-2.21,0.27-2.88,0.89v5.91h-1.44V93.6h1.2l0.11,1.17c0.71-0.96,1.56-1.34,2.7-1.34
		c0.09,0,0.16,0,0.3,0.01V94.93z"/>
	<path class="st0" d="M260.88,95.78l-1.3,0.29c-0.19-0.93-0.51-1.5-1.69-1.5c-1.19,0-1.56,0.52-1.56,1.14c0,0.84,0.66,1.08,1.8,1.31
		c1.48,0.31,2.89,0.62,2.89,2.43c0,1.55-1.2,2.47-3.18,2.47c-1.86,0-2.99-0.73-3.24-2.35l1.28-0.35c0.22,0.87,0.58,1.56,2.02,1.56
		c0.98,0,1.69-0.3,1.69-1.17c0-0.9-0.66-1.06-1.77-1.28c-1.33-0.27-2.92-0.55-2.92-2.45c0-1.64,1.36-2.45,3-2.45
		C259.83,93.43,260.62,94.35,260.88,95.78"/>
	<path class="st0" d="M53.95,77.38c0,0-1.21,0.26-1.5,0.33c-0.65,0.16-1.48,0.56-3.5,1.76c-0.28,0.17-0.55,0.35-0.82,0.55
		l-12.98,9.73v10.53l13.72-10.33c0,0,1.94-1.59,4.45-2.17c0.66-0.15,1.31-0.16,1.31-0.16c0.06-0.87,0.1-1.75,0.1-2.63
		C54.72,82.4,54.45,79.86,53.95,77.38"/>
	<path class="st0" d="M31.78,89.56l-17.7-13.27c-0.66,2.8-1.05,5.71-1.05,8.71c0,0.34,0.03,0.67,0.04,1l18.7,14.09V89.56z"/>
	<path class="st0" d="M31.78,104.21L13.41,90.38l-0.01,0.01l0.07,0.05c1.68,11.61,8.61,21.54,18.31,27.28V104.21z"/>
	<path class="st0" d="M15.04,72.9l16.73,12.55V73.2l-12.44-9.11C17.54,66.8,16.1,69.76,15.04,72.9"/>
	<path class="st0" d="M42.28,68.41l-7.13,4.99v12.24L46.8,76.9c0.66-0.5,1.35-0.95,2.08-1.34c1.33-0.72,3.38-1.7,4.24-1.47
		c-0.89-2.97-2.13-5.81-3.7-8.45C49.42,65.64,47.12,65.27,42.28,68.41"/>
	<path class="st0" d="M47.22,62.35c-2.68-3.6-6.02-6.73-9.9-9.23c0.01-0.01,0.03-0.01,0.04-0.02c-1.15-0.77-2.29-1.46-3.34-2.05
		c-4.96,2.51-9.31,6.06-12.74,10.38l12.32,9.02l6.26-4.57c0,0,4.42-3.16,7.31-3.53C47.18,62.35,47.2,62.35,47.22,62.35"/>
	<polygon class="st0" points="47.24,62.35 47.22,62.35 47.23,62.37 	"/>
	<path class="st0" d="M37.49,116.94c-0.05-0.02-0.11-0.04-0.17-0.07c9.09-5.88,15.2-15.35,16.9-25.9l-0.04-0.04
		c-1.83,0.62-3.68,1.91-3.68,1.91L35.14,104.4v13.73C35.83,117.79,36.63,117.39,37.49,116.94"/>
	<path class="st0" d="M54.22,90.98c0-0.02,0.01-0.04,0.01-0.06c-0.02,0.01-0.03,0.01-0.05,0.02L54.22,90.98z"/>
	<path class="st0" d="M88.94,82.27C87.64,63.7,72.7,48.61,54.15,47.12c-7.27-0.58-14.15,0.91-20.13,3.93
		c1.06,0.6,2.19,1.29,3.34,2.05c4.2-1.81,8.82-2.82,13.67-2.82c10.48,0,19.88,4.69,26.25,12.06H47.24l-0.01,0.02l2.19,3.27h30.41
		c1.75,2.59,3.13,5.43,4.13,8.45H53.12l0.83,3.29h30.93c0.55,2.45,0.87,5,0.87,7.62c0,0.89-0.07,1.76-0.13,2.63H54.62l-0.39,3.29
		H85.2c-2.82,16.33-17.05,28.8-34.17,28.8c-4.81,0-9.38-0.99-13.55-2.77c-0.85,0.45-1.65,0.85-2.34,1.19v1.35
		c4.84,2.24,10.21,3.52,15.89,3.52C72.89,123,90.5,104.45,88.94,82.27"/>
</g>
</svg>
