<?xml version="1.0" encoding="utf-8"?>
<!-- Generator: Adobe Illustrator 28.1.0, SVG Export Plug-In . SVG Version: 6.00 Build 0)  -->
<svg version="1.1" id="Capa_1" xmlns="http://www.w3.org/2000/svg" xmlns:xlink="http://www.w3.org/1999/xlink" x="0px" y="0px"
	 viewBox="0 0 140 170" style="enable-background:new 0 0 140 170;" xml:space="preserve">
<style type="text/css">
	.st0{fill:#BFBFBF;}
</style>
<g>
	<path class="st0" d="M111.05,121.88c-2.1,0.95-4.38,1.6-6.6,1.2c-3.23-0.58-6.41-1.51-9.51-2.6c-2.88-1.01-5.24-3.01-7.15-5.35
		c-2.57-3.15-5.69-4.95-9.74-5.53c-8.26-1.2-16.14-3.77-23.63-7.42c-6.58-3.2-13.13-6.47-19.52-10.02c-1.91-1.06-3.23-3.18-4.8-4.83
		c-0.46-0.49-0.85-1.04-1.21-1.66c6.42,3.38,12.72,6.97,19.59,10.11c-0.64-2.41-1.17-4.44-1.75-6.66c2.08,0,4,0,6.3,0
		c-0.54-0.65-0.83-1.03-1.15-1.38c-2.93-3.22-5.46-6.69-5.65-11.22c-0.1-2.47,0.12-5,0.51-7.44c1.11-6.81,0.51-13.5-0.97-20.16
		c-0.38-1.73-0.8-3.44-1.21-5.16c0.1-0.1,0.2-0.2,0.3-0.29c4.08,3.05,8.19,6.04,12.22,9.15c4.21,3.25,7.74,7.17,10.77,11.53
		c2.96,4.25,5.31,8.8,6.12,13.97c0.6,3.85,0,7.44-3.1,10.22c-0.15,0.13-0.23,0.33-0.49,0.71c1.84,0,3.5,0,5.46,0
		c-1.18,5.28-2.3,10.32-3.46,15.52c1.72,0.35,3.5,0.87,5.3,1.04c3.17,0.29,5.51,1.75,7.16,4.43c3,4.87,7.59,7.26,13.04,8.34
		c3.65,0.72,7.3,1.5,10.94,2.29c0.79,0.17,1.53,0.53,2.3,0.81C111.09,121.61,111.07,121.75,111.05,121.88z M54.04,63.8
		c-0.1,0.01-0.2,0.03-0.3,0.04c0,3,0.26,6.02-0.06,8.99c-0.57,5.42,0.41,10.51,2.58,15.43c0.17,0.38,0.75,0.8,1.16,0.81
		c2.32,0.08,4.65,0.07,6.98,0.01c0.41-0.01,1.02-0.32,1.17-0.66c0.98-2.28,2.01-4.56,2.74-6.93c0.69-2.24,0.18-4.47-0.77-6.46
		c-0.61,1.31-1.05,2.71-1.85,3.85c-1.23,1.75-3.15,1.94-4.72,0.49c-1.01-0.93-2.04-2.03-2.55-3.26c-1.44-3.46-2.62-7.03-3.88-10.56
		C54.32,64.99,54.2,64.39,54.04,63.8z"/>
	<path class="st0" d="M51.99,109.57c5.55,2.39,11.07,4.81,16.64,7.15c0.75,0.31,0.98,0.57,0.8,1.36c-0.6,2.55-1.11,5.12-1.74,7.67
		c-0.08,0.33-0.65,0.75-0.99,0.76c-3.17,0.06-6.34,0.05-9.52,0.01c-0.32,0-0.84-0.3-0.91-0.56
		C54.79,120.44,53.38,114.91,51.99,109.57z"/>
	<path class="st0" d="M89.56,109.53c-1.75-3.08-0.81-6.23,1.99-7.59c2.89-1.4,5.98-0.08,7.47,3.43c-1.96-1.56-3.94-2.12-6.1-1.18
		C90.72,105.14,89.78,106.99,89.56,109.53z"/>
</g>
</svg>
