<?xml version="1.0" encoding="utf-8"?>
<!-- Generator: Adobe Illustrator 28.1.0, SVG Export Plug-In . SVG Version: 6.00 Build 0)  -->
<svg version="1.1" id="Capa_1" xmlns="http://www.w3.org/2000/svg" xmlns:xlink="http://www.w3.org/1999/xlink" x="0px" y="0px"
	 viewBox="0 0 230 170" style="enable-background:new 0 0 230 170;" xml:space="preserve">
<style type="text/css">
	.st0{fill:#BFBFBF;}
</style>
<g>
	<path class="st0" d="M52.31,120.62L52.31,120.62c-2.82,0-5.1-2.28-5.1-5.1v0c0-2.82,2.28-5.1,5.1-5.1h0c2.82,0,5.1,2.28,5.1,5.1v0
		C57.41,118.34,55.13,120.62,52.31,120.62z"/>
	<polygon class="st0" points="57.41,75.76 57.41,49.38 47.21,49.38 47.21,75.76 52.31,80.86 	"/>
	<polygon class="st0" points="39.99,82.97 13.61,82.97 13.61,93.18 39.99,93.18 21.65,111.52 28.86,118.73 52.31,95.29 	"/>
	<polygon class="st0" points="91,82.97 64.62,82.97 59.52,88.08 52.31,95.29 52.31,95.29 75.75,118.73 82.97,111.52 64.62,93.18 
		91,93.18 	"/>
	<polygon class="st0" points="59.52,88.08 64.62,82.97 64.62,82.97 82.97,64.63 75.75,57.42 57.41,75.76 52.31,80.86 	"/>
	
		<rect x="47.21" y="82.97" transform="matrix(0.7071 -0.7071 0.7071 0.7071 -46.9578 62.7841)" class="st0" width="10.2" height="10.2"/>
	<polygon class="st0" points="52.31,80.86 47.21,75.76 28.86,57.42 21.65,64.63 45.09,88.08 	"/>
	<g>
		<polygon class="st0" points="126.87,75.52 112.56,75.52 112.56,49.38 106.31,49.38 106.31,81.5 126.87,81.5 		"/>
		<path class="st0" d="M140.01,67.86l-5.48,0.82c-0.94,0.15-1.8,0.39-2.6,0.72c-0.8,0.33-1.5,0.79-2.11,1.36
			c-0.6,0.57-1.08,1.25-1.43,2.02c-0.35,0.77-0.52,1.65-0.52,2.65c0,0.88,0.17,1.71,0.52,2.51c0.35,0.8,0.85,1.51,1.52,2.13
			c0.66,0.62,1.47,1.12,2.42,1.5c0.95,0.38,2.02,0.57,3.19,0.57c1.66,0,3.03-0.33,4.1-1c1.07-0.66,1.89-1.43,2.47-2.31
			c0,0.42,0.02,0.9,0.07,1.43c0.05,0.53,0.1,0.94,0.16,1.25h5.53c-0.06-0.39-0.12-0.93-0.18-1.61c-0.06-0.68-0.09-1.32-0.09-1.93V67
			c0-1.12-0.17-2.19-0.52-3.22c-0.35-1.03-0.91-1.93-1.68-2.7c-0.77-0.77-1.77-1.39-3.01-1.86c-1.24-0.47-2.73-0.7-4.48-0.7
			c-1.51,0-2.84,0.22-3.99,0.66c-1.15,0.44-2.11,1-2.9,1.7c-0.79,0.7-1.4,1.48-1.86,2.36c-0.45,0.88-0.72,1.75-0.82,2.63l5.35,1.13
			c0.09-0.97,0.49-1.81,1.2-2.54c0.71-0.72,1.73-1.09,3.06-1.09c1.27,0,2.21,0.29,2.83,0.86c0.62,0.57,0.93,1.25,0.93,2.04
			c0,0.39-0.12,0.73-0.36,1.02C141.08,67.58,140.64,67.77,140.01,67.86z M141.69,72.48c0,1-0.14,1.82-0.41,2.47
			c-0.27,0.65-0.63,1.18-1.09,1.59c-0.45,0.41-0.97,0.7-1.56,0.86c-0.59,0.17-1.2,0.25-1.83,0.25c-0.97,0-1.69-0.26-2.17-0.79
			c-0.48-0.53-0.72-1.12-0.72-1.79c0-0.88,0.26-1.53,0.79-1.97c0.53-0.44,1.18-0.72,1.97-0.84l5.03-0.77V72.48z"/>
		<path class="st0" d="M169.59,87.23c0.94-1.07,1.62-2.31,2.06-3.71c0.44-1.4,0.66-2.88,0.66-4.42V59.21h-5.8v2.63
			c-0.39-0.75-1.1-1.45-2.13-2.08c-1.03-0.63-2.43-0.95-4.21-0.95c-1.54,0-2.94,0.29-4.21,0.86c-1.27,0.57-2.36,1.36-3.26,2.36
			c-0.91,1-1.62,2.15-2.13,3.47c-0.51,1.31-0.77,2.71-0.77,4.19c0,1.57,0.26,3.01,0.79,4.33c0.53,1.31,1.25,2.45,2.17,3.42
			c0.92,0.97,2.02,1.72,3.28,2.27c1.27,0.54,2.64,0.82,4.12,0.82c1.63,0,2.96-0.29,3.99-0.88c1.03-0.59,1.77-1.25,2.22-1.97v1.63
			c0,2.17-0.51,3.75-1.54,4.73c-1.03,0.98-2.49,1.47-4.39,1.47c-1.45,0-2.63-0.39-3.53-1.18c-0.91-0.79-1.47-1.8-1.68-3.04
			l-5.44,1.45c0.15,1.06,0.51,2.08,1.09,3.06c0.57,0.98,1.33,1.84,2.26,2.58c0.94,0.74,2.03,1.33,3.28,1.77
			c1.25,0.44,2.65,0.66,4.19,0.66c2.08,0,3.87-0.32,5.35-0.97C167.45,89.16,168.65,88.3,169.59,87.23z M164.99,73.8
			c-0.98,1.03-2.24,1.54-3.78,1.54c-1.57,0-2.85-0.51-3.85-1.52c-1-1.01-1.49-2.39-1.49-4.14c0-0.85,0.14-1.62,0.41-2.31
			c0.27-0.69,0.65-1.29,1.13-1.79c0.48-0.5,1.05-0.88,1.7-1.13c0.65-0.26,1.35-0.38,2.11-0.38c1.45,0,2.69,0.51,3.71,1.52
			c1.03,1.01,1.54,2.38,1.54,4.1S165.97,72.77,164.99,73.8z"/>
		<path class="st0" d="M177.81,78.83c1.04,1.06,2.28,1.88,3.71,2.47c1.43,0.59,2.98,0.88,4.64,0.88c1.66,0,3.21-0.29,4.64-0.88
			c1.43-0.59,2.67-1.41,3.71-2.47c1.04-1.06,1.86-2.3,2.45-3.74c0.59-1.43,0.88-3.01,0.88-4.73c0-1.72-0.29-3.31-0.88-4.76
			c-0.59-1.45-1.4-2.7-2.45-3.74c-1.04-1.04-2.28-1.86-3.71-2.45c-1.43-0.59-2.98-0.88-4.64-0.88c-1.66,0-3.21,0.29-4.64,0.88
			c-1.43,0.59-2.67,1.4-3.71,2.45c-1.04,1.04-1.86,2.29-2.45,3.74c-0.59,1.45-0.88,3.04-0.88,4.76c0,1.72,0.29,3.3,0.88,4.73
			C175.96,76.52,176.77,77.77,177.81,78.83z M180.98,67.59c0.32-0.79,0.73-1.44,1.25-1.97c0.51-0.53,1.12-0.93,1.81-1.2
			c0.69-0.27,1.4-0.41,2.13-0.41c0.72,0,1.43,0.14,2.13,0.41c0.69,0.27,1.3,0.67,1.81,1.2c0.51,0.53,0.93,1.19,1.25,1.97
			c0.32,0.79,0.48,1.71,0.48,2.76c0,1.06-0.16,1.98-0.48,2.76c-0.32,0.79-0.73,1.44-1.25,1.97c-0.51,0.53-1.12,0.93-1.81,1.2
			c-0.7,0.27-1.4,0.41-2.13,0.41c-0.72,0-1.43-0.14-2.13-0.41c-0.7-0.27-1.3-0.67-1.81-1.2c-0.51-0.53-0.93-1.18-1.25-1.97
			c-0.32-0.78-0.48-1.71-0.48-2.76C180.51,69.3,180.67,68.38,180.98,67.59z"/>
		<path class="st0" d="M214.73,70.54c-1.1-1.24-2.76-2.08-4.96-2.54l-3.17-0.68c-0.6-0.12-1.1-0.35-1.47-0.68
			c-0.38-0.33-0.57-0.77-0.57-1.31c0-0.63,0.28-1.16,0.84-1.59c0.56-0.42,1.23-0.63,2.02-0.63c0.63,0,1.17,0.09,1.61,0.27
			c0.44,0.18,0.81,0.42,1.11,0.72c0.3,0.3,0.52,0.63,0.66,0.97c0.14,0.35,0.23,0.69,0.29,1.02l5.03-1.13
			c-0.06-0.6-0.26-1.28-0.59-2.02c-0.33-0.74-0.84-1.44-1.52-2.11c-0.68-0.66-1.56-1.22-2.65-1.65c-1.09-0.44-2.42-0.66-3.99-0.66
			c-1.21,0-2.32,0.2-3.33,0.59c-1.01,0.39-1.89,0.91-2.63,1.56c-0.74,0.65-1.32,1.42-1.74,2.31c-0.42,0.89-0.63,1.83-0.63,2.83
			c0,1.57,0.5,2.95,1.49,4.15c1,1.19,2.58,2.03,4.76,2.51l2.94,0.68c0.88,0.18,1.49,0.46,1.86,0.84c0.36,0.38,0.54,0.82,0.54,1.34
			c0,0.6-0.24,1.13-0.72,1.56c-0.48,0.44-1.22,0.66-2.22,0.66c-1.33,0-2.33-0.35-2.99-1.04c-0.66-0.69-1.03-1.48-1.09-2.36
			l-5.16,1.13c0.06,0.63,0.26,1.35,0.61,2.15c0.35,0.8,0.88,1.55,1.61,2.24c0.72,0.7,1.66,1.28,2.81,1.77
			c1.15,0.48,2.57,0.72,4.26,0.72c1.45,0,2.72-0.21,3.81-0.63c1.09-0.42,1.99-0.98,2.72-1.68c0.72-0.69,1.26-1.48,1.61-2.36
			c0.35-0.88,0.52-1.77,0.52-2.67C216.39,73.21,215.83,71.77,214.73,70.54z"/>
		<path class="st0" d="M128.87,96.6c0-1.45-0.25-2.79-0.75-4.01c-0.5-1.22-1.22-2.28-2.15-3.17c-0.94-0.89-2.05-1.59-3.35-2.08
			c-1.3-0.5-2.73-0.75-4.3-0.75h-12v32.12h6.25v-12.1h5.75c1.57,0,3-0.25,4.3-0.75c1.3-0.5,2.42-1.18,3.35-2.06
			c0.94-0.88,1.65-1.93,2.15-3.17C128.62,99.4,128.87,98.05,128.87,96.6z M121.23,99.98c-0.89,0.83-2.12,1.25-3.69,1.25h-4.94v-9.2
			h4.94c1.57,0,2.8,0.41,3.69,1.22c0.89,0.82,1.34,1.95,1.34,3.4C122.57,98.04,122.12,99.15,121.23,99.98z"/>
		<path class="st0" d="M148.37,99.07c-1.04-1.04-2.28-1.86-3.71-2.45c-1.43-0.59-2.98-0.88-4.64-0.88c-1.66,0-3.21,0.29-4.64,0.88
			c-1.43,0.59-2.67,1.4-3.71,2.45c-1.04,1.04-1.86,2.29-2.45,3.74c-0.59,1.45-0.88,3.04-0.88,4.76s0.29,3.3,0.88,4.73
			c0.59,1.43,1.4,2.68,2.45,3.74c1.04,1.06,2.28,1.88,3.71,2.47c1.43,0.59,2.98,0.88,4.64,0.88c1.66,0,3.21-0.29,4.64-0.88
			c1.43-0.59,2.67-1.41,3.71-2.47c1.04-1.06,1.86-2.3,2.45-3.74c0.59-1.43,0.88-3.01,0.88-4.73s-0.29-3.31-0.88-4.76
			C150.23,101.36,149.42,100.11,148.37,99.07z M145.2,110.33c-0.32,0.79-0.73,1.44-1.25,1.97c-0.51,0.53-1.12,0.93-1.81,1.2
			c-0.7,0.27-1.4,0.41-2.13,0.41c-0.72,0-1.43-0.14-2.13-0.41c-0.7-0.27-1.3-0.67-1.81-1.2c-0.51-0.53-0.93-1.18-1.25-1.97
			c-0.32-0.78-0.48-1.71-0.48-2.76c0-1.06,0.16-1.98,0.48-2.76c0.32-0.79,0.73-1.44,1.25-1.97c0.51-0.53,1.12-0.93,1.81-1.2
			c0.69-0.27,1.4-0.41,2.13-0.41c0.72,0,1.43,0.14,2.13,0.41c0.69,0.27,1.3,0.67,1.81,1.2c0.51,0.53,0.93,1.19,1.25,1.97
			c0.32,0.79,0.48,1.71,0.48,2.76C145.68,108.62,145.52,109.54,145.2,110.33z"/>
		<rect x="153.83" y="96.42" class="st0" width="6.03" height="22.29"/>
		<path class="st0" d="M182.41,98.42c-0.66-0.79-1.5-1.41-2.51-1.88c-1.01-0.47-2.21-0.7-3.6-0.7c-1.21,0-2.41,0.27-3.6,0.82
			c-1.19,0.54-2.14,1.39-2.83,2.54v-2.76h-5.84v22.29h6.03v-12.82c0-1.3,0.36-2.39,1.09-3.28c0.72-0.89,1.75-1.34,3.08-1.34
			c1.45,0,2.5,0.42,3.15,1.27c0.65,0.85,0.97,1.9,0.97,3.17v13h6.03v-14.04c0-1.21-0.16-2.36-0.48-3.44
			C183.57,100.14,183.08,99.2,182.41,98.42z"/>
		<path class="st0" d="M195.64,89.76h-5.44v3.13c0,1-0.28,1.83-0.84,2.51c-0.56,0.68-1.43,1.02-2.6,1.02h-1.13v5.35h4.03v10.37
			c0,2.17,0.63,3.87,1.9,5.07c1.27,1.21,2.99,1.81,5.16,1.81c0.88,0,1.59-0.06,2.15-0.18c0.56-0.12,0.97-0.24,1.25-0.36v-4.98
			c-0.15,0.06-0.41,0.11-0.77,0.14c-0.36,0.03-0.72,0.05-1.09,0.05c-0.88,0-1.53-0.19-1.97-0.57c-0.44-0.38-0.66-1.05-0.66-2.02
			v-9.33h4.48v-5.35h-4.48V89.76z"/>
	</g>
</g>
</svg>
