<?xml version="1.0" encoding="utf-8"?>
<!-- Generator: Adobe Illustrator 28.1.0, SVG Export Plug-In . SVG Version: 6.00 Build 0)  -->
<svg version="1.1" id="Capa_1" xmlns="http://www.w3.org/2000/svg" xmlns:xlink="http://www.w3.org/1999/xlink" x="0px" y="0px"
	 viewBox="0 0 190 170" style="enable-background:new 0 0 190 170;" xml:space="preserve">
<style type="text/css">
	.st0{fill:#BFBFBF;}
	.st1{fill:#BFBFBF;stroke:#056480;stroke-width:2;stroke-miterlimit:10;}
</style>
<g>
	<g>
		<g>
			<g>
				<path class="st0" d="M8.42,54.57v-1.81h12.7v1.81l-5.9,0.68h-0.91L8.42,54.57z M14.77,80.65v2.49H8.42v-1.81l5.9-0.68H14.77z
					 M12.59,52.76h4.35c-0.14,4.67-0.14,9.39-0.14,14.06v3.17c0,3.85,0,8.57,0.14,13.15h-4.35c0.14-4.67,0.14-9.39,0.14-14.06v-2.27
					C12.73,62.06,12.73,57.34,12.59,52.76z M31.41,74.62l-0.45,8.53H14.77v-2.27h14.6l-2.49,2.27l1.81-8.53H31.41z"/>
				<path class="st0" d="M42.98,71.26c1.9-0.68,4.76-1.5,7.03-1.9v1.63c-2.04,0.41-4.72,1.27-6.08,1.81
					c-4.08,1.59-4.54,3.31-4.54,4.63c0,2.4,1.59,3.36,3.67,3.36c1.59,0,2.49-0.59,5.35-2.63l0.91-0.68l0.63,0.95l-1.31,1.32
					c-2.72,2.72-4.26,3.99-7.03,3.99c-3.31,0-6.08-1.91-6.08-5.67C35.54,75.52,36.9,73.48,42.98,71.26z M48.19,78.97V68.63
					c0-4.44-1.27-5.53-4.26-5.53c-1.04,0-2.4,0.14-4.08,0.82l1.81-1.41l-1.18,3.9c-0.41,1.31-1.09,2.04-2.31,2.04
					c-1.22,0-1.95-0.68-2.04-1.81c0.86-3.45,4.22-5.58,8.75-5.58c4.67,0,6.94,2.13,6.94,7.85v9.61c0,2.04,0.63,2.77,1.68,2.77
					c0.77,0,1.27-0.41,1.77-1l0.91,1c-1.09,1.72-2.31,2.31-3.85,2.31C49.83,83.6,48.19,81.78,48.19,78.97z"/>
				<path class="st0" d="M70.01,64.14l-4.44-0.77v-1.72h10.88v1.72l-5.53,0.77H70.01z M71.46,61.65l7.07,18.46l-1.86,2.36l7.3-20.81
					h2.45l-8.25,21.77h-1.86l-9.16-21.77H71.46z M83.88,64.14l-4.54-0.77v-1.72h8.62v1.72l-3.17,0.77H83.88z"/>
				<path class="st0" d="M93.45,83.14c0.09-2.04,0.14-6.71,0.14-9.52v-2.13c0-2.49-0.05-3.9-0.14-5.71l-3.72-0.41v-1.59l6.85-2.72
					l0.68,0.45l-0.14,6.12v5.99c0,2.81,0.04,7.48,0.14,9.52H93.45z M100.44,81.56v1.59H90.01v-1.59l4.99-0.91h0.91L100.44,81.56z
					 M92.32,53.08c0-1.72,1.31-2.86,2.99-2.86c1.68,0,2.99,1.13,2.99,2.86c0,1.68-1.31,2.86-2.99,2.86
					C93.63,55.93,92.32,54.75,92.32,53.08z"/>
				<path class="st0" d="M122.7,69.72c0,1.04-0.14,1.95-0.32,2.54h-16.73v-1.9h10.79c2.18,0,2.68-1.04,2.68-2.31
					c0-2.58-2.18-4.94-5.03-4.94c-2.9,0-6.26,2.45-6.26,8.93c0,5.76,2.9,8.84,7.44,8.84c2.9,0,4.72-1.32,6.35-3.22l1.04,0.82
					c-1.63,3.22-4.53,5.26-8.66,5.26c-6.08,0-10.02-4.22-10.02-11.11c0-6.94,4.72-11.56,10.34-11.56
					C118.99,61.06,122.7,64.23,122.7,69.72z"/>
			</g>
		</g>
	</g>
	<g>
		<g>
			<g>
				<path class="st0" d="M40.63,98.15c0,1.04-0.14,1.95-0.32,2.54H23.58v-1.9h10.79c2.18,0,2.68-1.04,2.68-2.31
					c0-2.58-2.18-4.94-5.03-4.94c-2.9,0-6.26,2.45-6.26,8.93c0,5.76,2.9,8.84,7.44,8.84c2.9,0,4.72-1.32,6.35-3.22l1.04,0.82
					c-1.63,3.22-4.53,5.26-8.66,5.26c-6.08,0-10.02-4.22-10.02-11.11c0-6.94,4.72-11.56,10.34-11.56
					C36.91,89.49,40.63,92.67,40.63,98.15z"/>
				<path class="st0" d="M48.11,111.58c0.09-2.04,0.14-6.71,0.14-9.52v-2.13c0-2.5-0.05-3.9-0.14-5.71l-3.63-0.41v-1.59l6.17-2.72
					l0.68,0.45l0.54,5.26v6.85c0,2.81,0.04,7.48,0.14,9.52H48.11z M55.19,109.99v1.59H44.76v-1.59l4.99-0.91h0.91L55.19,109.99z
					 M65.66,97.88v4.17c0,2.9,0.04,7.48,0.14,9.52h-3.9c0.09-2.04,0.14-6.62,0.14-9.52v-3.81c0-4.22-1.09-5.58-3.81-5.58
					c-2.27,0-4.13,0.91-6.71,3.13h-0.95v-2.04h2.31l-1.95,0.82c2.13-2.86,5.76-5.08,8.98-5.08C63.8,89.49,65.66,91.9,65.66,97.88z
					 M64.44,109.08l4.54,0.91v1.59H58.54v-1.59l4.99-0.91H64.44z"/>
				<path class="st0" d="M84.59,111.58c0.09-2.04,0.14-6.71,0.14-9.52v-2.62c0-2.49-0.01-3.44-0.14-5.26l-2.78-0.41v-1.78l8.95-3.02
					l0.78,0.49l0.41,5.03v7.57c0,2.81,0.04,7.48,0.14,9.52H84.59z M94.15,109.47v2.11H82.22v-2.11l4.2-0.91h3.46L94.15,109.47z
					 M105.43,96.77v5.28c0,2.9,0.05,7.48,0.14,9.52H98.2c0.09-2.04,0.14-6.62,0.14-9.52v-4.37c0-3.17-0.63-4.33-2.63-4.33
					c-1.96,0-4.02,1.63-5.38,3.33h-1.67v-2.92h2.84l-1.36,1.27c2.75-4.07,5.36-6.06,8.8-6.06
					C103.21,88.97,105.43,91.54,105.43,96.77z M103.45,108.56l4.17,0.91v2.11H95.92v-2.11l4.01-0.91H103.45z M118.84,96.99v5.06
					c0,2.9,0.05,7.48,0.14,9.52h-7.37c0.09-2.04,0.14-6.62,0.14-9.52v-4.39c0-3.41-0.72-4.31-2.58-4.31c-1.94,0-3.78,1.27-5.5,3.33
					h-1.61v-3.03h3.2l-1.86,1.38c3.21-4.7,5.75-6.06,8.84-6.06C116.8,88.97,118.84,91.6,118.84,96.99z M116.89,108.56l4.27,0.91
					v2.11h-11.67v-2.11l3.78-0.91H116.89z"/>
				<path class="st0" d="M125.8,111.58c0.09-2.04,0.14-6.71,0.14-9.52v-2.16c0-2.49-0.05-3.9-0.14-5.71l-2.8-0.41v-1.78l9.5-3.02
					l0.78,0.49l-0.14,6.58v6.02c0,2.81,0.05,7.48,0.14,9.52H125.8z M135.47,109.47v2.11h-12.03v-2.11l4.2-0.91h3.43L135.47,109.47z
					 M125.62,82c0-2.12,1.71-3.61,3.84-3.61s3.84,1.49,3.84,3.61c0,2.1-1.71,3.61-3.84,3.61S125.62,84.1,125.62,82z"/>
				<path class="st0" d="M158.76,98.55c0,0.98-0.07,1.69-0.25,2.44h-17.75v-2.4h8.5c2.18,0,2.74-0.81,2.74-2.84
					c0-2.98-1.42-4.45-3.07-4.45c-1.89,0-3.61,2.06-3.61,8.61c0,5.53,2.74,8.03,6.13,8.03c2.44,0,4.13-1.02,5.5-2.43l1.57,1.47
					c-1.86,3.55-5.12,5.29-9.51,5.29c-6.6,0-11.3-4.32-11.3-11.63c0-7.56,5.83-11.66,11.68-11.66
					C155.37,88.97,158.76,93.06,158.76,98.55z"/>
				<path class="st0" d="M170.5,78.64l0.73,0.46l-0.18,6.34v16.61c0,3.17,0.04,6.35,0.14,9.52h-7.5c0.09-3.17,0.14-6.35,0.14-9.52
					v-19l-2.82-0.45v-1.91L170.5,78.64z M173.64,109.47v2.11h-12.4v-2.11l4.34-0.91H169L173.64,109.47z"/>
			</g>
		</g>
	</g>
	<g>
		<g>
			<g>
				<g>
					<path class="st0" d="M152.26,83.48c-0.05,1.48-0.2,1.63-1.65,1.29c-2.85-0.66-5.5-1.83-8-3.33c-1.97-1.18-3.7-2.64-4.64-4.82
						c-1.02-2.35-0.99-4.66,0.77-6.63c1.79-2.02,4.12-2.56,6.71-1.8c2.41,0.7,3.77,2.51,4.76,4.66c1.44,3.13,1.86,6.47,2.06,9.86
						C152.26,82.97,152.27,83.22,152.26,83.48z M142.67,79.87c2.43-1.27,4.55-2.81,6.33-4.81c0.36-0.4,0.46-0.69,0.21-1.15
						c-0.43-0.79-0.83-1.61-1.31-2.57c-2.11,2.78-4.41,5.03-7.39,6.78C141.34,78.79,142.03,79.35,142.67,79.87z M140.19,70.53
						c-1.42,1.32-1.84,2.98-1.23,4.94c2.83-1.2,4.89-3.14,6.34-5.87C143.35,68.89,141.63,69.18,140.19,70.53z M150.49,78.2
						c-1.52,1.24-2.88,2.34-4.41,3.58c1.63,0.6,3.14,1.16,4.93,1.82C150.82,81.66,150.67,80.05,150.49,78.2z"/>
					<g>
						<g>
							<path class="st0" d="M142.66,64.26c-0.14-0.25-0.27-0.51-0.36-0.78c-0.91-2.61-1.46-5.28-1.45-8.05
								c0.03-4.45,1.53-8.26,5.05-11.1c2.41-1.95,4.78-1.27,5.94,1.61c0.1,0.24,0.17,0.48,0.24,0.72c0.61,2.27,0.62,4.56,0.05,6.82
								c-1.2,4.74-4.36,8.05-8.17,10.84c-0.25,0.18-0.56,0.28-0.93,0.46C142.88,64.57,142.75,64.43,142.66,64.26z M151.38,51.78
								c0.3-2.05,0.13-4.08-0.86-5.96c-0.74-1.42-1.94-1.9-3.24-0.99c-1.22,0.86-2.38,1.95-3.22,3.18
								c-2.56,3.69-2.57,7.82-1.66,12.03c0.23,1.08,0.61,2.12,0.98,3.39C147.49,60.35,150.64,56.88,151.38,51.78z"/>
						</g>
					</g>
					<g>
						<g>
							<path class="st0" d="M145.35,64.83c2.16-2.01,4.61-3.53,7.51-4.18c1.98-0.45,3.99-0.51,5.93,0.25c1.41,0.56,1.74,1.82,0.79,3
								c-0.37,0.47-0.84,0.88-1.33,1.23c-2.87,2.09-6.12,2.59-9.55,2.08c-1.42-0.21-2.81-0.63-4.48-1.02
								C144.76,65.54,145.01,65.14,145.35,64.83z M158.17,63.92c0.15-0.12,0.28-0.26,0.41-0.4c0.75-0.8,0.64-1.58-0.42-1.74
								c-1.52-0.24-3.11-0.37-4.62-0.18c-2.89,0.38-5.22,1.97-7.49,4.01C150.47,66.82,154.51,66.75,158.17,63.92z"/>
						</g>
					</g>
					<g>
						<path class="st0" d="M140.43,62.75c-0.4-1.14-1.14-2-2.1-2.53C139.28,60.8,140.03,61.69,140.43,62.75z"/>
						<path class="st0" d="M133.2,68.69c1.13,0.72,2.38,0.93,3.67,0.63c2.81-0.66,4.45-3.51,3.66-6.28c-0.03-0.1-0.07-0.19-0.1-0.29
							c-0.4-1.06-1.14-1.95-2.1-2.53c-1.23-0.68-2.8-0.82-4.46-0.35c-0.62,0.25-1.18,0.62-1.64,1.09c-0.3,0.4-0.58,0.79-0.88,1.18
							c-0.33,0.62-0.53,1.32-0.57,2.06C130.82,66.15,131.55,67.65,133.2,68.69z M135.8,60.57c2.13,0.02,3.91,1.79,3.91,3.9
							c0,2.14-1.85,3.97-3.98,3.95c-2.09-0.02-3.92-1.85-3.92-3.92C131.81,62.37,133.65,60.55,135.8,60.57z"/>
					</g>
				</g>
			</g>
			<g>
				<circle class="st0" cx="128.65" cy="63.06" r="1.31"/>
			</g>
			<g>
				<circle class="st0" cx="130.78" cy="58.29" r="1.31"/>
			</g>
			<path class="st1" d="M129.16,63.06c0,0,0.91-0.55,2.75,0.16"/>
			<path class="st1" d="M131.17,58.72c0,0,1.05,0.17,1.99,1.91"/>
		</g>
	</g>
</g>
</svg>
