<?xml version="1.0" encoding="utf-8"?>
<!-- Generator: Adobe Illustrator 28.1.0, SVG Export Plug-In . SVG Version: 6.00 Build 0)  -->
<svg version="1.1" id="Capa_1" xmlns="http://www.w3.org/2000/svg" xmlns:xlink="http://www.w3.org/1999/xlink" x="0px" y="0px"
	 viewBox="0 0 260 170" style="enable-background:new 0 0 260 170;" xml:space="preserve">
<style type="text/css">
	.st0{fill:#BFBFBF;}
</style>
<g>
	<path class="st0" d="M12.39,61.18c0.68-0.99,1.68-1.41,2.83-1.41c1.64,0,3.33-0.15,4.9,0.19c2.82,0.59,4.33,2.71,5.47,5.22
		c1.97,4.3,4.07,8.54,6.11,12.81c0.06,0.13,0.18,0.24,0.42,0.53c0.27-0.44,0.5-0.76,0.68-1.11c2.29-4.54,4.64-9.06,6.82-13.65
		c1.34-2.82,3.35-4.22,6.49-3.99c1.09,0.08,2.2,0.04,3.3,0.07c1.52,0.04,2.07,0.51,2.13,2.05c0.12,3.13,0.22,6.26,0.21,9.38
		c-0.02,8.18-0.1,16.35-0.17,24.53c-0.02,2.29-0.46,2.71-2.78,2.73c-1.33,0.01-2.67,0.09-4,0c-1.65-0.11-2.3-0.77-2.49-2.42
		c-0.12-1.01-0.15-2.03-0.15-3.05c-0.01-4.38-0.01-8.77,0-13.15c0-0.38,0-0.76,0-1.13c-0.1-0.04-0.21-0.08-0.31-0.12
		c-0.19,0.28-0.42,0.55-0.57,0.85c-1.74,3.46-3.51,6.91-5.2,10.4c-0.79,1.64-1.92,2.59-3.82,2.59c-1.99-0.01-3.28-0.86-4.12-2.69
		c-1.46-3.16-3.07-6.25-4.62-9.37c-0.15-0.3-0.35-0.57-0.85-0.86c-0.11,0.61-0.3,1.23-0.31,1.84c-0.02,4.62-0.05,9.24,0.02,13.85
		c0.04,2.64-0.56,3.3-3.18,3.21c-1.49-0.05-2.98-0.03-4.48-0.03c-0.95,0-1.78-0.25-2.34-1.08C12.39,85.3,12.39,73.24,12.39,61.18z"
		/>
	<path class="st0" d="M102.19,110.28c-0.44-0.15-0.87-0.34-1.32-0.45c-3.24-0.76-6.12-2.19-8.54-4.5c-0.76-0.73-1.08-1.35-0.09-2.18
		c0.65-0.55,1.13-1.3,1.71-1.93c1.62-1.78,2.94-1.95,4.78-0.39c1.64,1.38,3.47,2.16,5.59,2.09c1.28-0.05,2.59-0.23,3.83-0.57
		c2.59-0.7,4.17-3.34,3.78-6.27c-0.41,0.14-0.81,0.24-1.18,0.39c-2.6,1.03-5.25,1.89-8.09,1.87c-4-0.03-6.79-2.1-8.91-5.28
		c-4.15-6.23-3.39-15.19,1.7-20.3c3.03-3.05,6.69-4.01,10.8-3.16c1.83,0.38,3.59,1.11,5.34,1.78c0.71,0.27,1.16,0.31,1.56-0.39
		c0.56-0.97,1.39-1.4,2.54-1.33c1.49,0.09,2.98,0.12,4.47,0.12c0.91,0,1.26,0.49,1.35,1.29c0.03,0.23,0.06,0.47,0.06,0.7
		c-0.02,8.45-0.11,16.91-0.03,25.36c0.05,4.91-2.41,8.23-6.39,10.6c-1.56,0.93-3.38,1.42-5.08,2.11c-0.35,0.14-0.71,0.29-1.06,0.43
		C106.75,110.28,104.47,110.28,102.19,110.28z M112.58,84.43c-0.33-1.24-0.5-2.54-1.02-3.69c-1.66-3.7-6.48-4.45-9.07-1.49
		c-2.1,2.4-2.28,6.62-0.39,9.19c0.85,1.15,1.95,1.91,3.36,2.21C109.53,91.52,112.48,88.9,112.58,84.43z"/>
	<path class="st0" d="M146.81,87.37c-2.87,0-5.74,0.03-8.6-0.02c-1.02-0.01-1.23,0.32-0.91,1.26c1.17,3.34,5.48,4.62,8.24,2.26
		c2.94-2.52,5.91-2.2,9.08-0.67c0.68,0.33,0.8,0.71,0.52,1.39c-1.02,2.4-2.64,4.32-4.98,5.44c-5.89,2.84-11.85,2.86-17.42-0.66
		c-7.58-4.8-8.51-16.38-2.12-22.69c6.65-6.57,16.15-5.81,22.16-0.45c3.96,3.54,4.82,8.16,4.06,13.21c-0.11,0.72-0.48,0.95-1.2,0.95
		C152.7,87.36,149.76,87.37,146.81,87.37z M141.89,80.75c1.29,0,2.58-0.01,3.87,0c0.71,0.01,1.01-0.25,0.84-0.99
		c-0.31-1.38-0.96-2.64-2.38-2.91c-1.49-0.28-3.09-0.31-4.59-0.09c-1.49,0.22-2.19,1.49-2.5,2.93c-0.17,0.79,0.12,1.08,0.9,1.07
		C139.31,80.73,140.6,80.75,141.89,80.75z"/>
	<path class="st0" d="M233.28,82.74c-0.26,2.48,0.12,4.37,0.75,6.32c0.93,2.86,0.74,5.86,0.03,8.8c-0.22,0.9-0.89,1.29-1.76,1.25
		c-2.73-0.12-5.36-0.52-6.99-3.09c-0.54-0.86-1-0.38-1.52,0c-3.59,2.67-7.56,3.66-11.89,2.31c-3.91-1.22-6.15-4.11-6.66-8.05
		c-0.45-3.46,1.28-6.16,4.15-7.99c1.12-0.71,2.52-1.12,3.85-1.35c2.93-0.52,5.9-0.83,8.86-1.24c1.29-0.18,1.41-0.42,0.8-1.56
		c-0.77-1.44-2.01-2.33-3.61-2.19c-1.66,0.14-3.31,0.57-4.92,1.01c-1.36,0.37-2.68,0.91-3.98,1.44c-0.69,0.28-1.06,0.16-1.37-0.53
		c-0.53-1.18-1.11-2.34-1.76-3.45c-0.43-0.74-0.28-1.19,0.37-1.67c2.01-1.52,4.26-2.47,6.71-3.03c3.46-0.79,6.93-0.88,10.37,0.07
		c4.47,1.23,7.27,4.04,8.06,8.66C233.04,80,233.15,81.6,233.28,82.74z M218.89,92.04c1.33-0.59,2.64-0.95,3.69-1.68
		c1.08-0.75,1.25-2.04,0.88-3.3c-0.35-1.18-1.39-1.23-2.39-1.29c-0.43-0.03-0.86-0.13-1.29-0.14c-1.65-0.04-3.21,0.32-4.52,1.36
		c-1.29,1.02-1.36,2.42-0.02,3.34C216.3,91.05,217.59,91.45,218.89,92.04z"/>
	<path class="st0" d="M87.85,84.12c0.51,8.65-6.9,14.85-14.97,14.85c-9.5,0-15.76-6-15.76-15.05c0.01-8.84,6.44-14.92,15.77-14.83
		C81.16,69.16,88.33,75.5,87.85,84.12z M66.87,83.93c0.17,1.04,0.24,1.99,0.49,2.88c0.73,2.52,2.58,3.94,5.05,4
		c2.33,0.05,4.35-1.36,5.22-3.67c0.76-2.02,0.75-4.05,0.06-6.09c-0.78-2.26-2.58-3.54-4.98-3.58c-2.49-0.04-4.38,1.18-5.17,3.47
		C67.19,81.92,67.07,82.98,66.87,83.93z"/>
	<path class="st0" d="M186.13,85.49c0-2.07-0.01-4.15,0.01-6.22c0.01-1.2-0.36-2-1.68-2.3c-0.54-0.12-1.14-0.6-1.43-1.08
		c-1.51-2.48-0.26-5.73,2.48-6.77c0.3-0.11,0.58-0.67,0.59-1.03c0.07-1.56-0.02-3.13,0.05-4.69c0.1-2.54,0.82-3.07,3.3-2.77
		c1.04,0.13,2.11,0.05,3.17,0.03c2.4-0.06,3.12,0.65,3.08,3.01c-0.03,1.57,0.01,3.13-0.02,4.7c-0.01,0.66,0.21,1,0.91,1.09
		c1.09,0.13,2.17,0.38,3.25,0.54c0.81,0.12,1.32,0.51,1.33,1.36c0.01,1.44,0.05,2.89-0.07,4.32c-0.03,0.39-0.5,0.91-0.89,1.06
		c-0.6,0.23-1.3,0.24-1.95,0.26c-1.8,0.05-2.64,0.79-2.64,2.58c-0.01,2.66,0.02,5.32,0.11,7.98c0.09,2.55,0.94,3.13,3.37,2.43
		c2.2-0.64,2.89-0.17,3.3,2.11c0.21,1.15,0.48,2.3,0.79,3.43c0.21,0.76,0.07,1.23-0.69,1.6c-3.39,1.68-6.98,2.14-10.67,1.57
		c-3.35-0.52-5.61-3.4-5.69-7.08C186.09,89.56,186.13,87.53,186.13,85.49C186.13,85.49,186.13,85.49,186.13,85.49z"/>
	<path class="st0" d="M163.17,85.65c0-1.99,0.02-3.99-0.01-5.98c-0.02-1.59-0.41-2.09-1.92-2.67c-1.26-0.48-1.91-1.26-1.8-2.57
		c0.14-1.68,0-3.52,1.76-4.6c0.2-0.12,0.39-0.34,0.6-0.35c1.5-0.09,1.52-1.06,1.47-2.21c-0.07-1.52-0.04-3.05-0.01-4.58
		c0.03-1.31,0.49-1.76,1.79-1.8c1.53-0.04,3.06-0.11,4.59-0.06c2,0.07,2.75,0.78,2.94,2.77c0.13,1.32,0.11,2.66,0.17,3.99
		c0.08,1.8,0.18,1.87,1.96,2.04c0.7,0.07,1.41,0.16,2.08,0.36c1.62,0.48,2.3,1.46,2.27,3.13c-0.05,2.8-0.9,3.7-3.72,3.88
		c-2.07,0.13-2.71,0.85-2.67,2.88c0.05,2.35,0.04,4.7,0.07,7.04c0.03,2.35,1.38,3.45,3.65,2.99c2.06-0.42,2.69-0.02,3.18,2.03
		c0.73,3.07-1.03,6.04-4.14,6.5c-2.11,0.31-4.31,0.37-6.44,0.16c-3.08-0.32-5.3-2.69-5.6-5.91c-0.21-2.33-0.04-4.69-0.04-7.03
		C163.3,85.65,163.24,85.65,163.17,85.65z"/>
	<path class="st0" d="M247.61,93.57c-0.1,1.12-0.16,2.25-0.3,3.37c-0.12,0.94-0.75,1.5-1.67,1.52c-1.52,0.04-3.05-0.01-4.57-0.1
		c-0.94-0.06-1.56-0.66-1.56-1.6c0.01-1.71,0.01-3.44,0.25-5.13c0.32-2.28,1.87-3.33,4.2-3.07c0.31,0.03,0.62,0.08,0.93,0.14
		c2.19,0.4,2.67,0.98,2.68,3.23c0,0.55,0,1.09,0,1.64C247.59,93.56,247.6,93.56,247.61,93.57z"/>
</g>
</svg>
