<?xml version="1.0" encoding="utf-8"?>
<!-- Generator: Adobe Illustrator 28.1.0, SVG Export Plug-In . SVG Version: 6.00 Build 0)  -->
<svg version="1.1" id="Capa_1" xmlns="http://www.w3.org/2000/svg" xmlns:xlink="http://www.w3.org/1999/xlink" x="0px" y="0px"
	 viewBox="0 0 180 170" style="enable-background:new 0 0 180 170;" xml:space="preserve">
<style type="text/css">
	.st0{fill:#BFBFBF;}
</style>
<g>
	<path class="st0" d="M151.6,77.16c0.3,0.49,1.4,9.52,1.64,10.65c0.21,1.01,0.9,1.68,1.94,1.93c0.28,0.07,6.28,0.6,7.02,0.51
		c0.77-0.1,1.32-0.57,1.72-1.22c0.2-0.33,0.25-0.67,0.15-1.04c-0.23-0.95-5.76-35.98-6.03-37.44c-0.13-0.72-0.26-1.44-1.12-1.73
		c-0.45-0.32-16.04-4.85-16.87-4.79c-3.65,0-4.76,1.36-5.48,4.24c-0.58,1.37-7.78,38.22-7.86,38.86c-0.16,1.25,0.27,2.07,1.53,2.32
		c0.95,0.19,5.27,0.61,6.46,0.8c0.96,0.04,2.39-0.71,2.42-2.25c0.03-1.43,0.87-7.61,0.95-8.26c0.18-1.76,1.41-2.03,2.15-2.12
		c2.81-0.32,8.77-0.92,9.99-1.06C150.81,76.48,151.32,76.7,151.6,77.16z M139.63,70.08c-0.55-0.12-0.69-0.42-0.63-0.98
		c0.15-1.36,1.65-13.15,1.8-14.05c0.51-2.11,1.42-2.2,1.82-2.11c1.38,0.3,4.9,1.86,6.72,2.69c0.69,0.31,1.23,0.75,1.25,1.53
		c0.05,1.35,0.29,8.41,0.51,10.58c0.11,1.08-0.27,1.52-1.28,1.62C148.18,69.52,140.12,70.19,139.63,70.08z"/>
	<path class="st0" d="M17.97,90.26c2.11-0.06,4.2-0.29,6.29-0.59c0.6-0.09,2.72-0.65,2.81-2.06c-0.04-0.88-0.55-10.49-0.31-13.05
		c0.07-0.69,0.58-1.3,1.26-1.44c0.65-0.13,16.03-2.4,19.15-3c5.04-1.05,5.65-4.01,5.62-5.52c-0.06-2.56-1.85-17.94-2.16-18.6
		c-0.61-1.26-1.76-1.86-3.09-2.04c-1.09-0.15-25.1,0.1-28.35,0.78c-1.62,0.34-2.87,1.54-3.08,3.17c-0.16,1.24-0.32,39.74-0.15,40.74
		C16.16,89.78,16.83,90.29,17.97,90.26z M26.58,52.37c1.15-0.17,13.83-1.81,15.45-1.88c0.23-0.01,1.39,0,1.38,0.91
		c0.05,0.81-0.07,10.43-0.13,11.04c-0.08,0.81-0.49,1.23-1.31,1.33c-1.45,0.18-13.93,0.23-15.36,0.4c-0.7,0.08-1.27-0.33-1.35-1.04
		c-0.07-0.63-0.09-7.71-0.14-9.1C25.08,53.01,25.7,52.49,26.58,52.37z"/>
	<path class="st0" d="M88.53,79.86c-0.97,0.12-20.57,1.78-20.93,1.72c-0.78-0.13-1.07-0.44-1.07-1.24c0-2.62,0.03-4.4,0.06-7.02
		c0.01-0.66,0.31-0.99,0.97-1.13c0.25-0.05,14.81,0.34,15.12,0.32c0.9-0.06,1.51-0.69,1.56-1.59c0.01-0.22-0.34-2.94-0.49-4.09
		c-0.15-1.14-0.57-1.45-1.77-1.6c-0.95-0.12-13.62-0.07-14.54-0.11c-0.71-0.03-1.15-0.4-1.07-1.26c0.1-1.13,0.63-7.57,0.85-9.64
		c0.07-0.7,0.56-1.13,1.26-1.14c0.59-0.01,16.53,0.88,17.48,0.67c0.99-0.22,1.73-0.71,1.92-1.78c0.17-0.96,0.56-4.66,0.46-5.07
		c-0.24-1-0.82-1.75-1.88-2c-0.42-0.1-24.26-0.78-25.75-0.58c-1.41,0.18-2.23,1.07-2.42,2.47c-0.22,1.63-3.36,37.13-3.34,39.21
		c0.01,1.43,1.35,3.37,3.13,3.46c1.88,0.1,30.73-0.71,31.63-0.92c0.79-0.18,1.17-0.75,1.17-1.55c0.01-1.71-0.07-5.84-0.15-6.19
		C90.37,79.63,89,79.8,88.53,79.86z"/>
	<path class="st0" d="M99.31,89.52c0.88,0,20.92-1.59,22.55-1.79c0.3-0.04,0.61-0.18,0.88-0.34c0.76-0.45,1.15-7.83,1.02-8.01
		c-0.22-1.68-1.5-1.44-2.64-1.33c-1.12,0.11-15.33,2.14-15.77,2.11c-0.74-0.06-1.27-0.59-1.34-1.34c-0.06-0.63-2.24-23.82-2.17-24.4
		c0.07-0.67,0.49-1.42,1.49-1.36c0.66,0.04,14.72,1.56,16.55,1.9c3.65,0.8,4.45-0.24,4.81-1.06c0.55-1.26,1.88-4.87,1.89-5.4
		c0.01-0.48-0.8-1.84-2.51-1.84c-2.89-0.42-26.94-2.48-27.96-2.35c-0.5,0.06-3.47,0-3.46,3.08c-0.22,1.02,2.24,38.17,2.44,39.4
		C95.23,87.66,96.14,89.52,99.31,89.52z"/>
	<path class="st0" d="M37.84,113.75c-1.15-0.99-2.31-1.97-3.48-2.94c-0.78-0.65-0.77-0.77,0.11-1.29c1.02-0.6,2.03-1.21,3.06-1.81
		c0.75-0.44,1.07-1.09,1.01-1.93c-0.08-1.08-0.94-7.12-1.26-9.07c-0.11-0.63-0.95-1.99-3.26-1.52c-2.61,0.54-13.15,2.91-15.81,3.55
		c-1.08,0.26-1.85,0.53-2.27,1.95c-0.12,0.37-0.01,20.69,0.1,21.87c0.1,1.01,0.95,2.03,2.05,2.1c1.37,0.1,14.14,0.5,17.97,0.5
		c1.52,0,2.43-1.26,2.53-2.22c0.15-1.45,0.32-5.64,0.41-6.26C39,115.29,38.73,114.52,37.84,113.75z M23.28,103.74
		c0.06-0.72,0.5-1.18,1.12-1.4c2.86-0.91,5.39-1.72,6.75-2.03c0.88-0.2,1.17,0.07,1.3,0.94c0.16,1.09,0.31,2.18,0.52,3.26
		c0.18,0.88-0.26,1.44-0.98,1.65c-2.07,0.6-7.74,2.47-8.28,2.5c-0.52,0.03-0.7-0.2-0.72-0.74
		C22.99,107.81,23.18,105.01,23.28,103.74z M33.43,116.9c-0.21,0.8-0.42,1.6-0.66,2.39c-0.17,0.56-0.33,0.64-0.99,0.66
		c-2.55-0.16-5.09-0.3-7.64-0.47c-1.03-0.07-1.51-0.63-1.47-1.65c0.05-1.03,0.1-2.07,0.18-3.1c0.06-0.83,0.34-1.05,1.17-0.93
		c1.53,0.22,6.62,0.62,9.17,2.29C33.48,116.28,33.52,116.59,33.43,116.9z"/>
	<path class="st0" d="M112.81,105.82c-0.3,0.02-9.55,1.97-10.3,2.22c-0.85,0.29-1.26,1.09-1.01,1.93c0.17,0.57,0.45,1.11,0.68,1.65
		c0.19,0.44,0.56,0.62,1.02,0.63c1.29,0.02,2.57,0.04,3.86,0.07c0.3,0.01,0.6,0.03,0.89,0.06c0.32,0.03,0.44,0.2,0.44,0.53
		c0,1.93,0.01,3.86,0.02,5.8c0,0.59-0.1,0.74-0.68,0.77c-2.02,0.1-7.26,0.41-8,0.35c-1.14-0.09-1.5-0.62-1.5-1.62
		c-0.1-2.18-0.49-13.38-0.42-14.8c0.05-0.91,0.79-1.5,1.71-1.49c0.52,0.01,11.17,1.34,12.55,1.53c0.79,0.11,1.28-0.16,1.53-0.9
		c0.26-0.76,0.7-2.52,0.7-2.62c0.02-0.79-0.29-1.25-1.07-1.42c-1.31-0.28-14.46-1.97-16.84-2.19c-3.4-0.21-4.07,1.58-4.19,2.47
		c-0.3,2.17-0.08,18.96,0.1,22.46c0.04,0.78,0.13,1.56,0.25,2.33c0.16,0.98,0.8,1.51,1.78,1.52c0.93,0.01,15.48-0.63,16.91-0.7
		c1.18-0.06,1.71-0.79,1.83-1.7c0.09-0.69,0.21-1.39,0.3-2.08c0.17-1.36,1.06-12.37,1.03-13.43
		C114.39,106.38,113.62,105.76,112.81,105.82z"/>
	<path class="st0" d="M86.53,97.35c-1.04-0.02-17.61-0.16-18.2,0.24c-1.38,0.48-1.47,1.43-1.64,2.48c-0.11,0.69,0,6.74,0.06,9.06
		c0.02,0.77,0.56,1.63,1.36,1.73c0.78,0.1,4.89,0.4,6.15,0.48c0.3,0.02,0.38,0.19,0.35,0.43c-0.01,0.13-0.07,0.27-0.15,0.37
		c-0.28,0.38-5.82,7.07-8.3,10.05c-0.14,0.17-0.27,0.35-0.37,0.54c-0.32,0.61-0.04,1.35,0.61,1.59c0.21,0.08,3.22,0.18,4.48-0.07
		c0.59-0.12,1.15-0.38,1.56-0.84c1.41-1.57,7.01-8.13,8.42-9.81c0.19-0.23,0.4-0.46,0.64-0.63c0.12-0.09,0.36-0.11,0.51-0.05
		c0.12,0.05,0.24,0.26,0.24,0.4c0.05,1.82,0.2,10.94,0.31,11.57c0.15,0.89,0.76,1.29,1.64,1.14c0.6-0.11,2.95-0.97,3.47-1.34
		c0.71-0.51,1-1.27,0.98-2.14c-0.02-1.36-0.02-22.2-0.04-23.31C88.58,99.14,88.62,97.39,86.53,97.35z M81.62,107.51
		c-2.48-0.07-8.51-1.02-9.05-1.16c-0.37-0.09-0.5-0.39-0.52-0.73c-0.04-0.89-0.09-1.79-0.07-2.69c0.01-0.61,0.17-1.21,0.81-1.48
		c0.26-0.11,0.58-0.11,0.87-0.11c1.15-0.01,6.98,0.17,8.75,0.29c0.47,0.03,0.63,0.18,0.65,0.65c0.06,1.11,0.08,2.8,0.08,3.92
		C83.14,107.2,82.19,107.53,81.62,107.51z"/>
	<path class="st0" d="M139.01,118.9c-0.26-1.27-1.82-1.2-2.32-1.17c-0.88,0.07-8.26,1.08-11.07,1.43c-0.22,0.03-0.49-0.03-0.69-0.14
		c-0.51-0.27-0.79-0.76-0.85-1.3c-0.13-1.14-0.2-2.29-0.26-3.44c-0.05-0.81,0.35-1.3,1.15-1.4c0.87-0.11,5.64-0.36,7.16-0.42
		c0.6-0.02,1.05-0.35,1.23-0.91c0.15-0.47,0.7-2.66,0.53-3.29c-0.19-0.68-0.78-1.09-1.48-1.03c-0.46,0.04-0.92,0.07-1.38,0.1
		c-1.94,0.1-3.88,0.2-5.82,0.29c-0.33,0.02-0.67,0.04-1,0.02c-0.58-0.03-0.73-0.16-0.9-0.72c-0.03-0.1-0.23-3.7-0.17-4.36
		c0.02-0.21,0.33-0.86,1.5-0.78c1.3,0.06,9.64,0.7,12.52,0.92c0.75,0.06,1.48-0.49,1.56-1.25c0.1-0.98,0.15-1.97,0.2-2.95
		c0.06-1.1-1.4-1.26-1.78-1.29c-1.36-0.12-13.09-0.67-14.77-0.7c-0.98-0.02-1.83,0.25-2.62,0.92c-1.03,0.88-1.55,1.95-1.67,3.25
		c-0.12,1.19-0.55,19.42-0.57,21.88c-0.01,0.6,0.1,1.21,0.59,1.6c0.47,0.37,1.01,0.69,1.56,0.94c0.76,0.34,1.59,0.38,2.41,0.34
		c1.24-0.07,14.65-1.28,16.59-1.71c0.6-0.13,0.76-0.3,0.76-0.93c-0.01-0.38-0.01-0.76-0.05-1.14
		C139.25,120.75,139.14,119.82,139.01,118.9z"/>
	<path class="st0" d="M61.97,97.44c-0.98,0.31-1.97,0.64-2.92,1.02c-0.75,0.3-1.26,0.89-1.47,1.68c-0.11,0.43-1.48,14.46-1.8,17.42
		c-0.08,0.76-0.29,1.96-1.76,1.93c-1.11,0-2.23,0.06-3.34,0.08c-0.58,0.01-0.99-0.29-1.16-0.85c-0.12-0.39-1.97-15.75-2.31-18.3
		c-0.1-0.7-0.11-2.55-1.53-2.57c-0.88-0.01-1.76-0.01-2.64,0.07c-2.21,0.28-1.86,2.79-1.79,3.65c0.16,2.04,1.91,19.83,2.1,21.1
		c0.07,0.44,0.4,2.1,2.03,2.09c0.96,0.11,11.95,0.33,13.94,0.3c0.63-0.01,2.29,0,2.67-3.43c0.2-1.93,1.54-20.76,1.6-22.39
		C63.61,98.84,63.59,96.94,61.97,97.44z"/>
	<path class="st0" d="M164.03,123.72c-0.36-0.69-5.02-8.23-5.85-9.59c-0.12-0.2-0.22-0.4-0.31-0.61c-0.11-0.25-0.04-0.45,0.23-0.56
		c0.37-0.15,2.56-0.92,3.27-1.19c0.43-0.16,0.83-0.41,1.07-0.83c0.46-0.79,0.73-1.63,0.7-2.56c-0.05-1.47-0.2-7.4-0.27-8.89
		c-0.03-0.49-0.1-1.03-0.33-1.46c-0.49-0.89-1.28-1.36-2.34-1.37c-4.14-0.05-8.28,0.04-12.41,0.42c-0.82,0.08-1.62,0.24-2.28,0.78
		c-0.79,0.65-1.25,1.48-1.34,2.51c-0.19,2-1.93,23.24-1.98,24.02c-0.05,0.77,0.34,1.23,1.11,1.37c1.21,0.22,2.42,0.26,3.61-0.18
		c0.83-0.31,1.51-0.76,1.6-1.74c0.14-1.5,0.58-8.17,0.66-10.01c0.01-0.3,0.16-0.41,0.44-0.38c0.31,0.04,0.61,0.11,0.92,0.14
		c0.38,0.04,0.67,0.21,0.9,0.51c0.14,0.18,0.29,0.36,0.42,0.55c0.98,1.49,1.97,2.97,2.94,4.47c1.01,1.56,2.01,3.13,3,4.71
		c0.48,0.76,1.17,1.19,2.04,1.33c1.14,0.18,2.27,0.01,3.4-0.15c0.13-0.02,0.27-0.08,0.39-0.14
		C164.05,124.63,164.26,124.15,164.03,123.72z M156.81,107.87c-2.07,0.3-4.14,0.59-6.21,0.85c-0.7,0.09-1.07-0.29-1.01-1
		c0.09-1.17,0.41-4.74,0.52-5.35c0.14-0.78,0.41-1.01,1.2-1.07c0.33-0.03,3.11-0.04,4.17-0.01c0.58,0.02,1.16,0.1,1.66,0.48
		c0.42,0.32,0.63,0.73,0.69,1.22c0.06,0.49,0.15,2.83,0.15,3.51C157.97,107.32,157.61,107.75,156.81,107.87z"/>
</g>
</svg>
