<?xml version="1.0" encoding="utf-8"?>
<!-- Generator: Adobe Illustrator 28.1.0, SVG Export Plug-In . SVG Version: 6.00 Build 0)  -->
<svg version="1.1" id="Capa_1" xmlns="http://www.w3.org/2000/svg" xmlns:xlink="http://www.w3.org/1999/xlink" x="0px" y="0px"
	 viewBox="0 0 200 170" style="enable-background:new 0 0 200 170;" xml:space="preserve">
<style type="text/css">
	.st0{fill:#BFBFBF;}
</style>
<g>
	<path class="st0" d="M31.45,86.73l-0.16,22.51c0,0.06-0.05,0.1-0.1,0.1H12.51c-0.12,0-0.18-0.06-0.18-0.18V69.72
		c0-0.06,0.05-0.1,0.11-0.1l0,0c7.22,0.07,14.46,0.13,21.71,0.18c1.23,0.01,2.16-0.09,2.8-0.31c2.19-0.74,4.14-3.11,3.62-5.54
		c-0.58-2.69-3.02-3.67-5.5-3.67c-7.47-0.01-14.93-0.05-22.38-0.1c-0.05,0-0.08-0.04-0.08-0.08L12.5,43.41
		c0-0.09,0.04-0.13,0.13-0.13c10.21,0.11,20.4,0.23,30.59,0.35c0.98,0.01,1.83,0.11,2.56,0.31c11.84,3.17,18.28,16.35,14.42,27.75
		c-2.16,6.38-6.93,11-12.94,13.96c-0.91,0.45-1.54,0.81-2.57,0.81c-4.37,0-8.74,0.06-13.11,0.15
		C31.49,86.61,31.45,86.65,31.45,86.73z"/>
	<path class="st0" d="M148.88,43.55l4.18-0.24c0.15-0.01,0.28,0.11,0.29,0.26c0,0.01,0,0.01,0,0.02l-0.01,0.76
		c0,0.15-0.11,0.26-0.26,0.27l-4.52,0.29c-0.15,0.01-0.28-0.11-0.29-0.26c0-0.04,0-0.09,0.02-0.13l0.35-0.81
		C148.68,43.62,148.77,43.55,148.88,43.55z"/>
	<path class="st0" d="M159.08,44.96l-4.79-0.34c-0.07,0-0.12-0.06-0.12-0.12l-0.05-1.06c0-0.07,0.05-0.13,0.13-0.14
		c0,0,0.01,0,0.01,0l4.4,0.33c0.05,0,0.09,0.03,0.11,0.08l0.43,1.07c0.03,0.07-0.01,0.14-0.07,0.17
		C159.12,44.96,159.1,44.96,159.08,44.96z"/>
	<path class="st0" d="M105.56,79.24c0.46,0.18,0.94,0.36,1.42,0.53c5.26,1.85,8.48,5.38,9.66,10.61c0.2,0.89,0.3,2.01,0.3,3.36
		c0,5.15,0,10.29,0,15.44c0,0.08-0.04,0.12-0.12,0.12l-19.6,0c-0.11,0-0.2-0.09-0.2-0.2v0c-0.02-5.53-0.05-11.03-0.08-16.48
		C96.9,90.2,94.35,88.12,92.4,87c-0.48-0.28-0.93-0.41-1.37-0.41c-10.63,0.02-21.25,0.03-31.88,0.03c-0.07,0-0.13-0.06-0.13-0.13
		l0-3.14c0-0.11,0.04-0.21,0.12-0.28c3.72-3.56,5.92-7.9,6.6-13.03c0.01-0.08,0.06-0.12,0.14-0.12c9.23-0.01,18.46-0.01,27.69,0
		c0.58,0,1.23-0.3,1.94-0.9c2.68-2.28,2.59-6.49-0.19-8.55c-0.34-0.25-0.88-0.22-1.34-0.22c-9.52,0.01-19.03,0.01-28.55,0
		c-0.09,0-0.14-0.04-0.15-0.13c-0.59-5-2.64-9.28-6.14-12.85c-0.07-0.08-0.12-0.18-0.12-0.28v-3.32c0-0.08,0.04-0.12,0.12-0.12
		c11.19,0,22.39,0,33.58,0c3.72,0,7.34,0.21,11.01,0.41c0.31,0.02,0.94,0.24,1.9,0.66c15.17,6.64,15.11,27.97-0.09,34.56
		c-0.02,0.01-0.03,0.04-0.02,0.06C105.54,79.23,105.54,79.24,105.56,79.24z"/>
	<path class="st0" d="M143.61,44.49l4.08-0.82c0.08-0.02,0.17,0.04,0.19,0.12c0.01,0.04,0,0.07-0.01,0.11l-0.56,1.05
		c-0.02,0.04-0.06,0.07-0.11,0.08l-4.31,0.83c-0.09,0.02-0.17-0.04-0.18-0.13c-0.01-0.04,0-0.09,0.03-0.12l0.78-1.06
		C143.54,44.52,143.57,44.5,143.61,44.49z"/>
	<path class="st0" d="M164.61,45.99l-4.36-0.86c-0.03-0.01-0.06-0.03-0.08-0.06l-0.6-1.13c-0.03-0.06-0.01-0.13,0.05-0.16
		c0.02-0.01,0.05-0.02,0.08-0.01l3.93,0.85c0.02,0.01,0.05,0.02,0.06,0.04l1.03,1.13c0.04,0.05,0.04,0.12-0.01,0.17
		C164.69,45.99,164.65,46,164.61,45.99z"/>
	<path class="st0" d="M126.12,57.89c-0.02,0.03-0.01,0.05,0.02,0.07l0,0c0.03,0.02,0.05,0.01,0.08-0.01
		c0.59-0.82,1.06-1.92,1.56-2.57c0.63-0.8,1.43-1.4,2.41-1.82c0.05-0.02,0.11-0.01,0.13,0.03c0.01,0.02,0.02,0.04,0,0.06l-1.6,3.07
		c-0.05,0.1-0.13,0.19-0.23,0.25c-0.67,0.42-1.62,1.19-2.34,1.35c-0.03,0.01-0.05,0.02-0.07,0.04l-1.77,1.87
		c-0.03,0.03-0.03,0.06,0.01,0.09l0.07,0.05c0.02,0.02,0.05,0.01,0.07-0.01c0.15-0.18,0.32-0.33,0.52-0.45
		c0.23-0.14,0.29-0.08,0.2,0.17c-0.38,1-0.9,2.14-1.08,3.25c-0.17,1.06-2.01,1.15-2.21,2.6c-0.19,1.36-0.54,2.72-0.86,4.06
		c-0.01,0.04,0,0.06,0.04,0.07l0,0c0.04,0.01,0.06,0,0.08-0.04c0.37-1.15,0.55-2.34,0.78-3.55c0.08-0.4,0.28-0.73,0.6-0.98
		l0.68-0.52c0.27-0.21,0.37-0.14,0.3,0.19l-0.87,4.3c-0.01,0.04-0.03,0.07-0.06,0.09c-0.53,0.32-1.48,0.5-1.75,1
		c-0.18,0.33-0.17,0.69,0.01,1.08c0.01,0.03,0.02,0.06,0.02,0.08l-0.21,3.69c0,0.05,0.02,0.08,0.08,0.08h0.08
		c0.02,0,0.02-0.01,0.02-0.02c0.02-1.32,0.08-2.63,0.16-3.95c0.01-0.22,0.13-0.37,0.33-0.45l0.94-0.37
		c0.18-0.07,0.26-0.01,0.25,0.18l-0.27,4.79c-0.01,0.11-0.07,0.17-0.18,0.18c-0.39,0.03-0.77,0.03-1.16-0.02
		c-0.07-0.01-0.15,0-0.22,0.01L120,75.99c-0.07,0.02-0.14-0.03-0.16-0.1c0-0.01,0-0.02,0-0.02c-0.03-1.09,0.04-2.35,0.23-3.78
		c0.84-6.53,3.25-12.25,7.25-17.14c1.02-1.25,2.32-2.59,3.9-4c1.63-1.46,3.37-2.61,5.24-3.69c0.48-0.28,0.99-0.48,1.53-0.62
		c0.27-0.07,0.5-0.16,0.69-0.28c1.17-0.71,2.49-1.13,3.75-1.47c0.48-0.13,0.53-0.04,0.15,0.26c-0.44,0.35-0.54,0.98-1.18,1.14
		c-0.98,0.25-1.95,0.54-2.9,0.89c-0.27,0.1-0.4,0.05-0.67,0.01c-0.08-0.01-0.16,0.01-0.22,0.06c-0.45,0.33-0.81,0.68-1.32,0.91
		c-0.62,0.27-1.22,0.57-1.81,0.9c-0.23,0.13-0.57,0.12-0.78,0.27c-0.45,0.31-1.04,0.8-1.4,1.34c-0.34,0.51-0.67,1.02-1,1.53
		c-0.61,0.94-1.85,1.55-2.83,2.07C127.67,54.68,126.59,57.07,126.12,57.89z"/>
	<path class="st0" d="M148.11,45.16l5.15-0.25c0.04,0,0.08,0.03,0.08,0.07c0,0,0,0,0,0.01l-0.03,2.13c0,0.04-0.03,0.07-0.07,0.07
		l-5.66,0.29c-0.04,0-0.08-0.03-0.08-0.07c0-0.01,0-0.02,0-0.02l0.54-2.17C148.04,45.19,148.07,45.16,148.11,45.16z"/>
	<path class="st0" d="M159.96,47.62l-5.56-0.42c-0.06,0-0.11-0.05-0.11-0.11l-0.05-1.98c0-0.07,0.05-0.12,0.12-0.12
		c0,0,0.01,0,0.01,0l5.01,0.3c0.05,0,0.09,0.04,0.11,0.08l0.6,2.11c0.02,0.06-0.02,0.13-0.08,0.15
		C159.99,47.62,159.98,47.62,159.96,47.62z"/>
	<path class="st0" d="M185.01,66.76c-0.05-0.89-0.36-1.56-0.91-2.02c-0.62-0.51-0.98-0.63-1.24-1.42c-0.32-0.97-0.64-1.94-0.98-2.9
		c-0.02-0.06,0.01-0.13,0.07-0.15c0.03-0.01,0.06-0.01,0.09,0l0.08,0.04c0.13,0.06,0.17,0.02,0.12-0.12
		c-0.19-0.5-0.93-1.18-1.3-1.61c-0.05-0.06-0.11-0.09-0.19-0.1c-0.11-0.01-0.2-0.04-0.29-0.1c-0.62-0.42-1.19-0.8-1.72-1.15
		c-0.15-0.1-0.27-0.23-0.35-0.38l-1.43-2.78c-0.08-0.15-0.03-0.2,0.13-0.16c0.55,0.16,1.33,0.94,1.81,1.33
		c0.03,0.02,0.07,0.02,0.09-0.01l0.06-0.08c0.03-0.03,0.02-0.06,0-0.09c-0.63-0.6-1.31-1.11-2.04-1.52
		c-0.26-0.15-0.68-0.54-1.24-1.17c-0.05-0.06-0.12-0.08-0.19-0.05c-0.11,0.05-0.22,0.04-0.3,0c-0.8-0.43-1.62-0.82-2.46-1.17
		c-0.24-0.1-0.54-0.41-0.71-0.66c-0.28-0.42-0.98-1.24-1.06-1.7c-0.01-0.06,0.03-0.12,0.09-0.13c0.02,0,0.04,0,0.06,0.01
		c1.19,0.52,2.89,1.39,3.56,2.42c0.23,0.35,0.46,0.64,0.7,0.87c0.1,0.09,0.11,0.08,0.06-0.04c-0.86-1.84-2.35-2.51-4.17-3.36
		c-0.69-0.33-1.21-0.72-1.78-1.19c-0.07-0.06-0.14-0.07-0.22-0.04c-0.2,0.08-0.38,0.13-0.6,0.04c-0.93-0.39-1.89-0.71-2.86-0.96
		c-0.4-0.1-0.93-0.94-1.17-1.24c-0.16-0.19-0.12-0.25,0.12-0.18c1.36,0.4,2.59,0.88,3.83,1.61c0.44,0.26,0.94,0.29,1.36,0.5
		c5.61,2.87,10.31,8.04,13.17,13.61c2.38,4.65,3.63,9.77,3.71,15c0,0.11-0.09,0.21-0.2,0.21c-0.01,0-0.02,0-0.04,0
		c-0.14-0.02-0.26-0.07-0.38-0.13c-0.06-0.04-0.13-0.05-0.2-0.03c-0.38,0.09-0.77,0.12-1.16,0.08c-0.09-0.01-0.14-0.06-0.14-0.15
		l-0.28-4.68c-0.01-0.25,0.09-0.33,0.33-0.24l0.6,0.23c0.24,0.09,0.38,0.26,0.41,0.51c0.19,1.32,0.25,2.65,0.19,3.98
		c0,0.04,0.03,0.07,0.07,0.07c0,0,0,0,0,0l0.1,0c0.04,0,0.06-0.02,0.05-0.06c-0.1-1.17-0.07-2.34-0.21-3.49
		c-0.08-0.62,0.12-1.03-0.21-1.7c-0.03-0.07-0.09-0.11-0.16-0.13c-0.49-0.1-0.92-0.31-1.3-0.63c-0.03-0.03-0.05-0.06-0.06-0.1
		l-0.82-4.11c-0.06-0.31,0.04-0.39,0.31-0.22C184.41,65.56,184.82,66.09,185.01,66.76L185.01,66.76z M180.77,58.01
		c0.04-0.02-0.18-0.49-0.5-1.04c0,0,0,0,0,0c-0.32-0.55-0.61-0.98-0.65-0.95c0,0,0,0,0,0c-0.04,0.02,0.18,0.49,0.5,1.04c0,0,0,0,0,0
		C180.44,57.61,180.73,58.03,180.77,58.01C180.77,58.01,180.77,58.01,180.77,58.01z M185.2,67.34c0-0.08-0.03-0.15-0.08-0.22
		c-0.01-0.01-0.01-0.01-0.01,0l0.05,0.55c0.03,0.25,0.07,0.25,0.13-0.01c0-0.02-0.01-0.07-0.04-0.14
		C185.22,67.46,185.21,67.4,185.2,67.34z M185.75,69.77c0.03-0.58-0.31-1.04-0.32-1.66c0-0.13-0.03-0.13-0.08-0.02
		c-0.03,0.08-0.04,0.16-0.02,0.25c0.12,0.52,0.23,1,0.34,1.44C185.71,69.96,185.74,69.96,185.75,69.77z"/>
	<path class="st0" d="M142.32,46.21l4.63-0.85c0.07-0.01,0.14,0.03,0.16,0.11c0,0.02,0,0.05,0,0.07l-0.66,2.05
		c-0.02,0.05-0.06,0.08-0.1,0.09l-5.05,0.91c-0.07,0.01-0.14-0.04-0.16-0.11c-0.01-0.03,0-0.06,0.01-0.08l1.07-2.11
		C142.25,46.24,142.28,46.21,142.32,46.21z"/>
	<path class="st0" d="M166.09,48.76l-4.89-0.98c-0.07-0.01-0.12-0.06-0.14-0.13l-0.61-1.93c-0.03-0.1,0.02-0.21,0.12-0.24
		c0.03-0.01,0.06-0.01,0.09,0l4.37,0.9c0.05,0.01,0.1,0.04,0.13,0.09l1.13,2.01c0.05,0.09,0.02,0.21-0.08,0.26
		C166.18,48.76,166.14,48.77,166.09,48.76z"/>
	<path class="st0" d="M137.27,47.86l3.87-1.29c0.08-0.03,0.17,0.02,0.2,0.1c0.01,0.04,0.01,0.09-0.01,0.13l-1.11,2.02
		c-0.02,0.03-0.05,0.06-0.09,0.07l-4.12,1.37c-0.08,0.03-0.17-0.02-0.2-0.1c-0.01-0.05-0.01-0.09,0.02-0.13l1.35-2.09
		C137.21,47.89,137.24,47.87,137.27,47.86z"/>
	<path class="st0" d="M171.41,50.5l-4.16-1.41c-0.03-0.01-0.05-0.03-0.06-0.05l-1.11-2.13c-0.03-0.05-0.01-0.12,0.05-0.15
		c0.03-0.01,0.06-0.02,0.09-0.01l3.81,1.35c0.02,0.01,0.04,0.02,0.06,0.04l1.45,2.2c0.03,0.05,0.02,0.12-0.03,0.15
		C171.48,50.5,171.45,50.51,171.41,50.5z"/>
	<path class="st0" d="M147.38,48.06l5.84-0.32c0.05,0,0.08,0.03,0.08,0.08c0,0,0,0,0,0l-0.05,3.33c0,0.04-0.03,0.08-0.08,0.08
		l-6.44,0.37c-0.05,0-0.08-0.03-0.09-0.08c0-0.01,0-0.02,0-0.02l0.65-3.38C147.31,48.09,147.34,48.06,147.38,48.06z"/>
	<path class="st0" d="M160.87,51.72l-6.29-0.48c-0.07,0-0.12-0.06-0.12-0.13l-0.11-3.22c0-0.07,0.05-0.14,0.13-0.14
		c0,0,0.01,0,0.01,0l5.69,0.38c0.06,0,0.11,0.05,0.12,0.11l0.71,3.32c0.01,0.07-0.03,0.14-0.1,0.16
		C160.9,51.72,160.89,51.72,160.87,51.72z"/>
	<path class="st0" d="M140.84,49.22l5.23-1.01c0.08-0.02,0.16,0.04,0.17,0.12c0,0.02,0,0.04,0,0.06l-0.69,3.26
		c-0.01,0.06-0.06,0.1-0.12,0.11l-5.67,1.04c-0.08,0.01-0.16-0.04-0.17-0.12c0-0.02,0-0.05,0.01-0.07l1.13-3.29
		C140.75,49.26,140.79,49.23,140.84,49.22z"/>
	<path class="st0" d="M133.27,49.83l2.87-1.44c0.08-0.04,0.17,0,0.21,0.07c0.02,0.05,0.02,0.11-0.01,0.15l-1.41,2.04
		c-0.01,0.02-0.03,0.04-0.06,0.05l-3.1,1.53c-0.08,0.04-0.17,0.01-0.21-0.07c-0.03-0.05-0.02-0.12,0.02-0.17l1.64-2.12
		C133.23,49.86,133.25,49.84,133.27,49.83z"/>
	<path class="st0" d="M167.82,52.96l-5.59-1.06c-0.05-0.01-0.08-0.04-0.09-0.09l-0.78-3.33c-0.01-0.06,0.03-0.13,0.09-0.14
		c0.02,0,0.03,0,0.05,0l5.12,1.03c0.04,0.01,0.07,0.03,0.09,0.07l1.25,3.35c0.02,0.06-0.01,0.13-0.07,0.15
		C167.87,52.96,167.84,52.97,167.82,52.96z"/>
	<path class="st0" d="M135.35,50.93l4.31-1.43c0.08-0.02,0.16,0.02,0.18,0.09c0.01,0.03,0.01,0.06,0,0.09L138.61,53
		c-0.02,0.04-0.05,0.08-0.09,0.09l-4.58,1.42c-0.08,0.02-0.16-0.02-0.18-0.09c-0.01-0.03-0.01-0.07,0.01-0.1l1.51-3.3
		C135.28,50.97,135.31,50.95,135.35,50.93z"/>
	<path class="st0" d="M173.54,54.74l-4.57-1.45c-0.02-0.01-0.04-0.02-0.05-0.05l-1.28-3.43c-0.02-0.04,0-0.09,0.04-0.11
		c0.02-0.01,0.04-0.01,0.06,0l4.31,1.48c0.02,0.01,0.04,0.02,0.05,0.04l1.55,3.4c0.02,0.04,0,0.09-0.04,0.11
		C173.58,54.75,173.56,54.75,173.54,54.74z"/>
	<path class="st0" d="M131.04,52.93l3.18-1.52c0.08-0.04,0.17-0.01,0.21,0.07c0.02,0.04,0.02,0.09,0,0.14l-1.48,3.19
		c-0.02,0.03-0.04,0.06-0.08,0.08l-3.32,1.51c-0.08,0.04-0.17,0-0.2-0.08c-0.02-0.04-0.02-0.09,0-0.14l1.63-3.18
		C130.98,52.97,131,52.95,131.04,52.93z"/>
	<path class="st0" d="M177.68,56.64l-3.22-1.48c-0.03-0.01-0.05-0.04-0.06-0.06l-1.53-3.28c-0.03-0.06,0-0.14,0.06-0.17
		c0.04-0.02,0.08-0.02,0.11,0l3.19,1.6c0.03,0.01,0.05,0.03,0.06,0.06l1.55,3.16c0.03,0.06,0.01,0.14-0.06,0.17
		C177.76,56.66,177.72,56.66,177.68,56.64z"/>
	<path class="st0" d="M146.57,52.47l6.62-0.38c0.04,0,0.08,0.03,0.08,0.07c0,0,0,0,0,0l-0.03,4.87c0,0.04-0.03,0.08-0.08,0.08
		l-7.3,0.38c-0.04,0-0.08-0.03-0.08-0.08c0-0.01,0-0.01,0-0.02l0.71-4.87C146.5,52.5,146.53,52.47,146.57,52.47z"/>
	<path class="st0" d="M161.82,57.61l-7.03-0.49c-0.1-0.01-0.18-0.09-0.18-0.19l-0.09-4.57c0-0.11,0.08-0.19,0.19-0.2
		c0.01,0,0.01,0,0.02,0l6.32,0.39c0.09,0.01,0.16,0.07,0.18,0.16l0.81,4.67c0.02,0.1-0.05,0.2-0.16,0.22
		C161.86,57.61,161.84,57.61,161.82,57.61z"/>
	<path class="st0" d="M139.34,53.65l5.84-0.98c0.08-0.01,0.16,0.04,0.17,0.12c0,0.02,0,0.03,0,0.05l-0.86,4.73
		c-0.01,0.06-0.06,0.11-0.12,0.12l-6.15,0.98c-0.08,0.01-0.16-0.04-0.17-0.12c0-0.02,0-0.04,0-0.06l1.17-4.73
		C139.23,53.7,139.28,53.66,139.34,53.65z"/>
	<path class="st0" d="M169.48,58.87l-6.15-1.06c-0.04-0.01-0.07-0.04-0.08-0.08l-0.86-4.83c-0.01-0.06,0.03-0.11,0.08-0.12
		c0.01,0,0.02,0,0.03,0l5.74,1.1c0.04,0.01,0.07,0.04,0.08,0.08l1.26,4.78c0.01,0.05-0.02,0.11-0.07,0.12
		C169.51,58.87,169.49,58.87,169.48,58.87z"/>
	<path class="st0" d="M133.4,55.41l4.57-1.42c0.09-0.03,0.19,0.02,0.22,0.11c0.01,0.03,0.01,0.07,0,0.1l-1.22,4.64
		c-0.02,0.06-0.06,0.11-0.13,0.13l-4.75,1.23c-0.09,0.02-0.19-0.03-0.22-0.13c-0.01-0.03-0.01-0.07,0-0.1l1.4-4.46
		C133.3,55.47,133.35,55.43,133.4,55.41z"/>
	<path class="st0" d="M169.52,54.23l4.49,1.41c0.04,0.01,0.08,0.05,0.09,0.09l1.38,4.55c0.02,0.07-0.02,0.15-0.09,0.17
		c-0.03,0.01-0.05,0.01-0.08,0l-4.67-1.32c-0.05-0.01-0.08-0.05-0.09-0.1l-1.21-4.64c-0.02-0.07,0.02-0.15,0.1-0.17
		C169.47,54.22,169.5,54.22,169.52,54.23z"/>
	<path class="st0" d="M132.51,56.01l-1.41,4.46c-0.02,0.05-0.05,0.09-0.1,0.11l-3.42,1.23c-0.09,0.03-0.19-0.01-0.22-0.1
		c-0.01-0.04-0.01-0.08,0-0.11l1.48-4.18c0.02-0.04,0.05-0.08,0.09-0.1l3.35-1.52c0.08-0.04,0.19,0,0.22,0.08
		C132.52,55.93,132.52,55.97,132.51,56.01z"/>
	
		<ellipse transform="matrix(0.8652 -0.5015 0.5015 0.8652 -4.293 98.0585)" class="st0" cx="180.2" cy="57.01" rx="0.09" ry="1.15"/>
	<path class="st0" d="M178.37,57.62l1.5,4.34c0.02,0.05-0.01,0.1-0.06,0.12c-0.02,0.01-0.04,0.01-0.06,0l-3.4-1.29
		c-0.03-0.01-0.05-0.03-0.06-0.06l-1.48-4.6c-0.02-0.05,0.01-0.1,0.06-0.12c0.02-0.01,0.05-0.01,0.07,0l3.37,1.55
		C178.35,57.58,178.37,57.6,178.37,57.62z"/>
	<path class="st0" d="M128.22,57.92l-1.43,4.19c-0.01,0.03-0.03,0.06-0.06,0.07l-2.26,1.27c-0.06,0.04-0.15,0.01-0.18-0.05
		c-0.02-0.03-0.02-0.07-0.01-0.11l1.33-3.92c0.01-0.03,0.03-0.05,0.05-0.07l2.35-1.54c0.06-0.04,0.14-0.03,0.19,0.03
		C128.23,57.84,128.23,57.88,128.22,57.92z"/>
	<path class="st0" d="M181.43,59.62l1.17,3.73c0.02,0.07-0.01,0.14-0.08,0.16c-0.03,0.01-0.07,0.01-0.1-0.01l-1.98-1.08
		c-0.03-0.02-0.05-0.04-0.06-0.07l-1.42-4.16c-0.02-0.07,0.01-0.14,0.08-0.17c0.04-0.01,0.08-0.01,0.12,0.01l2.23,1.51
		C181.4,59.57,181.42,59.6,181.43,59.62z"/>
	<path class="st0" d="M145.69,58.75l7.46-0.36c0.05,0,0.1,0.04,0.1,0.09c0,0,0,0,0,0l0.02,6.54c0,0.05-0.04,0.09-0.09,0.1L145,65.48
		c-0.05,0-0.1-0.04-0.1-0.09c0,0,0-0.01,0-0.01l0.69-6.54C145.6,58.79,145.64,58.75,145.69,58.75z"/>
	<path class="st0" d="M162.86,65.63l-7.96-0.47c-0.07,0-0.12-0.06-0.13-0.13l-0.12-6.54c0-0.07,0.06-0.13,0.13-0.14
		c0,0,0.01,0,0.01,0l7.28,0.47c0.06,0,0.12,0.05,0.13,0.12l0.8,6.54c0.01,0.07-0.04,0.14-0.12,0.15
		C162.88,65.63,162.87,65.63,162.86,65.63z"/>
	<path class="st0" d="M137.78,59.89l6.48-0.98c0.04-0.01,0.09,0.02,0.09,0.07c0,0.01,0,0.02,0,0.02l-0.85,6.61
		c-0.01,0.04-0.03,0.07-0.07,0.07l-6.63,0.78c-0.05,0-0.09-0.03-0.09-0.07c0-0.01,0-0.01,0-0.02l0.99-6.41
		C137.71,59.93,137.74,59.9,137.78,59.89z"/>
	<path class="st0" d="M169.91,60.27l1.05,6.11c0.02,0.11-0.06,0.2-0.16,0.22c-0.02,0-0.04,0-0.05,0l-6.29-0.79
		c-0.09-0.01-0.16-0.08-0.17-0.17l-0.77-6.32c-0.01-0.11,0.06-0.2,0.17-0.21c0.02,0,0.04,0,0.05,0l6.01,1.01
		C169.83,60.13,169.89,60.19,169.91,60.27z"/>
	<path class="st0" d="M136.65,60.29l-1.04,6.27c-0.01,0.03-0.03,0.06-0.06,0.06l-5.02,0.89c-0.04,0.01-0.08-0.02-0.09-0.06
		c0-0.01,0-0.02,0-0.03l1.03-5.9c0.01-0.03,0.03-0.05,0.06-0.06l5.02-1.26c0.04-0.01,0.08,0.02,0.09,0.06
		C136.66,60.27,136.66,60.28,136.65,60.29z"/>
	<path class="st0" d="M175.86,61.69l1.03,5.79c0.01,0.05-0.03,0.1-0.08,0.11c-0.01,0-0.02,0-0.03,0l-4.75-0.79
		c-0.04-0.01-0.07-0.04-0.08-0.08l-0.99-6.23c-0.01-0.05,0.03-0.1,0.08-0.11c0.01,0,0.03,0,0.04,0l4.71,1.23
		C175.83,61.63,175.85,61.66,175.86,61.69z"/>
	<path class="st0" d="M130.72,61.82l-1.06,5.77c-0.01,0.03-0.03,0.06-0.06,0.07l-3.57,0.84c-0.04,0.01-0.09-0.02-0.1-0.06
		c0-0.01,0-0.02,0-0.04l1.05-5.37c0.01-0.03,0.03-0.05,0.06-0.06l3.58-1.24c0.04-0.01,0.09,0.01,0.1,0.05
		C130.72,61.79,130.73,61.8,130.72,61.82z"/>
	<path class="st0" d="M180.21,63.28l1,5.08c0.02,0.08-0.04,0.16-0.12,0.18c-0.02,0-0.04,0-0.06,0l-3.23-0.71
		c-0.06-0.01-0.11-0.06-0.12-0.12l-1.05-5.58c-0.02-0.08,0.04-0.16,0.12-0.18c0.03,0,0.05,0,0.08,0.01l3.28,1.21
		C180.16,63.19,180.2,63.23,180.21,63.28z"/>
	<path class="st0" d="M126.42,63.56l-0.96,4.95c-0.02,0.08-0.08,0.15-0.15,0.17l-2.08,0.63c-0.12,0.04-0.24-0.03-0.28-0.15
		c-0.01-0.04-0.01-0.08,0-0.11l1.01-4.5c0.01-0.06,0.05-0.12,0.11-0.15l2.03-1.09c0.11-0.06,0.25-0.02,0.3,0.09
		C126.42,63.46,126.42,63.51,126.42,63.56z"/>
	<path class="st0" d="M183.12,64.7l0.91,4.56c0.02,0.09-0.04,0.18-0.13,0.2c-0.03,0.01-0.05,0-0.08,0l-2.04-0.64
		c-0.06-0.02-0.1-0.07-0.11-0.13l-0.99-4.96c-0.02-0.09,0.04-0.18,0.13-0.2c0.04-0.01,0.08,0,0.11,0.01l2.11,1.04
		C183.07,64.6,183.11,64.65,183.12,64.7z"/>
	<path class="st0" d="M153.06,75.57l-8.52,0.08c-0.11,0-0.19-0.09-0.19-0.19c0,0,0,0,0-0.01l0.34-8.09c0-0.1,0.08-0.18,0.18-0.18
		l8.19-0.35c0.11-0.01,0.2,0.08,0.2,0.18c0,0,0,0.01,0,0.01l-0.02,8.35C153.25,75.48,153.17,75.57,153.06,75.57z"/>
	<path class="st0" d="M163.16,67.42l0.35,8.04c0,0.1-0.08,0.19-0.18,0.2c0,0,0,0-0.01,0l-8.19-0.08c-0.1,0-0.19-0.08-0.19-0.19
		l-0.13-8.45c0-0.1,0.08-0.19,0.19-0.19c0,0,0.01,0,0.01,0l7.97,0.49C163.08,67.25,163.15,67.32,163.16,67.42z"/>
	<path class="st0" d="M185.25,67.52c0.03,0.07,0.05,0.12,0.04,0.14c-0.06,0.26-0.1,0.27-0.13,0.01l-0.05-0.55c0-0.01,0-0.02,0.01,0
		c0.05,0.06,0.07,0.14,0.08,0.22C185.21,67.4,185.22,67.46,185.25,67.52z"/>
	<path class="st0" d="M143.33,67.43l-0.4,8.09c0,0.06-0.06,0.12-0.12,0.12l-6.65,0.04c-0.07,0-0.12-0.06-0.12-0.12c0,0,0,0,0-0.01
		l0.44-7.47c0-0.06,0.05-0.11,0.11-0.11l6.61-0.67c0.07-0.01,0.13,0.04,0.14,0.11C143.33,67.42,143.33,67.43,143.33,67.43z"/>
	<path class="st0" d="M171.17,68.25l0.38,7.26c0.01,0.08-0.06,0.16-0.14,0.16c0,0-0.01,0-0.01,0l-6.33-0.02
		c-0.08,0-0.15-0.06-0.15-0.15l-0.39-7.96c0-0.08,0.06-0.16,0.14-0.16c0.01,0,0.02,0,0.03,0l6.34,0.72
		C171.11,68.11,171.17,68.17,171.17,68.25z"/>
	<path class="st0" d="M185.42,68.11c0.01,0.63,0.36,1.09,0.32,1.66c-0.01,0.19-0.04,0.19-0.08,0.01c-0.11-0.44-0.22-0.92-0.34-1.44
		c-0.02-0.09-0.01-0.17,0.02-0.25C185.39,67.97,185.42,67.98,185.42,68.11z"/>
	<path class="st0" d="M135.38,68.28l-0.38,7.3c0,0.07-0.06,0.12-0.13,0.12l-4.87,0.04c-0.07,0-0.13-0.05-0.13-0.12
		c0,0,0-0.01,0-0.01l0.39-6.62c0-0.06,0.05-0.11,0.11-0.12l4.86-0.72c0.07-0.01,0.13,0.04,0.14,0.1
		C135.38,68.26,135.38,68.27,135.38,68.28z"/>
	<path class="st0" d="M177.19,69.07l0.33,6.58c0,0.04-0.03,0.08-0.07,0.08c0,0,0,0,0,0l-4.79-0.02c-0.04,0-0.07-0.03-0.08-0.07
		l-0.38-7.28c0-0.04,0.03-0.08,0.07-0.08c0.01,0,0.01,0,0.02,0l4.84,0.73C177.16,69,177.18,69.03,177.19,69.07z"/>
	<path class="st0" d="M129.46,69.13l-0.37,6.55c0,0.04-0.04,0.07-0.08,0.07l-3.52,0.05c-0.04,0-0.08-0.03-0.08-0.08c0,0,0,0,0,0
		l0.33-5.92c0-0.04,0.03-0.07,0.06-0.07l3.56-0.68c0.04-0.01,0.08,0.02,0.09,0.06C129.46,69.11,129.46,69.12,129.46,69.13z"/>
	<path class="st0" d="M181.45,69.94l0.29,5.7c0,0.08-0.06,0.14-0.13,0.15c0,0-0.01,0-0.01,0l-3.15-0.03c-0.07,0-0.14-0.06-0.14-0.13
		l-0.43-6.32c-0.01-0.08,0.05-0.14,0.13-0.15c0.01,0,0.02,0,0.04,0l3.29,0.65C181.4,69.82,181.44,69.88,181.45,69.94z"/>
	<path class="st0" d="M125.25,70.04l-0.33,5.6c0,0.08-0.07,0.14-0.15,0.15l-2.13,0.08c-0.09,0-0.16-0.06-0.16-0.15
		c0,0,0-0.01,0-0.01l0.27-5.09c0-0.07,0.05-0.12,0.11-0.14l2.19-0.59c0.08-0.02,0.17,0.03,0.19,0.11
		C125.25,70,125.26,70.02,125.25,70.04z"/>
	<path class="st0" d="M184.2,70.66l0.25,5.04c0,0.07-0.05,0.13-0.12,0.14c0,0,0,0-0.01,0l-1.96-0.01c-0.07,0-0.13-0.05-0.13-0.12
		l-0.33-5.56c0-0.07,0.05-0.13,0.12-0.14c0.01,0,0.03,0,0.04,0l2.05,0.53C184.16,70.56,184.2,70.61,184.2,70.66z"/>
	<path class="st0" d="M126.38,94.62c-0.12-0.11-0.15-0.09-0.07,0.05c0.48,0.86,0.98,1.72,1.51,2.6c0.57,0.95,1.84,1.61,2.77,2.16
		c0.49,0.29,0.99,1.02,1.4,1.67c0.33,0.53,0.73,1.01,1.18,1.44c0.78,0.74,2.01,1.09,3,1.66c0.03,0.02,0.08,0.01,0.09-0.02
		c0,0,0,0,0,0l0.03-0.05c0,0,0-0.01,0-0.01c-0.94-0.59-2.09-1-2.85-1.66c-0.63-0.55-1.18-1.2-1.64-1.95
		c-0.08-0.13-0.05-0.18,0.1-0.17c0.12,0.01,0.27,0.06,0.43,0.15c0.85,0.43,1.67,0.83,2.47,1.2c0.22,0.1,0.41,0.27,0.53,0.47
		c0.29,0.47,0.63,0.97,1.01,1.5c0.09,0.13,0.12,0.27,0.1,0.42c-0.01,0.07,0.01,0.13,0.07,0.17c0.38,0.29,1.2,1.08,1.68,0.89
		c0.07-0.03,0.16-0.03,0.23,0c1,0.38,2.02,0.69,3.06,0.94c0.42,0.1,0.97,0.88,1.25,1.18c0.24,0.26,0.19,0.33-0.14,0.23
		c-1.22-0.38-2.64-0.78-3.76-1.49c-0.15-0.09-0.3-0.16-0.46-0.22c-2.89-0.94-5.63-3.04-7.9-5.16c-3.87-3.61-7.17-8.39-8.75-13.47
		c-0.23-0.75-0.57-1.48-0.75-2.21c-0.65-2.62-1.25-5.58-1.12-8.3c0-0.08,0.07-0.14,0.15-0.13c0.03,0,0.06,0.01,0.08,0.03l0.45,0.34
		c0.06,0.05,0.14,0.06,0.21,0.05c0.44-0.07,0.88-0.07,1.31,0c0.08,0.01,0.13,0.06,0.14,0.15l0.37,4.76
		c0.01,0.11-0.07,0.21-0.19,0.22c-0.03,0-0.07,0-0.1-0.02l-0.92-0.39c-0.2-0.08-0.33-0.28-0.34-0.5l-0.26-3.97
		c0-0.03-0.02-0.05-0.05-0.05c-0.02,0-0.04,0.01-0.04,0.03c-0.03,0.1-0.01,0.2,0.05,0.3c0.04,0.07,0.06,0.14,0.06,0.22
		c-0.04,1,0.01,1.99,0.16,2.97c0.03,0.19-0.03,0.43-0.17,0.72c-0.04,0.08-0.05,0.16-0.03,0.24c0.06,0.27,0.17,0.51,0.34,0.73
		c0.05,0.07,0.12,0.12,0.19,0.15l1.33,0.59c0.07,0.03,0.12,0.11,0.15,0.23l0.91,4.23c0.08,0.36-0.03,0.42-0.31,0.19l-0.82-0.68
		c-0.27-0.22-0.43-0.5-0.48-0.84c-0.16-0.97-0.37-2.04-0.64-3.21c-0.02-0.11-0.07-0.2-0.13-0.29c-0.07-0.09-0.09-0.08-0.07,0.03
		c0.14,0.88,0.32,1.74,0.55,2.6c0.14,0.53,0.18,1.36,0.58,2.02c0.48,0.79,1.48,1,1.85,1.97c0.4,1.06,0.78,2.13,1.15,3.2
		c0.02,0.07,0,0.11-0.07,0.14c-0.02,0.01-0.04,0.01-0.06,0.02c-0.03,0.01-0.05,0-0.07-0.02c-0.08-0.11-0.17-0.19-0.29-0.24
		c-0.1-0.05-0.14-0.02-0.14,0.09c0,0.07,0.03,0.13,0.08,0.18c0.32,0.33,0.82,0.76,1.22,1.27c0.22,0.28,0.51,0.25,0.77,0.44
		c0.59,0.41,1.2,0.81,1.83,1.19c0.19,0.11,0.34,0.28,0.42,0.48c0.36,0.84,0.78,1.64,1.27,2.42c0.29,0.47,0.2,0.55-0.26,0.26
		c-0.67-0.42-1.69-0.98-2.17-1.75c-0.37-0.6-0.75-1.09-1.03-1.77C126.72,94.99,126.57,94.78,126.38,94.62z"/>
	<path class="st0" d="M171.4,103.65c-0.03,0.02-0.03,0.05-0.01,0.08v0c0.02,0.03,0.05,0.03,0.08,0.01c0.58-0.45,1.36-0.66,1.84-0.98
		c0.86-0.55,1.53-1.28,2.02-2.18c0.34-0.62,0.9-1.29,1.36-1.58c0.95-0.59,1.6-1.07,1.95-1.46c0.02-0.02,0.02-0.05,0-0.07
		c0,0,0,0,0,0l-0.07-0.06c-0.01-0.01-0.02-0.01-0.04,0c-0.46,0.35-0.91,0.71-1.35,1.07c-0.16,0.13-0.28,0.16-0.36,0.08
		c-0.04-0.03-0.04-0.09-0.02-0.13l1.41-2.76c0.06-0.11,0.14-0.21,0.24-0.27c0.61-0.42,1.38-1.1,2.13-1.3
		c0.08-0.02,0.14-0.06,0.19-0.12l1.09-1.25c0.08-0.09,0.09-0.21,0.03-0.31c-0.1-0.16-0.11-0.36-0.03-0.59
		c0.29-0.87,0.67-1.75,0.88-2.64c0.15-0.62,1.03-1.06,1.31-1.37c0.26-0.29,0.46-0.61,0.6-0.96c0.04-0.1,0.01-0.12-0.08-0.07
		c-0.42,0.23-0.69,0.66-1.11,0.84c-0.06,0.03-0.14,0-0.17-0.07c-0.01-0.03-0.01-0.06-0.01-0.09c0.33-1.33,0.6-2.67,0.82-4.02
		c0.08-0.48,0.88-0.78,1.27-0.91c0.7-0.23,0.53-1.42,0.57-1.94c0.08-1.24,0.18-2.49,0.3-3.75c0.01-0.14,0.13-0.25,0.27-0.25l0.13,0
		c0.12,0,0.23,0.09,0.23,0.22c0,0.01,0,0.01,0,0.02c-0.13,3.13-0.55,5.95-1.27,8.46c-1.64,5.73-4.99,11.41-9.52,15.42
		c-0.73,0.65-1.48,1.28-2.25,1.9c-0.98,0.79-3,2.22-4.61,2.81c-0.45,0.17-0.84,0.34-1.16,0.53c-1.07,0.64-2.2,0.89-3.27,1.31
		c-0.35,0.14-0.4,0.07-0.14-0.21c0.3-0.31,0.72-1.12,1.21-1.18c0.87-0.11,2.7-1.13,3.35-0.93c0.08,0.03,0.16,0.01,0.23-0.04
		l1.27-0.95c0.06-0.05,0.1-0.11,0.1-0.19c0-0.45,0.72-1.26,0.99-1.66c0.57-0.87,2.48-1.6,3.41-2.09c0.05-0.02,0.11-0.01,0.13,0.04
		c0.01,0.02,0.01,0.04,0.01,0.06c-0.07,0.41-0.65,0.89-0.9,1.23C173.57,102.64,172.49,102.81,171.4,103.65z M179.8,95.83
		c0.03,0.02,0.25-0.25,0.49-0.61c0,0,0,0,0,0c0.23-0.36,0.39-0.67,0.36-0.7c-0.03-0.02-0.25,0.25-0.49,0.61c0,0,0,0,0,0
		C179.92,95.49,179.76,95.8,179.8,95.83z"/>
	<path class="st0" d="M184.45,81.77l0.33-4.7c0.01-0.11,0.1-0.19,0.2-0.19l0.9-0.01c0.11,0,0.21,0.09,0.21,0.2c0,0.01,0,0.01,0,0.02
		l-0.29,4.24c0,0.07-0.05,0.14-0.11,0.17l-0.94,0.48c-0.1,0.05-0.23,0.01-0.28-0.09C184.45,81.84,184.44,81.8,184.45,81.77z"/>
	<path class="st0" d="M122.86,82.15l-0.4-5c-0.01-0.11,0.07-0.2,0.18-0.21c0.01,0,0.01,0,0.02,0l2.05,0.08
		c0.1,0,0.18,0.08,0.19,0.18l0.44,5.52c0.01,0.11-0.07,0.2-0.18,0.21c-0.02,0-0.05,0-0.07-0.01L123,82.32
		C122.92,82.3,122.87,82.23,122.86,82.15z"/>
	<path class="st0" d="M181.78,82.67l0.45-5.52c0.01-0.08,0.07-0.14,0.15-0.14l1.94-0.09c0.08,0,0.16,0.06,0.16,0.14
		c0,0.01,0,0.01,0,0.02l-0.29,4.97c0,0.06-0.05,0.12-0.11,0.14l-2.1,0.64c-0.08,0.03-0.17-0.02-0.19-0.1
		C181.78,82.71,181.78,82.69,181.78,82.67z"/>
	<path class="st0" d="M177.81,83.63l0.44-6.38c0-0.04,0.04-0.08,0.08-0.08l3.33-0.16c0.05,0,0.08,0.03,0.08,0.08c0,0,0,0,0,0.01
		l-0.4,5.84c0,0.04-0.03,0.07-0.07,0.08l-3.37,0.7c-0.04,0.01-0.09-0.02-0.1-0.06C177.81,83.64,177.81,83.63,177.81,83.63z"/>
	<path class="st0" d="M125.8,83.05l-0.38-5.89c0-0.04,0.03-0.08,0.07-0.08c0,0,0,0,0.01,0l3.52,0.06c0.04,0,0.07,0.03,0.08,0.07
		l0.43,6.55c0,0.04-0.03,0.08-0.07,0.08c-0.01,0-0.01,0-0.02,0l-3.58-0.72C125.83,83.11,125.81,83.09,125.8,83.05z"/>
	<path class="st0" d="M130.29,83.88l-0.42-6.54c-0.01-0.08,0.05-0.15,0.13-0.15c0,0,0.01,0,0.01,0l4.84,0.14
		c0.07,0,0.14,0.06,0.14,0.13l0.47,7.2c0,0.08-0.05,0.15-0.13,0.15c-0.01,0-0.02,0-0.03,0l-4.9-0.79
		C130.35,84.01,130.3,83.95,130.29,83.88z"/>
	<path class="st0" d="M172.1,84.6l0.47-7.21c0-0.04,0.04-0.07,0.08-0.07l4.81-0.15c0.04,0,0.08,0.03,0.08,0.08c0,0,0,0,0,0
		l-0.47,6.57c0,0.04-0.03,0.06-0.07,0.07l-4.81,0.79c-0.04,0.01-0.08-0.02-0.09-0.06C172.1,84.61,172.1,84.61,172.1,84.6z"/>
	<path class="st0" d="M164.44,85.55l0.51-8.01c0-0.04,0.04-0.07,0.08-0.07l6.45-0.11c0.04,0,0.08,0.03,0.08,0.07c0,0,0,0,0,0.01
		l-0.48,7.32c0,0.04-0.03,0.07-0.07,0.07l-6.48,0.8c-0.04,0.01-0.08-0.02-0.09-0.07C164.44,85.56,164.44,85.56,164.44,85.55z"/>
	<path class="st0" d="M136.53,84.83l-0.46-7.32c-0.01-0.08,0.06-0.15,0.14-0.15c0,0,0.01,0,0.01,0l6.62,0.14
		c0.08,0,0.14,0.06,0.14,0.14l0.41,7.94c0,0.08-0.06,0.15-0.14,0.15c-0.01,0-0.02,0-0.03,0l-6.57-0.76
		C136.59,84.96,136.54,84.9,136.53,84.83z"/>
	<path class="st0" d="M163.57,77.72l-0.46,7.9c-0.01,0.11-0.09,0.19-0.2,0.2l-7.87,0.45c-0.12,0.01-0.22-0.08-0.22-0.2
		c0,0,0-0.01,0-0.01l0.12-8.23c0-0.11,0.09-0.2,0.21-0.21l8.22-0.13c0.12,0,0.21,0.09,0.21,0.21
		C163.57,77.71,163.57,77.71,163.57,77.72z"/>
	<path class="st0" d="M144.59,77.52l8.45,0.13c0.12,0,0.21,0.1,0.21,0.22l0,8.2c0,0.12-0.1,0.22-0.22,0.22c0,0-0.01,0-0.01,0
		l-8.06-0.37c-0.11,0-0.2-0.09-0.21-0.21l-0.4-7.97c-0.01-0.12,0.08-0.22,0.2-0.23C144.58,77.52,144.58,77.52,144.59,77.52z"/>
	<path class="st0" d="M180.61,89.02l0.99-4.9c0.01-0.05,0.05-0.1,0.1-0.12l2.03-0.71c0.08-0.03,0.17,0.01,0.2,0.1
		c0.01,0.03,0.01,0.06,0.01,0.08l-0.96,4.5c-0.01,0.04-0.04,0.08-0.08,0.1l-2.05,1.12c-0.08,0.04-0.17,0.01-0.21-0.07
		C180.61,89.09,180.61,89.05,180.61,89.02z"/>
	<path class="st0" d="M124.05,88.14l-1.01-4.4c-0.03-0.12,0.05-0.25,0.17-0.28c0.04-0.01,0.08-0.01,0.12,0l2.06,0.62
		c0.08,0.02,0.14,0.09,0.16,0.17l1.04,4.86c0.03,0.13-0.05,0.25-0.18,0.28c-0.05,0.01-0.11,0-0.15-0.02l-2.09-1.08
		C124.11,88.27,124.07,88.21,124.05,88.14z"/>
	<path class="st0" d="M176.48,90.75l1.14-5.6c0.01-0.03,0.03-0.06,0.06-0.07l3.37-0.89c0.05-0.01,0.09,0.02,0.1,0.06
		c0,0.01,0,0.03,0,0.04l-1.1,5.24c-0.01,0.03-0.03,0.05-0.05,0.06l-3.42,1.25c-0.04,0.02-0.09-0.01-0.11-0.05
		C176.48,90.77,176.48,90.76,176.48,90.75z"/>
	<path class="st0" d="M127.13,89.71l-1.09-5.16c-0.02-0.08,0.03-0.15,0.11-0.17c0.02,0,0.04,0,0.06,0l3.44,0.78
		c0.05,0.01,0.1,0.06,0.11,0.11l1.12,5.59c0.02,0.08-0.03,0.15-0.11,0.17c-0.03,0.01-0.05,0-0.08-0.01l-3.46-1.21
		C127.17,89.8,127.14,89.76,127.13,89.71z"/>
	<path class="st0" d="M170.82,92.32l1.04-6.12c0.01-0.03,0.03-0.06,0.06-0.06l4.77-0.88c0.04-0.01,0.08,0.02,0.09,0.06
		c0,0.01,0,0.02,0,0.03l-1.08,5.73c-0.01,0.03-0.03,0.05-0.06,0.06l-4.73,1.27c-0.04,0.01-0.08-0.01-0.1-0.05
		C170.82,92.35,170.82,92.33,170.82,92.32z"/>
	<path class="st0" d="M131.62,91.24l-1.07-5.68c-0.01-0.07,0.04-0.15,0.11-0.16c0.02,0,0.03,0,0.05,0l4.91,0.89
		c0.06,0.01,0.1,0.06,0.11,0.11l0.99,6.03c0.01,0.08-0.04,0.15-0.11,0.16c-0.02,0-0.04,0-0.06,0l-4.84-1.24
		C131.67,91.34,131.63,91.3,131.62,91.24z"/>
	<path class="st0" d="M164.33,87.19l6.36-0.83c0.07-0.01,0.14,0.04,0.15,0.12c0,0.01,0,0.03,0,0.04l-1.05,6.11
		c-0.01,0.06-0.05,0.1-0.11,0.11l-6.14,1.06c-0.07,0.01-0.14-0.04-0.15-0.11c0-0.01,0-0.03,0-0.04l0.83-6.34
		C164.22,87.24,164.27,87.19,164.33,87.19z"/>
	<path class="st0" d="M137.05,86.52l6.4,0.78c0.1,0.01,0.19,0.09,0.2,0.2l0.72,6.17c0.01,0.12-0.07,0.24-0.2,0.25
		c-0.02,0-0.04,0-0.06,0l-6.13-0.98c-0.1-0.02-0.17-0.09-0.19-0.19l-0.99-5.96c-0.02-0.12,0.06-0.24,0.18-0.26
		C137.01,86.51,137.03,86.51,137.05,86.52z"/>
	<path class="st0" d="M162.07,94l-7.32,0.42c-0.04,0-0.08-0.03-0.08-0.07c0,0,0,0,0,0l0.11-6.4c0-0.04,0.03-0.07,0.07-0.08l7.98-0.5
		c0.04,0,0.08,0.03,0.08,0.07c0,0.01,0,0.01,0,0.02l-0.77,6.49C162.13,93.97,162.1,94,162.07,94z"/>
	<path class="st0" d="M145.08,87.44l8.07,0.45c0.06,0,0.11,0.05,0.11,0.12l-0.01,6.37c0,0.06-0.05,0.12-0.12,0.12c0,0-0.01,0-0.01,0
		l-7.33-0.43c-0.06,0-0.1-0.05-0.11-0.1l-0.73-6.4c-0.01-0.06,0.04-0.12,0.1-0.13C145.06,87.44,145.07,87.44,145.08,87.44z"/>
	<path class="st0" d="M178.83,94.42l1.35-4.03c0.01-0.03,0.03-0.05,0.06-0.07l2.14-1.19c0.06-0.03,0.14-0.01,0.17,0.05
		c0.02,0.03,0.02,0.07,0.01,0.1l-1.29,3.71c-0.01,0.03-0.03,0.05-0.05,0.06l-2.19,1.51c-0.06,0.04-0.14,0.03-0.18-0.03
		C178.83,94.5,178.82,94.45,178.83,94.42z"/>
	<path class="st0" d="M125.78,93.21l-1.31-3.68c-0.03-0.08,0.01-0.18,0.1-0.21c0.04-0.02,0.09-0.01,0.13,0.01l2.18,1.17
		c0.04,0.02,0.06,0.05,0.08,0.09l1.44,4.07c0.03,0.08-0.02,0.18-0.1,0.21c-0.05,0.02-0.1,0.01-0.14-0.02l-2.31-1.56
		C125.82,93.27,125.8,93.25,125.78,93.21z"/>
	<path class="st0" d="M174.7,96.38l1.45-4.35c0.02-0.05,0.05-0.08,0.1-0.1l3.22-1.22c0.08-0.03,0.18,0.01,0.21,0.09
		c0.01,0.04,0.01,0.08,0,0.12l-1.49,4.07c-0.01,0.04-0.04,0.07-0.08,0.09l-3.18,1.5c-0.08,0.04-0.18,0-0.22-0.08
		C174.69,96.46,174.68,96.42,174.7,96.38z"/>
	<path class="st0" d="M128.98,95.24l-1.47-4.21c-0.02-0.06,0.01-0.12,0.07-0.14c0.02-0.01,0.05-0.01,0.07,0l3.53,1.31
		c0.03,0.01,0.06,0.04,0.07,0.07l1.44,4.41c0.02,0.06-0.01,0.12-0.07,0.14c-0.03,0.01-0.05,0.01-0.08,0l-3.5-1.51
		C129.02,95.3,128.99,95.27,128.98,95.24z"/>
	<path class="st0" d="M175.38,92.57l-1.47,4.39c-0.02,0.06-0.06,0.1-0.12,0.12l-4.36,1.32c-0.1,0.03-0.2-0.02-0.23-0.12
		c-0.01-0.03-0.01-0.07,0-0.11l1.29-4.45c0.02-0.06,0.07-0.11,0.13-0.12l4.54-1.27c0.1-0.03,0.2,0.03,0.22,0.13
		C175.39,92.5,175.39,92.54,175.38,92.57z"/>
	<path class="st0" d="M132.14,92.55l4.84,1.25c0.04,0.01,0.07,0.04,0.08,0.08l1.32,4.66c0.02,0.06-0.02,0.12-0.08,0.14
		c-0.02,0.01-0.04,0.01-0.07,0l-4.73-1.39c-0.04-0.01-0.07-0.04-0.08-0.08l-1.42-4.51c-0.02-0.06,0.01-0.12,0.07-0.14
		C132.1,92.54,132.12,92.54,132.14,92.55z"/>
	<path class="st0" d="M168.04,98.79l-5.48,1.09c-0.13,0.03-0.25-0.06-0.27-0.18c-0.01-0.03-0.01-0.06,0-0.09l0.91-4.49
		c0.02-0.09,0.09-0.17,0.19-0.18l5.77-1.01c0.13-0.02,0.25,0.06,0.27,0.19c0.01,0.03,0,0.07,0,0.1l-1.2,4.41
		C168.2,98.7,168.13,98.77,168.04,98.79z"/>
	<path class="st0" d="M138.41,94.12l6.02,0.95c0.1,0.02,0.17,0.09,0.19,0.18l0.74,4.48c0.02,0.12-0.06,0.24-0.18,0.26
		c-0.03,0-0.05,0-0.08,0l-5.54-0.96c-0.09-0.01-0.16-0.08-0.18-0.16l-1.22-4.47c-0.03-0.12,0.04-0.24,0.16-0.28
		C138.35,94.11,138.38,94.11,138.41,94.12z"/>
	
		<ellipse transform="matrix(0.5417 -0.8406 0.8406 0.5417 2.594 195.1021)" class="st0" cx="180.22" cy="95.17" rx="0.78" ry="0.08"/>
	<path class="st0" d="M161.06,100.11l-6.49,0.44c-0.04,0-0.08-0.03-0.08-0.07c0,0,0,0,0-0.01l0.12-4.74c0-0.04,0.03-0.07,0.07-0.07
		l7.21-0.47c0.04,0,0.08,0.03,0.08,0.07c0,0.01,0,0.01,0,0.02l-0.84,4.78C161.12,100.08,161.09,100.1,161.06,100.11z"/>
	<path class="st0" d="M146.03,95.24l7.07,0.35c0.09,0,0.15,0.08,0.15,0.16l-0.01,4.6c0,0.09-0.07,0.16-0.16,0.16c0,0,0,0-0.01,0
		l-6.39-0.27c-0.08,0-0.14-0.06-0.15-0.14l-0.67-4.68c-0.01-0.09,0.05-0.17,0.14-0.18C146.01,95.24,146.02,95.23,146.03,95.24z"/>
	<path class="st0" d="M177.69,96.16l-1.66,3.11c-0.01,0.03-0.04,0.05-0.07,0.06l-3,1.51c-0.07,0.04-0.16,0.01-0.2-0.07
		c-0.02-0.04-0.02-0.09,0-0.13l1.46-3.05c0.01-0.03,0.04-0.05,0.07-0.07l3.21-1.57c0.07-0.04,0.16-0.01,0.2,0.07
		C177.72,96.07,177.71,96.12,177.69,96.16z"/>
	<path class="st0" d="M129.66,96.15l3.34,1.57c0.03,0.02,0.06,0.04,0.07,0.07l1.51,3.16c0.04,0.08,0,0.17-0.07,0.2
		c-0.04,0.02-0.09,0.02-0.13,0l-3.2-1.57c-0.03-0.01-0.05-0.04-0.07-0.07l-1.66-3.15c-0.04-0.07-0.01-0.17,0.06-0.21
		C129.56,96.13,129.62,96.13,129.66,96.15z"/>
	<path class="st0" d="M171.85,101.32l-4.09,1.47c-0.09,0.03-0.19-0.02-0.22-0.11c-0.01-0.04-0.01-0.08,0-0.12l1.22-3.09
		c0.02-0.05,0.06-0.08,0.11-0.1l4.34-1.47c0.09-0.03,0.19,0.02,0.22,0.11c0.01,0.04,0.01,0.09-0.01,0.13l-1.48,3.09
		C171.93,101.27,171.9,101.31,171.85,101.32z"/>
	<path class="st0" d="M134.06,98.15l4.61,1.43c0.04,0.01,0.07,0.04,0.08,0.08l1.2,3.21c0.02,0.07-0.01,0.14-0.08,0.16
		c-0.03,0.01-0.05,0.01-0.08,0l-4.26-1.4c-0.03-0.01-0.06-0.03-0.08-0.07l-1.55-3.24c-0.03-0.06,0-0.14,0.06-0.17
		C133.99,98.14,134.02,98.14,134.06,98.15z"/>
	<path class="st0" d="M166.5,103.14l-5.06,1.05c-0.08,0.02-0.15-0.03-0.17-0.11c0-0.02,0-0.04,0-0.07l0.78-3.16
		c0.01-0.05,0.06-0.1,0.11-0.11l5.47-1.08c0.08-0.01,0.15,0.04,0.17,0.11c0,0.03,0,0.05-0.01,0.08l-1.19,3.19
		C166.59,103.09,166.55,103.13,166.5,103.14z"/>
	<path class="st0" d="M139.88,99.86l5.62,1.02c0.05,0.01,0.09,0.05,0.1,0.1l0.74,3.17c0.02,0.07-0.03,0.14-0.1,0.16
		c-0.02,0-0.03,0-0.05,0l-5.21-0.95c-0.05-0.01-0.08-0.04-0.1-0.08l-1.15-3.24c-0.02-0.07,0.01-0.14,0.08-0.17
		C139.83,99.86,139.86,99.86,139.88,99.86z"/>
	<path class="st0" d="M160.15,104.39l-5.74,0.39c-0.04,0-0.08-0.03-0.08-0.07c0,0,0-0.01,0-0.01l0.15-3.25
		c0-0.04,0.03-0.07,0.07-0.08l6.34-0.43c0.04,0,0.08,0.03,0.08,0.07c0,0.01,0,0.01,0,0.02l-0.75,3.29
		C160.21,104.36,160.18,104.39,160.15,104.39z"/>
	<path class="st0" d="M146.84,101.05l6.37,0.31c0.04,0,0.07,0.04,0.08,0.08l0.03,3.25c0,0.04-0.04,0.08-0.08,0.08c0,0,0,0-0.01,0
		l-5.77-0.26c-0.04,0-0.07-0.03-0.08-0.07l-0.62-3.29c-0.01-0.04,0.02-0.09,0.06-0.09C146.83,101.05,146.83,101.05,146.84,101.05z"
		/>
	<path class="st0" d="M169.84,104.29l-3.68,1.29c-0.07,0.03-0.14-0.01-0.17-0.08c-0.01-0.04-0.01-0.08,0.01-0.11l1.02-1.89
		c0.02-0.03,0.04-0.05,0.07-0.06l4.17-1.47c0.07-0.03,0.14,0.01,0.17,0.08c0.02,0.04,0.01,0.09-0.02,0.12l-1.51,2.07
		C169.89,104.26,169.86,104.28,169.84,104.29z"/>
	<path class="st0" d="M136.13,102.27l4.17,1.36c0.03,0.01,0.06,0.03,0.07,0.06l1.09,2c0.03,0.06,0.01,0.13-0.05,0.17
		c-0.03,0.02-0.06,0.02-0.09,0.01l-3.89-1.29c-0.03-0.01-0.05-0.03-0.07-0.05l-1.37-2.07c-0.04-0.06-0.02-0.13,0.03-0.17
		C136.05,102.26,136.09,102.26,136.13,102.27z"/>
	<path class="st0" d="M164.89,106.04l-4.26,0.86c-0.12,0.03-0.24-0.05-0.27-0.18c-0.01-0.04-0.01-0.09,0.01-0.13l0.64-1.71
		c0.03-0.07,0.09-0.13,0.16-0.14l4.76-1.05c0.12-0.03,0.24,0.05,0.27,0.17c0.01,0.06,0,0.12-0.03,0.17l-1.14,1.9
		C165.01,105.99,164.95,106.02,164.89,106.04z"/>
	<path class="st0" d="M141.33,103.89l5.14,0.98c0.03,0.01,0.06,0.03,0.07,0.06l0.65,2c0.02,0.05-0.01,0.1-0.06,0.12
		c-0.01,0-0.03,0.01-0.04,0l-4.67-0.87c-0.03,0-0.05-0.02-0.07-0.05l-1.13-2.12c-0.02-0.04-0.01-0.1,0.04-0.12
		C141.28,103.89,141.3,103.89,141.33,103.89z"/>
	<path class="st0" d="M159.23,107.15l-4.86,0.35c-0.09,0.01-0.17-0.06-0.17-0.15c0-0.01,0-0.01,0-0.02l0.09-1.87
		c0-0.08,0.07-0.15,0.15-0.15l5.41-0.4c0.09-0.01,0.17,0.06,0.18,0.15c0,0.02,0,0.04-0.01,0.06l-0.65,1.92
		C159.35,107.1,159.3,107.15,159.23,107.15z"/>
	<path class="st0" d="M147.7,105l5.47,0.31c0.08,0.01,0.15,0.07,0.15,0.16l-0.02,1.87c0,0.09-0.07,0.16-0.16,0.16c0,0,0,0-0.01,0
		l-4.88-0.24c-0.07,0-0.12-0.05-0.14-0.11l-0.57-1.93c-0.02-0.08,0.02-0.17,0.11-0.19C147.67,105,147.68,105,147.7,105z"/>
	<path class="st0" d="M163.49,107.72l-3.88,0.82c-0.06,0.01-0.12-0.03-0.14-0.09c-0.01-0.03,0-0.06,0.01-0.08l0.58-1.04
		c0.02-0.03,0.05-0.05,0.08-0.06l4.3-0.85c0.06-0.01,0.12,0.03,0.14,0.09c0.01,0.04,0,0.07-0.03,0.1l-1.01,1.07
		C163.54,107.7,163.52,107.71,163.49,107.72z"/>
	<path class="st0" d="M143.05,106.58l4.23,0.78c0.06,0.01,0.1,0.05,0.13,0.1l0.48,0.95c0.04,0.09,0.01,0.2-0.08,0.24
		c-0.04,0.02-0.08,0.02-0.12,0.02l-3.96-0.84c-0.04-0.01-0.08-0.03-0.1-0.06l-0.75-0.89c-0.06-0.08-0.05-0.19,0.02-0.26
		C142.94,106.58,142.99,106.57,143.05,106.58z"/>
	<path class="st0" d="M158.51,108.69l-4.23,0.32c-0.09,0.01-0.16-0.06-0.17-0.14c0-0.01,0-0.02,0-0.02l0.05-0.93
		c0-0.08,0.07-0.14,0.15-0.15l4.73-0.3c0.09-0.01,0.16,0.06,0.16,0.14c0,0.03-0.01,0.06-0.02,0.09l-0.55,0.91
		C158.61,108.66,158.56,108.69,158.51,108.69z"/>
	<path class="st0" d="M148.44,107.56l4.8,0.25c0.07,0,0.12,0.06,0.12,0.13l-0.03,0.98c0,0.07-0.06,0.12-0.13,0.12c0,0,0,0,0,0
		l-4.32-0.26c-0.05,0-0.09-0.03-0.11-0.07l-0.44-0.97c-0.03-0.06,0-0.14,0.06-0.16C148.4,107.56,148.42,107.56,148.44,107.56z"/>
	<path class="st0" d="M19.25,118.3l-2.75,8.11c-0.01,0.03-0.04,0.06-0.08,0.06l-0.88,0.02c-0.04,0-0.07-0.02-0.08-0.06l-3.53-10.3
		c-0.01-0.04,0.01-0.09,0.05-0.1c0.01,0,0.02,0,0.03,0l1.18,0.01c0.04,0,0.07,0.02,0.08,0.06l2.62,7.78
		c0.01,0.04,0.06,0.07,0.1,0.05c0.03-0.01,0.05-0.03,0.05-0.05l2.69-7.8c0.01-0.03,0.04-0.06,0.08-0.06l1.09,0.02
		c0.03,0,0.07,0.02,0.08,0.05l2.68,7.74c0.02,0.04,0.06,0.06,0.11,0.05c0.02-0.01,0.04-0.03,0.05-0.05l2.63-7.76
		c0.01-0.03,0.04-0.06,0.08-0.06l1.15,0.02c0.05,0,0.08,0.04,0.08,0.08c0,0.01,0,0.02,0,0.03l-3.53,10.27
		c-0.01,0.03-0.04,0.06-0.08,0.06l-0.87,0.02c-0.04,0-0.07-0.02-0.08-0.06l-2.79-8.14c-0.02-0.04-0.06-0.06-0.11-0.05
		C19.28,118.26,19.26,118.28,19.25,118.3z"/>
	<path class="st0" d="M108.43,123.78c-0.03-0.06-0.08-0.09-0.15-0.09h-5.75c-0.13,0-0.24,0.07-0.3,0.18l-1.21,2.34
		c-0.09,0.17-0.22,0.25-0.41,0.26l-0.91,0.03c-0.2,0.01-0.26-0.08-0.16-0.26l5.04-9.82c0.22-0.42,0.74-0.59,1.16-0.38
		c0.16,0.08,0.29,0.21,0.37,0.37l5.18,9.98c0.01,0.03,0,0.06-0.02,0.08c-0.01,0-0.02,0.01-0.03,0.01h-1.27
		c-0.07,0-0.13-0.03-0.16-0.1L108.43,123.78z M103.02,122.32c-0.02,0.04-0.01,0.1,0.04,0.12c0.01,0.01,0.03,0.01,0.04,0.01
		l4.52-0.01c0.05,0,0.09-0.04,0.09-0.09c0-0.01,0-0.03-0.01-0.04l-2.26-4.3c-0.02-0.05-0.08-0.06-0.12-0.04
		c-0.02,0.01-0.03,0.02-0.04,0.04L103.02,122.32z"/>
	<path class="st0" d="M32.93,126.71h-1.75c-0.95-0.14-1.79-0.47-2.54-1.01c-1.99-1.42-2.34-4.11-0.69-5.94
		c2.33-2.56,7.87-2.09,9.16,1.46c0.27,0.75,0.29,1.53,0.04,2.33C36.59,125.41,34.81,126.48,32.93,126.71z M35.96,122.45
		c0-1.72-1.72-3.11-3.85-3.11c-2.13,0-3.85,1.39-3.85,3.11s1.72,3.11,3.85,3.11C34.23,125.56,35.96,124.17,35.96,122.45z"/>
	<path class="st0" d="M75.53,121.02l0,5.31c0,0.1-0.05,0.15-0.15,0.15l-1.04,0c-0.08,0-0.12-0.04-0.12-0.12l0-7.75
		c0-0.14,0.07-0.21,0.21-0.22c0.32-0.01,0.58,0.09,0.78,0.3c1.63,1.75,3.26,3.47,4.87,5.15c0.15,0.16,0.23,0.13,0.23-0.09
		l-0.01-5.27c0-0.05,0.04-0.08,0.08-0.08l0,0l1.09,0.02c0.09,0,0.13,0.05,0.13,0.14v7.73c0,0.08-0.04,0.13-0.11,0.16
		c-0.31,0.12-0.53,0.11-0.68-0.05c-1.73-1.83-3.45-3.63-5.17-5.43C75.58,120.88,75.53,120.9,75.53,121.02z"/>
	<path class="st0" d="M84.08,118.55c0-0.09,0.07-0.16,0.16-0.16l0,0l3.93,0.01c2.39,0.01,4.32,1.79,4.31,3.98v0.16
		c-0.01,2.19-1.95,3.95-4.34,3.95c0,0,0,0,0,0l-3.93-0.01c-0.09,0-0.16-0.07-0.16-0.16L84.08,118.55z M85.4,119.71l0.01,5.46
		c0,0.08,0.06,0.14,0.14,0.14l0,0l2.58,0c1.62,0,2.93-1.22,2.92-2.71v-0.32c0-1.5-1.32-2.71-2.93-2.7c0,0,0,0,0,0l-2.58,0
		C85.46,119.57,85.4,119.64,85.4,119.71z"/>
	<path class="st0" d="M112.32,118.66c0-0.16,0.13-0.28,0.28-0.28l3.78-0.01c2.41,0,4.36,1.71,4.37,3.83c0,0,0,0,0,0v0.45
		c0,2.12-1.95,3.84-4.35,3.85l-3.78,0.01c-0.16,0-0.28-0.13-0.28-0.28L112.32,118.66z M113.69,119.83l0.03,5.22
		c0,0.14,0.12,0.26,0.26,0.26l0,0l2.38-0.01c1.67-0.01,3.01-1.22,3.01-2.7v-0.37c-0.01-1.48-1.37-2.68-3.04-2.67c0,0,0,0,0,0
		l-2.38,0.01C113.81,119.57,113.69,119.69,113.69,119.83L113.69,119.83z"/>
	<path class="st0" d="M125.45,124.35l3-5.79c0.06-0.11,0.15-0.17,0.28-0.17l1.08,0.02c0.12,0,0.15,0.06,0.09,0.16l-4.02,7.66
		c-0.14,0.26-0.47,0.36-0.73,0.22c-0.1-0.05-0.17-0.13-0.22-0.22l-4.01-7.63c-0.04-0.08-0.01-0.17,0.06-0.21
		c0.02-0.01,0.05-0.02,0.08-0.02l0.9,0.03c0.18,0,0.3,0.08,0.39,0.24l3,5.7c0.02,0.03,0.05,0.04,0.08,0.02
		C125.43,124.37,125.44,124.36,125.45,124.35z"/>
	<path class="st0" d="M132.65,125.32l6.69-0.01c0.08,0,0.14,0.06,0.14,0.14l0.01,0.88c0,0.08-0.06,0.14-0.14,0.15c0,0,0,0,0,0
		l-8.05,0c-0.08,0-0.14-0.06-0.14-0.14l0-7.78c0-0.08,0.06-0.14,0.14-0.14l7.69-0.01c0.08,0,0.14,0.06,0.14,0.14l0,0.92
		c0,0.08-0.06,0.14-0.14,0.14l-6.34,0c-0.08,0-0.14,0.06-0.14,0.14v0v1.72c0,0.08,0.06,0.14,0.14,0.14l0,0l4.08,0.01
		c0.08,0,0.14,0.06,0.14,0.14l0,0.87c0,0.08-0.06,0.14-0.14,0.14l0,0l-4.09,0.01c-0.08,0-0.14,0.06-0.14,0.14l0.02,2.26
		C132.51,125.26,132.57,125.32,132.65,125.32z"/>
	<path class="st0" d="M147.02,123.86l0-5.36c0-0.07,0.03-0.11,0.1-0.1l1.08,0.01c0.08,0,0.13,0.04,0.13,0.13l0,7.76
		c0,0.1-0.05,0.16-0.15,0.18c-0.3,0.05-0.55-0.01-0.78-0.24c-1.64-1.71-3.28-3.45-4.93-5.19c-0.15-0.16-0.23-0.13-0.23,0.09v5.21
		c0,0.09-0.05,0.14-0.14,0.14l-1.03,0c-0.08,0-0.12-0.04-0.12-0.12l0-7.69c0-0.13,0.09-0.25,0.22-0.28
		c0.28-0.07,0.56,0.11,0.77,0.33c1.63,1.75,3.28,3.49,4.96,5.2C146.98,124,147.02,123.98,147.02,123.86z"/>
	<path class="st0" d="M152.67,119.54l-3.33-0.01c-0.07,0-0.13-0.06-0.13-0.13l0-0.87c0-0.07,0.06-0.13,0.13-0.13h8.24
		c0.07,0,0.13,0.06,0.13,0.13l0,0.88c0,0.07-0.06,0.13-0.13,0.13l-3.35,0c-0.07,0-0.13,0.06-0.13,0.13v6.68
		c0,0.07-0.06,0.13-0.13,0.13l0,0l-1.04,0c-0.07,0-0.13-0.06-0.13-0.13v0l0-6.67C152.8,119.6,152.74,119.54,152.67,119.54
		L152.67,119.54z"/>
	<path class="st0" d="M188.08,125.34v1.13l-7.99,0.01c-0.09,0-0.14-0.05-0.14-0.14l0-7.8c0-0.1,0.05-0.15,0.15-0.15l7.53,0.03
		c0.13,0,0.23,0.1,0.24,0.23l0.04,0.7c0.01,0.15-0.06,0.23-0.21,0.23l-6.3,0.02c-0.08,0-0.15,0.07-0.15,0.15c0,0,0,0,0,0l0.02,1.7
		c0,0.1,0.05,0.15,0.15,0.15l4.01,0.01c0.14,0,0.21,0.07,0.21,0.22l-0.03,0.76c0,0.12-0.07,0.18-0.19,0.18l-4.01,0
		c-0.08,0-0.14,0.06-0.14,0.14l0,2.23c0,0.1,0.08,0.18,0.18,0.18L188.08,125.34z"/>
	<path class="st0" d="M40.34,123.08v3.27c0,0.08-0.04,0.12-0.12,0.12l-1.05,0c-0.09,0-0.14-0.05-0.14-0.14l-0.02-7.78
		c0-0.08,0.04-0.12,0.12-0.12c1.98-0.02,3.96-0.02,5.92,0.01c3.16,0.05,3.49,3.86,0.63,4.47c-0.06,0.01-0.09,0.07-0.08,0.12
		c0,0.01,0.01,0.03,0.02,0.04l2.12,3.17c0.1,0.15,0.06,0.23-0.12,0.23l-0.91,0.01c-0.17,0-0.31-0.07-0.4-0.21l-2.17-3.21
		c-0.05-0.07-0.12-0.11-0.21-0.11h-3.46C40.38,122.96,40.34,123,40.34,123.08z M40.33,119.78v1.81c0,0.11,0.09,0.2,0.2,0.2h0h4.44
		c0.7,0,1.27-0.44,1.27-0.99c0,0,0,0,0,0v-0.23c0-0.55-0.57-0.99-1.27-0.99h-4.44C40.42,119.57,40.33,119.66,40.33,119.78z"/>
	<path class="st0" d="M50.92,121.87c0,0.04,0.03,0.07,0.07,0.07c0.02,0,0.03-0.01,0.04-0.02c1.26-1.05,2.53-2.08,3.82-3.09
		c0.67-0.53,1.3-0.52,2.08-0.38c0.04,0.01,0.07,0.05,0.07,0.1c0,0.02-0.01,0.04-0.03,0.05l-3.19,2.55c-0.1,0.08-0.12,0.23-0.04,0.33
		c0,0,0,0,0,0l3.79,4.76c0.15,0.19,0.11,0.29-0.14,0.29l-0.86,0c-0.23,0-0.42-0.09-0.56-0.28l-3.25-4.11
		c-0.05-0.06-0.1-0.07-0.16-0.02L51,123.36c-0.05,0.04-0.08,0.1-0.08,0.15l0,2.84c0,0.08-0.04,0.13-0.13,0.13l-1.08,0
		c-0.09,0-0.13-0.04-0.13-0.13l0-7.8c0-0.08,0.04-0.13,0.13-0.13h1.09c0.08,0,0.12,0.04,0.12,0.12V121.87z"/>
	<path class="st0" d="M70.89,124.46c-0.01-0.03-0.04-0.04-0.07-0.04l-4.28,0c-0.1,0-0.17,0.04-0.22,0.13l-0.86,1.69
		c-0.08,0.16-0.21,0.24-0.39,0.24l-0.89,0.01c-0.19,0-0.24-0.08-0.15-0.24l4.04-7.56c0.17-0.31,0.55-0.43,0.86-0.26
		c0.11,0.06,0.2,0.15,0.26,0.26l4.09,7.62c0.03,0.06,0.01,0.14-0.05,0.17c-0.02,0.01-0.04,0.01-0.06,0.01l-1.02,0
		c-0.14,0-0.23-0.06-0.3-0.18L70.89,124.46z M67.06,123.23c-0.03,0.05-0.01,0.1,0.04,0.13c0.01,0.01,0.03,0.01,0.05,0.01h3
		c0.05,0,0.09-0.04,0.09-0.09c0-0.02,0-0.03-0.01-0.05l-1.5-2.81c-0.03-0.05-0.08-0.06-0.13-0.04c-0.02,0.01-0.03,0.02-0.04,0.04
		L67.06,123.23z"/>
	<path class="st0" d="M163.66,126.71h-1.93c-1.76-0.28-3.13-0.59-3.16-2.72c-0.02-1.85-0.03-3.66-0.03-5.44
		c0-0.09,0.04-0.13,0.13-0.13l1.07,0c0.07,0,0.14,0.06,0.14,0.14c0,0,0,0,0,0c0,1.68,0,3.39,0.01,5.12
		c0.01,1.23,0.44,1.64,1.65,1.81c1.33,0.18,4.01,0.38,4.04-1.62c0.03-1.8,0.04-3.55,0.02-5.27c0-0.1,0.08-0.19,0.19-0.19
		c0,0,0,0,0,0l0.98,0.02c0.12,0,0.17,0.06,0.17,0.18c-0.01,1.74-0.03,3.51-0.03,5.32C166.91,126.13,165.47,126.43,163.66,126.71z"/>
	<path class="st0" d="M176.02,123.1l2.12,3.17c0.09,0.14,0.06,0.21-0.11,0.21l-0.91,0.01c-0.19,0-0.34-0.08-0.45-0.24l-2.18-3.21
		c-0.04-0.05-0.09-0.08-0.15-0.08h-3.43c-0.1,0-0.18,0.08-0.18,0.17l-0.01,3.21c0,0.08-0.04,0.12-0.13,0.12h-1.09
		c-0.08,0-0.12-0.04-0.12-0.12l-0.01-7.81c0-0.06,0.05-0.12,0.12-0.12c1.98,0,3.96,0,5.93,0c3.09,0,3.54,3.77,0.66,4.49
		C175.98,122.94,175.95,123.01,176.02,123.1z M170.72,119.81l0.01,1.77c0,0.12,0.1,0.23,0.23,0.23l4.38-0.02
		c0.72,0,1.3-0.47,1.3-1.05v-0.13c0-0.58-0.59-1.05-1.31-1.04c0,0,0,0,0,0l-4.38,0.02C170.82,119.58,170.72,119.69,170.72,119.81z"
		/>
</g>
</svg>
