<?xml version="1.0" encoding="utf-8"?>
<!-- Generator: Adobe Illustrator 28.1.0, SVG Export Plug-In . SVG Version: 6.00 Build 0)  -->
<svg version="1.1" id="Capa_1" xmlns="http://www.w3.org/2000/svg" xmlns:xlink="http://www.w3.org/1999/xlink" x="0px" y="0px"
	 viewBox="0 0 300 170" style="enable-background:new 0 0 300 170;" xml:space="preserve">
<style type="text/css">
	.st0{fill:#BFBFBF;}
</style>
<g>
	<path class="st0" d="M220.93,111c-0.96,0-1.85-0.18-2.66-0.54c-0.81-0.36-1.52-0.85-2.12-1.48c-0.6-0.63-1.07-1.37-1.4-2.23
		c-0.33-0.86-0.5-1.79-0.5-2.78c0-1.01,0.17-1.93,0.5-2.77c0.33-0.83,0.8-1.54,1.4-2.13c0.6-0.59,1.31-1.04,2.12-1.36
		c0.81-0.32,1.7-0.48,2.66-0.48h56.05v2.41h-56.05c-0.62,0-1.19,0.11-1.71,0.33c-0.52,0.22-0.98,0.53-1.35,0.92
		c-0.38,0.39-0.68,0.86-0.89,1.4c-0.21,0.54-0.32,1.14-0.32,1.8c0,0.64,0.11,1.24,0.32,1.8c0.21,0.56,0.51,1.03,0.89,1.43
		c0.38,0.4,0.83,0.71,1.35,0.94c0.52,0.23,1.1,0.34,1.71,0.34h5.89v-3.58h-6.21v-2.03h8.64V111H220.93z"/>
	<path class="st0" d="M240.18,111l-2.39-2.62h-3.53v-1.45h3.94c0.6,0,1.05-0.16,1.35-0.49c0.3-0.32,0.45-0.79,0.45-1.41
		c0-0.61-0.16-1.07-0.47-1.37c-0.32-0.3-0.76-0.45-1.33-0.45h-5.14V111h-1.64v-9.44h6.78c0.54,0,1.02,0.08,1.44,0.24
		c0.42,0.16,0.78,0.39,1.08,0.69c0.29,0.3,0.52,0.66,0.68,1.08c0.16,0.42,0.23,0.9,0.23,1.43c0,0.79-0.17,1.45-0.51,1.98
		c-0.34,0.53-0.82,0.92-1.44,1.15l2.84,2.87H240.18z"/>
	<path class="st0" d="M247.47,111c-0.66,0-1.27-0.12-1.83-0.37c-0.56-0.25-1.04-0.58-1.46-1.01c-0.41-0.43-0.73-0.94-0.96-1.53
		c-0.23-0.59-0.34-1.23-0.34-1.91c0-0.69,0.11-1.33,0.34-1.9c0.23-0.57,0.55-1.06,0.96-1.46c0.41-0.4,0.9-0.71,1.46-0.94
		c0.56-0.22,1.17-0.33,1.83-0.33h2.3c0.68,0,1.31,0.11,1.88,0.34c0.57,0.23,1.05,0.54,1.46,0.95c0.41,0.41,0.72,0.89,0.95,1.46
		c0.22,0.57,0.34,1.19,0.34,1.88c0,0.68-0.12,1.32-0.34,1.91c-0.23,0.59-0.55,1.1-0.96,1.53c-0.41,0.43-0.9,0.77-1.46,1.01
		c-0.56,0.25-1.18,0.37-1.86,0.37H247.47z M249.76,109.35c0.43,0,0.83-0.08,1.2-0.23c0.36-0.16,0.68-0.37,0.94-0.64
		c0.26-0.27,0.47-0.6,0.62-0.98c0.15-0.38,0.22-0.79,0.22-1.23c0-0.44-0.07-0.85-0.22-1.23c-0.15-0.38-0.35-0.7-0.62-0.97
		c-0.26-0.27-0.58-0.48-0.94-0.63c-0.36-0.15-0.76-0.23-1.2-0.23h-2.3c-0.42,0-0.82,0.08-1.18,0.23c-0.36,0.15-0.67,0.36-0.93,0.63
		c-0.26,0.27-0.46,0.59-0.61,0.96c-0.15,0.37-0.22,0.78-0.22,1.23c0,0.44,0.07,0.85,0.22,1.23c0.15,0.38,0.35,0.71,0.61,0.98
		c0.26,0.27,0.57,0.49,0.93,0.64c0.36,0.16,0.75,0.23,1.18,0.23H249.76z"/>
	<path class="st0" d="M264.17,101.56h1.61v5.27c0,0.73-0.1,1.36-0.29,1.9c-0.19,0.54-0.49,0.99-0.9,1.34
		c-0.41,0.36-0.93,0.62-1.58,0.79c-0.65,0.17-1.43,0.26-2.34,0.26c-0.91,0-1.69-0.09-2.33-0.26c-0.64-0.17-1.17-0.44-1.58-0.79
		c-0.41-0.35-0.71-0.8-0.9-1.34c-0.19-0.54-0.29-1.18-0.29-1.9v-5.27h1.7v5.27c0,0.48,0.06,0.88,0.18,1.22
		c0.12,0.34,0.31,0.62,0.57,0.83c0.26,0.22,0.62,0.37,1.06,0.47c0.44,0.1,0.99,0.15,1.64,0.15c0.65,0,1.2-0.05,1.64-0.15
		c0.44-0.1,0.79-0.26,1.06-0.47c0.26-0.22,0.45-0.49,0.57-0.83c0.12-0.34,0.18-0.74,0.18-1.22V101.56z"/>
	<path class="st0" d="M270.12,108.38v-1.6h3.79c0.58,0,1.03-0.16,1.36-0.49c0.32-0.33,0.49-0.76,0.49-1.3c0-0.55-0.16-0.98-0.49-1.3
		c-0.33-0.32-0.78-0.48-1.36-0.48h-5V111h-1.64v-9.44h6.64c0.55,0,1.03,0.08,1.46,0.24c0.43,0.16,0.79,0.39,1.09,0.68
		c0.29,0.29,0.52,0.64,0.67,1.06c0.16,0.42,0.23,0.88,0.23,1.4c0,0.51-0.08,0.98-0.23,1.4c-0.16,0.42-0.38,0.78-0.67,1.08
		c-0.29,0.3-0.66,0.54-1.09,0.71s-0.92,0.25-1.46,0.25H270.12z"/>
	<g>
		<path class="st0" d="M12.36,88.71v-5.14h22.06c1.38,0,2.44-0.35,3.18-1.05c0.74-0.7,1.11-1.63,1.11-2.79
			c0-1.27-0.37-2.22-1.11-2.85c-0.74-0.63-1.8-0.95-3.18-0.95H20.9c-1.38,0-2.63-0.21-3.74-0.63c-1.12-0.42-2.06-1-2.83-1.74
			c-0.77-0.74-1.36-1.63-1.78-2.65c-0.42-1.03-0.63-2.15-0.63-3.36c0-1.19,0.2-2.29,0.59-3.3c0.39-1.01,0.97-1.88,1.74-2.61
			c0.77-0.73,1.72-1.3,2.85-1.72c1.13-0.42,2.43-0.63,3.89-0.63h21.13v5.14H20.98c-1.19,0-2.11,0.32-2.75,0.95
			c-0.65,0.63-0.97,1.52-0.97,2.65c0,1.13,0.33,2.01,0.99,2.63c0.66,0.62,1.56,0.93,2.69,0.93h13.48c3,0,5.27,0.7,6.82,2.11
			c1.55,1.4,2.33,3.54,2.33,6.4c0,1.24-0.19,2.39-0.57,3.44c-0.38,1.05-0.95,1.96-1.7,2.73c-0.76,0.77-1.71,1.37-2.85,1.8
			c-1.15,0.43-2.49,0.65-4.03,0.65H12.36z"/>
		<path class="st0" d="M76.81,88.71l-4.41-7.41H58.47l2.43-4.17h9.03l-6.56-11.01L50.01,88.71h-5.87l16.92-28.18
			c0.3-0.51,0.65-0.92,1.05-1.21c0.4-0.3,0.89-0.45,1.46-0.45c0.57,0,1.05,0.15,1.44,0.45c0.39,0.3,0.74,0.7,1.03,1.21L83,88.71
			H76.81z"/>
		<path class="st0" d="M86.12,88.71V59.27h21.54c1.43,0,2.73,0.16,3.91,0.49c1.17,0.32,2.18,0.8,3.02,1.44
			c0.84,0.63,1.48,1.43,1.94,2.39c0.46,0.96,0.69,2.06,0.69,3.3c0,0.95-0.11,1.77-0.32,2.47c-0.22,0.7-0.51,1.3-0.89,1.8
			c-0.38,0.5-0.82,0.92-1.32,1.26c-0.5,0.34-1.02,0.59-1.56,0.75c1.35,0.43,2.46,1.21,3.32,2.35c0.86,1.13,1.3,2.56,1.3,4.29
			c0,1.35-0.22,2.57-0.67,3.66c-0.45,1.09-1.08,2.03-1.9,2.81c-0.82,0.78-1.82,1.38-3,1.8c-1.17,0.42-2.48,0.63-3.91,0.63H86.12z
			 M94.98,75.91v-4.33h12.71c1.46,0,2.54-0.27,3.24-0.81c0.7-0.54,1.05-1.46,1.05-2.75c0-0.78-0.15-1.41-0.45-1.88
			c-0.3-0.47-0.72-0.84-1.28-1.09c-0.55-0.26-1.21-0.43-1.98-0.51c-0.77-0.08-1.63-0.12-2.57-0.12H91.26V83.6h14.9
			c0.92,0,1.77-0.07,2.55-0.2c0.78-0.13,1.46-0.36,2.02-0.67c0.57-0.31,1.01-0.71,1.32-1.19c0.31-0.49,0.47-1.09,0.47-1.82
			c0-1.21-0.38-2.15-1.13-2.81c-0.76-0.66-1.86-0.99-3.32-0.99H94.98z"/>
		<path class="st0" d="M122.23,88.71V59.27h26.27v5.14h-21.17v19.15h21.21v5.14H122.23z M131.09,75.91v-4.33h16.31v4.33H131.09z"/>
		<path class="st0" d="M166.4,88.71c-2.05,0-3.95-0.38-5.69-1.15c-1.74-0.77-3.25-1.82-4.54-3.16c-1.28-1.34-2.28-2.92-2.99-4.76
			c-0.72-1.83-1.07-3.82-1.07-5.95c0-2.16,0.36-4.13,1.07-5.91c0.71-1.78,1.71-3.3,2.99-4.55c1.28-1.25,2.79-2.23,4.54-2.91
			c1.74-0.69,3.64-1.03,5.69-1.03h15.95v5.14H166.4c-1.32,0-2.54,0.24-3.66,0.71c-1.12,0.47-2.08,1.13-2.89,1.96
			c-0.81,0.84-1.44,1.84-1.9,3c-0.46,1.16-0.69,2.44-0.69,3.85c0,1.38,0.23,2.66,0.69,3.85c0.46,1.19,1.09,2.21,1.9,3.06
			c0.81,0.85,1.77,1.52,2.89,2c1.12,0.49,2.34,0.73,3.66,0.73h15.95v5.14H166.4z"/>
		<path class="st0" d="M199.96,88.71c-2.05,0-3.95-0.38-5.69-1.15c-1.74-0.77-3.25-1.82-4.53-3.16c-1.28-1.34-2.28-2.92-3-4.76
			c-0.72-1.83-1.07-3.82-1.07-5.95c0-2.16,0.36-4.13,1.07-5.91c0.71-1.78,1.71-3.3,3-4.55c1.28-1.25,2.79-2.23,4.53-2.91
			c1.74-0.69,3.64-1.03,5.69-1.03h7.17c2.13,0,4.08,0.35,5.85,1.05c1.77,0.7,3.29,1.69,4.55,2.96c1.27,1.27,2.25,2.79,2.96,4.55
			c0.7,1.77,1.05,3.72,1.05,5.85c0,2.13-0.36,4.12-1.07,5.95c-0.72,1.84-1.71,3.42-3,4.76s-2.8,2.39-4.55,3.16
			c-1.75,0.77-3.68,1.15-5.79,1.15H199.96z M207.12,83.56c1.35,0,2.59-0.24,3.72-0.73c1.13-0.49,2.11-1.15,2.94-2
			c0.82-0.85,1.46-1.87,1.92-3.06c0.46-1.19,0.69-2.47,0.69-3.85s-0.23-2.65-0.69-3.83c-0.46-1.17-1.1-2.18-1.92-3.02
			c-0.82-0.84-1.8-1.49-2.94-1.96c-1.13-0.47-2.38-0.71-3.72-0.71h-7.17c-1.32,0-2.54,0.24-3.66,0.71
			c-1.12,0.47-2.08,1.13-2.89,1.96c-0.81,0.84-1.44,1.84-1.9,3c-0.46,1.16-0.69,2.44-0.69,3.85c0,1.38,0.23,2.66,0.69,3.85
			c0.46,1.19,1.09,2.21,1.9,3.06c0.81,0.85,1.77,1.52,2.89,2c1.12,0.49,2.34,0.73,3.66,0.73H207.12z"/>
		<path class="st0" d="M253.03,88.71l-7.45-8.18h-11.01v-4.53h12.27c1.86,0,3.27-0.51,4.21-1.52c0.94-1.01,1.42-2.48,1.42-4.39
			c0-1.92-0.49-3.34-1.48-4.27c-0.99-0.93-2.37-1.4-4.15-1.4H230.8v24.29h-5.1V59.27h21.13c1.67,0,3.17,0.25,4.49,0.75
			c1.32,0.5,2.44,1.21,3.36,2.15c0.92,0.93,1.62,2.06,2.11,3.38c0.49,1.32,0.73,2.81,0.73,4.45c0,2.46-0.53,4.51-1.6,6.17
			c-1.07,1.66-2.56,2.85-4.47,3.58l8.87,8.95H253.03z"/>
		<path class="st0" d="M271.77,88.71V64.42H260.6v-5.14h27.49v5.14h-11.17v24.29H271.77z"/>
	</g>
</g>
</svg>
