<?xml version="1.0" encoding="utf-8"?>
<!-- Generator: Adobe Illustrator 28.1.0, SVG Export Plug-In . SVG Version: 6.00 Build 0)  -->
<svg version="1.1" id="Capa_1" xmlns="http://www.w3.org/2000/svg" xmlns:xlink="http://www.w3.org/1999/xlink" x="0px" y="0px"
	 viewBox="0 0 100 170" style="enable-background:new 0 0 100 170;" xml:space="preserve">
<style type="text/css">
	.st0{fill:#BFBFBF;}
</style>
<g>
	<g>
		<path vector-effect="non-scaling-stroke" class="st0" d="M35.45,47.96l-12.87,0c-0.03,0-0.05,0.02-0.05,0.05l0,32.04
			c0,0.04,0.03,0.08,0.08,0.08l0,0l28.71-0.07c0.07,0,0.13,0.06,0.13,0.13c0,0,0,0,0,0l-0.02,12.34c0,0.05-0.02,0.07-0.07,0.07H39.8
			c-0.04,0-0.08-0.04-0.08-0.08l0,0l0-7.82c0-0.03-0.03-0.06-0.06-0.06l-4.14,0c-0.03,0-0.05,0.02-0.05,0.05l0,12.1
			c0,0.07,0.06,0.13,0.13,0.13l0,0l15.79,0c0.02,0,0.03,0.01,0.03,0.03l0,0l0,3.3c0,0.03-0.02,0.05-0.05,0.05l-23.17-0.05
			c-0.05,0-0.08-0.04-0.08-0.09L28.14,91c0-0.11-0.04-0.22-0.13-0.3c-1.69-1.68-3.38-3.36-5.05-5.02c-0.15-0.15-0.25-0.31-0.35-0.48
			c-0.06-0.1-0.09-0.09-0.09,0.03l0,20.7c0,0.06,0.03,0.09,0.09,0.09l34.38,0c0.02,0,0.04-0.02,0.04-0.04c0,0,0,0,0,0l0-9.02
			c0-0.02,0.01-0.03,0.03-0.03h9.34c0.03,0,0.06-0.03,0.06-0.06c0-0.01,0-0.02-0.01-0.03l-2.43-4.15c-0.03-0.05-0.09-0.08-0.15-0.08
			l-6.85,0c-0.05,0-0.08-0.03-0.08-0.08l0-12.28c0-0.03-0.01-0.06-0.02-0.09l-3.37-5.74c-0.03-0.04-0.07-0.07-0.13-0.07H28.1
			c-0.05,0-0.07-0.02-0.07-0.07l0.16-20.6c0-0.08,0.04-0.12,0.12-0.12l7.14,0c0.03,0,0.06,0.03,0.06,0.06l0,0l0,17.31
			c0,0.05,0.04,0.09,0.09,0.09l16.05,0c0.03,0,0.06-0.03,0.06-0.06c0-0.01,0-0.02-0.01-0.03l-2.44-4.17c-0.04-0.07-0.1-0.1-0.17-0.1
			l-9.25,0c-0.04,0-0.07-0.03-0.07-0.07l-0.04-12.93c0-0.06,0.04-0.1,0.1-0.1c0,0,0,0,0,0l1.6,0c0.03,0,0.05-0.02,0.05-0.05
			c0-0.01,0-0.02-0.01-0.03c-0.95-1.56-1.88-3.13-2.78-4.71c-0.87-1.51-1.74-3.02-2.63-4.52c-0.16-0.28-0.29-0.58-0.43-0.88
			c-0.08-0.16-0.12-0.15-0.12,0.03l0.01,4.49C35.52,47.94,35.49,47.96,35.45,47.96"/>
		<path vector-effect="non-scaling-stroke" class="st0" d="M68.71,52.07c0.07,3.22,0.09,6.45,0.1,9.67c0,0.27,0.11,0.36,0.28,0.54
			c1.28,1.31,2.57,2.61,3.85,3.91c0.05,0.05,0.07,0.04,0.07-0.03l0-18.42c0-0.04-0.03-0.07-0.07-0.07l0,0l-30.78,0
			c-0.02,0-0.04,0.02-0.04,0.04c0,0.01,0,0.01,0,0.02l2.4,4.2c0.04,0.08,0.11,0.12,0.2,0.12l23.94,0
			C68.69,52.04,68.71,52.05,68.71,52.07"/>
		<path vector-effect="non-scaling-stroke" class="st0" d="M49.4,60.9c0.01,0.02,0.04,0.03,0.06,0.03l6.12-0.02
			c0.04,0,0.07,0.03,0.07,0.07c0,0,0,0,0,0l0.09,10.29c0,0.04,0.03,0.07,0.07,0.07l0,0l5.42,0c0.04,0,0.07-0.03,0.07-0.07l0-15.83
			c0-0.04-0.03-0.07-0.07-0.07l0,0l-14.77,0c-0.04,0-0.07,0.03-0.07,0.07c0,0.01,0,0.02,0.01,0.03L49.4,60.9"/>
		<path vector-effect="non-scaling-stroke" class="st0" d="M68.67,80c0.03,0,0.05,0.02,0.05,0.05l0,0l0,13.56
			c0,0.12,0.03,0.24,0.09,0.34c1.38,2.35,2.71,4.78,4.16,7.11c0.03,0.05,0.04,0.04,0.04-0.01l0-25.34c0-0.04-0.03-0.07-0.07-0.07
			l0,0L58.4,75.64c-0.1,0-0.13,0.05-0.08,0.14l2.35,4.07c0.06,0.1,0.14,0.15,0.25,0.15L68.67,80"/>
		<path vector-effect="non-scaling-stroke" class="st0" d="M16.53,116.95l-1.26,3.45c-0.05,0.13,0,0.2,0.14,0.19l0.27-0.01
			c0.12,0,0.23-0.08,0.27-0.19l1.42-3.9c0.03-0.1-0.01-0.2-0.11-0.24c-0.01,0-0.02-0.01-0.02-0.01c-0.75-0.16-1.73-0.07-2.46-0.06
			c-0.19,0-0.36,0.12-0.42,0.3l-1.41,3.93c-0.01,0.04-0.01,0.08,0.01,0.12c0.34,0.72,0.93,1.4,1.41,2.02
			c0.06,0.08,0.08,0.19,0.05,0.29l-1.13,3.05c-0.04,0.09-0.13,0.16-0.23,0.16l-1.41-0.01c-0.04,0-0.07-0.03-0.08-0.07
			c0-0.01,0-0.02,0-0.03l1.28-3.43c0.04-0.1,0-0.15-0.1-0.15l-0.38,0c-0.09,0-0.16,0.06-0.19,0.14l-1.44,3.88
			c-0.05,0.13-0.01,0.21,0.12,0.24c0.61,0.18,1.7,0.09,2.36,0.06c0.33-0.01,0.46-0.14,0.57-0.43c0.54-1.4,0.98-2.61,1.32-3.63
			c0.06-0.17,0.03-0.33-0.08-0.47c-0.46-0.57-0.88-1.15-1.28-1.76c-0.06-0.09-0.08-0.21-0.04-0.32l1.16-3.15
			c0.02-0.05,0.06-0.08,0.12-0.08l1.48,0c0.04,0,0.07,0.03,0.07,0.07C16.53,116.93,16.53,116.94,16.53,116.95"/>
		<path vector-effect="non-scaling-stroke" class="st0" d="M32.92,116.73c-0.01,0.05,0.01,0.09,0.06,0.11c0.01,0,0.02,0,0.03,0
			l0.69,0c0.05,0,0.09,0.04,0.09,0.09c0,0.01,0,0.02-0.01,0.03l-3.5,9.59c-0.02,0.04,0.01,0.09,0.05,0.11c0.01,0,0.02,0,0.02,0
			l0.47,0.03c0.04,0,0.07-0.02,0.09-0.06l3.58-9.73c0.01-0.03,0.05-0.06,0.08-0.06l0.82,0c0.04,0,0.07-0.02,0.08-0.06l0.18-0.49
			c0.02-0.04-0.01-0.09-0.05-0.11c-0.01,0-0.02-0.01-0.03-0.01l-2.4,0.01c-0.04,0-0.07,0.02-0.08,0.06L32.92,116.73"/>
		<path vector-effect="non-scaling-stroke" class="st0" d="M51.2,116.93l-1.27,3.47c-0.04,0.12,0,0.18,0.13,0.18l0.3,0.01
			c0.12,0,0.2-0.05,0.25-0.17c0.44-1.2,0.88-2.42,1.33-3.64c0.05-0.13,0.08-0.27,0.09-0.42c0-0.04-0.02-0.08-0.06-0.09
			c-0.22-0.07-0.44-0.1-0.67-0.1c-0.64,0-1.26,0.01-1.84,0.01c-0.19,0-0.36,0.12-0.43,0.3c-0.45,1.22-0.88,2.43-1.32,3.64
			c-0.07,0.21-0.11,0.4,0.01,0.61c0.38,0.62,0.81,1.21,1.26,1.78c0.09,0.11,0.11,0.23,0.07,0.35c-0.26,0.72-0.64,1.76-1.15,3.11
			c-0.02,0.05-0.05,0.07-0.1,0.07l-1.49-0.01c-0.04,0-0.08-0.04-0.08-0.08c0-0.01,0-0.02,0.01-0.03l1.28-3.42
			c0.04-0.09,0-0.14-0.1-0.14l-0.38,0c-0.09,0-0.17,0.05-0.2,0.14l-1.43,3.89c-0.04,0.1,0.02,0.22,0.12,0.26
			c0.02,0.01,0.04,0.01,0.05,0.01c0.79,0.06,1.58,0.07,2.37,0.02c0.25-0.01,0.39-0.15,0.48-0.37c0.4-0.99,0.83-2.15,1.28-3.48
			c0.07-0.22,0.16-0.44,0.01-0.63c-0.48-0.6-0.93-1.22-1.33-1.85c-0.04-0.07-0.05-0.15-0.03-0.22l1.17-3.18
			c0.02-0.06,0.08-0.1,0.15-0.1h1.47C51.2,116.85,51.22,116.88,51.2,116.93"/>
		<path vector-effect="non-scaling-stroke" class="st0" d="M67.44,116.73c-0.01,0.05,0.01,0.1,0.06,0.11c0.01,0,0.02,0,0.03,0
			l0.69,0c0.05,0,0.09,0.04,0.09,0.09c0,0.01,0,0.02-0.01,0.03l-3.5,9.59c-0.02,0.05,0.01,0.1,0.05,0.11c0.01,0,0.02,0.01,0.03,0.01
			l0.47,0.01c0.04,0,0.07-0.02,0.08-0.06L69,116.9c0.01-0.03,0.05-0.06,0.08-0.06h0.82c0.04,0,0.07-0.02,0.08-0.06l0.18-0.49
			c0.02-0.05-0.01-0.1-0.05-0.11c-0.01,0-0.02-0.01-0.03-0.01l-2.41,0.01c-0.04,0-0.07,0.02-0.08,0.06L67.44,116.73"/>
		<path vector-effect="non-scaling-stroke" class="st0" d="M26.47,123.15l-0.45,3.46c-0.01,0.06,0.02,0.08,0.07,0.09l0.51,0.01
			c0.04,0,0.08-0.03,0.09-0.07c0.2-1.56,0.41-3.1,0.61-4.64c0.07-0.51,0.27-0.84,0.53-1.26c0.85-1.42,1.71-2.85,2.57-4.28
			c0.08-0.13,0.04-0.2-0.11-0.21l-0.24-0.01c-0.14,0-0.24,0.05-0.31,0.17l-2.02,3.33c-0.13,0.21-0.17,0.19-0.14-0.05l0.43-3.38
			c0.01-0.05-0.02-0.07-0.06-0.07l-0.49,0.01c-0.07,0-0.11,0.04-0.12,0.11l-0.62,4.95c-0.02,0.13-0.06,0.25-0.13,0.36l-3,4.9
			c-0.06,0.09-0.03,0.14,0.08,0.15l0.35,0.02c0.11,0.01,0.2-0.04,0.25-0.13l2.14-3.46C26.46,123,26.49,123.01,26.47,123.15"/>
		<path vector-effect="non-scaling-stroke" class="st0" d="M61.32,119.89c0.01-0.01,0.02-0.02,0.03-0.01c0.01,0,0.01,0.01,0.01,0.02
			c-0.16,1.92-0.32,3.84-0.51,5.75c-0.01,0.15-0.11,0.44-0.28,0.87c-0.04,0.1-0.01,0.16,0.11,0.16l0.33,0.01
			c0.11,0,0.19-0.05,0.23-0.15l3.71-10.2c0.02-0.04-0.01-0.09-0.05-0.11c-0.01,0-0.02,0-0.03,0l-0.44-0.01
			c-0.08,0-0.13,0.03-0.15,0.1l-2.38,6.53c-0.09,0.25-0.13,0.24-0.11-0.02c0.14-1.73,0.29-3.54,0.45-5.43
			c0.01-0.16,0.14-0.52,0.37-1.05c0.02-0.04,0-0.09-0.04-0.11c-0.01,0-0.02-0.01-0.03-0.01l-0.47-0.01c-0.06,0-0.11,0.04-0.13,0.09
			l-3.7,10.22c-0.03,0.1,0,0.15,0.1,0.15l0.33,0.01c0.12,0.01,0.19-0.05,0.23-0.16L61.32,119.89"/>
		<path vector-effect="non-scaling-stroke" class="st0" d="M74.38,116.89c0.05,0,0.09,0.04,0.09,0.09c0,0.01,0,0.02-0.01,0.03
			L71.17,126c-0.01,0.04-0.05,0.06-0.09,0.06l-0.84-0.01c-0.04,0-0.07,0.02-0.09,0.06L70,126.58c-0.02,0.05,0.01,0.1,0.06,0.11
			c0.01,0,0.02,0,0.03,0l2.37,0.01c0.04,0,0.07-0.03,0.09-0.06l0.14-0.46c0.01-0.05-0.01-0.1-0.06-0.11c-0.01,0-0.02,0-0.02,0
			l-0.65-0.02c-0.05,0-0.09-0.04-0.09-0.09c0-0.01,0-0.02,0.01-0.03l3.31-8.99c0.01-0.04,0.05-0.06,0.08-0.06l0.83-0.01
			c0.04,0,0.07-0.03,0.08-0.06l0.16-0.46c0.02-0.05-0.01-0.1-0.05-0.12c-0.01,0-0.02-0.01-0.03-0.01l-2.38,0
			c-0.04,0-0.07,0.03-0.09,0.06l-0.15,0.46c-0.02,0.05,0.01,0.1,0.06,0.11c0.01,0,0.02,0,0.03,0L74.38,116.89"/>
		<path vector-effect="non-scaling-stroke" class="st0" d="M18.11,126.08c-0.03,0-0.05-0.02-0.05-0.05c0-0.01,0-0.01,0-0.02
			l1.54-4.06c0.01-0.04,0.04-0.06,0.08-0.06l0.74-0.04c0.11-0.01,0.19-0.06,0.22-0.17l0.07-0.23c0.04-0.12-0.01-0.19-0.14-0.19
			l-0.59-0.01c-0.05,0-0.07-0.02-0.06-0.07c0.02-0.13,0.05-0.27,0.11-0.42c0.46-1.27,0.92-2.53,1.38-3.79
			c0.01-0.04,0.06-0.07,0.1-0.07l1.94-0.01c0.05,0,0.1-0.03,0.11-0.08l0.16-0.47c0.02-0.06,0-0.09-0.07-0.09l-2.59,0
			c-0.04,0-0.07,0.02-0.09,0.06l-3.74,10.2c-0.04,0.1-0.01,0.17,0.09,0.2c0.02,0.01,0.06,0.01,0.14,0.01c0.81,0.01,1.59,0,2.33-0.03
			c0.1,0,0.17-0.05,0.2-0.16l0.09-0.31c0.03-0.11-0.01-0.17-0.13-0.17L18.11,126.08"/>
		<path vector-effect="non-scaling-stroke" class="st0" d="M54.65,121.25c-0.05,0-0.1-0.05-0.1-0.1c0-0.01,0-0.02,0.01-0.03
			l1.51-4.15c0.01-0.04,0.05-0.06,0.09-0.07l1.96-0.02c0.04,0,0.08-0.03,0.09-0.07l0.15-0.44c0.02-0.05-0.01-0.11-0.06-0.12
			c-0.01,0-0.02,0-0.03,0l-2.54,0c-0.04,0-0.08,0.03-0.09,0.06l-3.77,10.28c-0.02,0.05,0.01,0.11,0.06,0.13
			c0.01,0,0.02,0.01,0.04,0.01l2.58-0.04c0.04,0,0.08-0.03,0.09-0.07l0.14-0.44c0.02-0.05-0.01-0.11-0.06-0.12
			c-0.01,0-0.02-0.01-0.03,0l-1.82,0.02c-0.05,0-0.1-0.04-0.1-0.1c0-0.01,0-0.02,0.01-0.04l1.51-3.98c0.01-0.04,0.05-0.06,0.09-0.06
			l0.81-0.04c0.04,0,0.07-0.03,0.09-0.07l0.14-0.39c0.02-0.05-0.01-0.11-0.06-0.13c-0.01,0-0.02-0.01-0.03-0.01L54.65,121.25"/>
		<path vector-effect="non-scaling-stroke" class="st0" d="M27.54,52.96c0-0.02,0.02-0.04,0.04-0.04h0l12.7,0
			c0.02,0,0.04-0.02,0.04-0.04c0-0.01,0-0.02-0.01-0.02l-2.45-4.23c-0.01-0.01-0.02-0.02-0.04-0.02l-14.61,0
			c-0.02,0-0.04,0.02-0.04,0.04v30.8c0,0.02,0.02,0.04,0.04,0.04l28.82-0.09c0.02,0,0.04,0.02,0.04,0.04c0,0,0,0,0,0l-0.01,13.12
			c0,0.02,0.02,0.04,0.04,0.04h4.13c0.02,0,0.04-0.02,0.04-0.04l-0.01-12.2c0-0.01,0-0.01-0.01-0.02l-3.14-5.34
			c-0.01-0.01-0.02-0.02-0.04-0.02H27.41c-0.02,0-0.04-0.02-0.04-0.04L27.54,52.96"/>
		<path vector-effect="non-scaling-stroke" class="st0" d="M52.06,100.89c0,0.03-0.03,0.06-0.06,0.06c0,0,0,0,0,0l-24.47-0.08
			c-0.04,0-0.07-0.03-0.07-0.07l0,0c0-3.16,0.01-6.33,0.02-9.49c0-0.15-0.07-0.3-0.22-0.45c-1.33-1.31-2.65-2.62-3.95-3.93
			c-0.08-0.08-0.13-0.07-0.13,0.05l0,18.24c0,0.08,0.06,0.14,0.14,0.14h0l32.99,0c0.04,0,0.07-0.02,0.07-0.06l0-8.34
			c0-0.04-0.03-0.07-0.07-0.07l-4.17,0c-0.05,0-0.07,0.02-0.07,0.07L52.06,100.89"/>
		<path vector-effect="non-scaling-stroke" class="st0" d="M56.25,60.3c0.03,0,0.05,0.02,0.05,0.05l0,0l0.11,10.29
			c0,0.03,0.02,0.05,0.05,0.05l0,0l4.16,0c0.03,0,0.05-0.02,0.05-0.05l0,0l0-14.51c0-0.03-0.02-0.05-0.05-0.05l0,0l-13.04,0
			c-0.03,0-0.05,0.02-0.05,0.05c0,0.01,0,0.02,0.01,0.02l2.28,4.13c0.01,0.02,0.03,0.03,0.04,0.03L56.25,60.3"/>
		<path class="st0" d="M41.9,116.26c-0.03-0.01-0.06-0.02-0.1-0.02l-2.4-0.01c-0.12,0-0.22,0.07-0.26,0.18l-3.65,9.93
			c-0.05,0.15,0.02,0.31,0.17,0.36c0.03,0.01,0.07,0.02,0.1,0.02l2.43-0.04c0.12,0,0.22-0.08,0.26-0.18l3.63-9.88
			C42.12,116.47,42.04,116.31,41.9,116.26z M41.27,116.97l-3.31,9.02c-0.01,0.03-0.04,0.05-0.07,0.05l-1.53,0.02
			c-0.01,0-0.02,0-0.02,0c-0.04-0.01-0.06-0.05-0.04-0.09l3.31-9.01c0.01-0.03,0.04-0.05,0.07-0.05l1.53-0.03c0.01,0,0.02,0,0.03,0
			C41.26,116.89,41.28,116.93,41.27,116.97z"/>
		<path class="st0" d="M82.01,116.43c-0.47-0.31-1.36-0.2-1.96-0.19c-0.05,0-0.1,0.04-0.12,0.09l-3.77,10.23
			c-0.03,0.08,0,0.12,0.08,0.12c0.66,0.03,1.33,0.04,2.02,0.02c0.95-0.03,1.11-0.67,1.42-1.52c0.89-2.37,1.76-4.75,2.62-7.13
			C82.52,117.43,82.59,116.81,82.01,116.43z M81.78,117.65c-1,2.69-1.95,5.36-2.97,8.08c-0.08,0.2-0.27,0.33-0.48,0.33l-1.24,0
			c-0.01,0-0.01,0-0.02,0c-0.02-0.01-0.04-0.04-0.03-0.06l3.3-8.99c0.02-0.06,0.08-0.1,0.15-0.11
			C80.98,116.87,82.14,116.69,81.78,117.65z"/>
		<path class="st0" d="M89.11,116.25c-0.03-0.01-0.06-0.02-0.1-0.02h-2.41c-0.12,0-0.22,0.07-0.26,0.18l-3.66,9.93
			c-0.05,0.14,0.02,0.3,0.17,0.36c0.03,0.01,0.07,0.02,0.1,0.02l2.43-0.03c0.12,0,0.22-0.07,0.26-0.18l3.63-9.9
			C89.33,116.47,89.25,116.31,89.11,116.25z M88.48,116.95L85.17,126c-0.01,0.02-0.03,0.04-0.05,0.04l-1.56,0.02
			c-0.01,0-0.01,0-0.02,0c-0.03-0.01-0.04-0.04-0.03-0.07l3.32-9.05c0.01-0.02,0.03-0.04,0.05-0.04l1.56-0.02c0.01,0,0.01,0,0.02,0
			C88.48,116.89,88.49,116.92,88.48,116.95z"/>
	</g>
	<path class="st0" d="M68.71,52.07c0-0.02-0.01-0.03-0.03-0.03l-23.94,0c-0.09,0-0.16-0.04-0.2-0.12l-2.4-4.2
		c-0.01-0.02,0-0.04,0.02-0.05c0.01,0,0.01,0,0.02,0l30.78,0c0.04,0,0.07,0.03,0.07,0.07c0,0,0,0,0,0l0,18.42
		c0,0.06-0.02,0.07-0.07,0.03c-1.28-1.29-2.57-2.6-3.85-3.91c-0.17-0.17-0.28-0.27-0.28-0.54C68.8,58.52,68.77,55.29,68.71,52.07z"
		/>
	<path class="st0" d="M27.54,52.96l-0.17,21.98c0,0.02,0.02,0.04,0.04,0.04H53.1c0.01,0,0.03,0.01,0.04,0.02l3.14,5.34
		c0,0.01,0.01,0.01,0.01,0.02l0.01,12.2c0,0.02-0.02,0.04-0.04,0.04h-4.13c-0.02,0-0.04-0.02-0.04-0.04l0.01-13.12
		c0-0.02-0.02-0.04-0.04-0.04h0l-28.82,0.09c-0.02,0-0.04-0.02-0.04-0.04v-30.8c0-0.02,0.02-0.04,0.04-0.04l14.61,0
		c0.01,0,0.03,0.01,0.04,0.02l2.45,4.23c0.01,0.02,0.01,0.04-0.01,0.06c-0.01,0-0.01,0.01-0.02,0.01l-12.7,0
		C27.56,52.92,27.54,52.93,27.54,52.96L27.54,52.96z"/>
	<path class="st0" d="M49.4,60.9l-2.99-5.43c-0.02-0.03-0.01-0.07,0.03-0.09c0.01-0.01,0.02-0.01,0.03-0.01l14.77,0
		c0.04,0,0.07,0.03,0.07,0.07c0,0,0,0,0,0l0,15.83c0,0.04-0.03,0.07-0.07,0.07l-5.42,0c-0.04,0-0.07-0.03-0.07-0.07l0,0l-0.09-10.29
		c0-0.04-0.03-0.07-0.07-0.07l0,0l-6.12,0.02C49.44,60.94,49.41,60.92,49.4,60.9z M56.25,60.3c0.03,0,0.05,0.02,0.05,0.05l0,0
		l0.11,10.29c0,0.03,0.02,0.05,0.05,0.05l0,0l4.16,0c0.03,0,0.05-0.02,0.05-0.05l0,0l0-14.51c0-0.03-0.02-0.05-0.05-0.05l0,0
		l-13.04,0c-0.03,0-0.05,0.02-0.05,0.05c0,0.01,0,0.02,0.01,0.02l2.28,4.13c0.01,0.02,0.03,0.03,0.04,0.03L56.25,60.3z"/>
	<path class="st0" d="M56.25,60.3l-6.4,0.01c-0.02,0-0.04-0.01-0.04-0.03l-2.28-4.13c-0.01-0.02,0-0.06,0.02-0.07
		c0.01,0,0.02-0.01,0.02-0.01l13.04,0c0.03,0,0.05,0.02,0.05,0.05l0,0l0,14.51c0,0.03-0.02,0.05-0.05,0.05l0,0l-4.16,0
		c-0.03,0-0.05-0.02-0.05-0.05l0,0L56.3,60.35C56.3,60.32,56.27,60.3,56.25,60.3L56.25,60.3z"/>
	<path class="st0" d="M68.67,80l-7.74,0c-0.11,0-0.2-0.05-0.25-0.15l-2.35-4.07c-0.05-0.09-0.03-0.14,0.08-0.14l14.54-0.01
		c0.04,0,0.07,0.03,0.07,0.07v0l0,25.34c0,0.05-0.01,0.06-0.04,0.01c-1.45-2.33-2.77-4.75-4.16-7.11c-0.06-0.1-0.09-0.22-0.09-0.34
		l0-13.56C68.72,80.02,68.69,80,68.67,80L68.67,80z"/>
	<path class="st0" d="M52.06,100.89l0-3.93c0-0.05,0.02-0.07,0.07-0.07l4.17,0c0.04,0,0.07,0.03,0.07,0.07l0,8.34
		c0,0.04-0.02,0.06-0.07,0.06l-32.99,0c-0.08,0-0.14-0.06-0.14-0.14l0,0l0-18.24c0-0.12,0.04-0.14,0.13-0.05
		c1.3,1.3,2.62,2.61,3.95,3.93c0.15,0.15,0.22,0.3,0.22,0.45c-0.01,3.17-0.02,6.33-0.02,9.49c0,0.04,0.03,0.07,0.07,0.07h0
		L52,100.95C52.04,100.95,52.06,100.92,52.06,100.89C52.06,100.89,52.06,100.89,52.06,100.89z"/>
	<path class="st0" d="M16.47,116.86l-1.48,0c-0.06,0-0.1,0.03-0.12,0.08l-1.16,3.15c-0.04,0.11-0.03,0.22,0.04,0.32
		c0.4,0.61,0.82,1.19,1.28,1.76c0.11,0.14,0.14,0.3,0.08,0.47c-0.34,1.02-0.78,2.22-1.32,3.63c-0.11,0.29-0.24,0.41-0.57,0.43
		c-0.65,0.03-1.75,0.12-2.36-0.06c-0.13-0.04-0.17-0.12-0.12-0.24l1.44-3.88c0.03-0.08,0.11-0.14,0.19-0.14l0.38,0
		c0.1,0,0.14,0.05,0.1,0.15l-1.28,3.43c-0.01,0.04,0,0.08,0.04,0.1c0.01,0,0.02,0.01,0.03,0l1.41,0.01c0.1,0,0.19-0.06,0.23-0.16
		l1.13-3.05c0.04-0.1,0.02-0.21-0.05-0.29c-0.48-0.62-1.06-1.3-1.41-2.02c-0.02-0.04-0.02-0.08-0.01-0.12l1.41-3.93
		c0.06-0.18,0.23-0.3,0.42-0.3c0.73-0.01,1.72-0.1,2.46,0.06c0.1,0.02,0.16,0.12,0.14,0.22c0,0.01,0,0.02-0.01,0.02l-1.42,3.9
		c-0.04,0.11-0.15,0.19-0.27,0.19l-0.27,0.01c-0.14,0-0.19-0.06-0.14-0.19l1.26-3.45c0.01-0.04-0.01-0.08-0.04-0.09
		C16.48,116.86,16.47,116.86,16.47,116.86z"/>
	<path class="st0" d="M32.92,116.73l0.16-0.48c0.01-0.04,0.04-0.06,0.08-0.06l2.4-0.01c0.05,0,0.09,0.04,0.09,0.09
		c0,0.01,0,0.02-0.01,0.03l-0.18,0.49c-0.01,0.03-0.04,0.06-0.08,0.06l-0.82,0c-0.04,0-0.07,0.02-0.08,0.06l-3.58,9.73
		c-0.01,0.04-0.05,0.06-0.09,0.06l-0.47-0.03c-0.05,0-0.08-0.04-0.08-0.09c0-0.01,0-0.02,0-0.02l3.5-9.59
		c0.02-0.04-0.01-0.09-0.05-0.11c-0.01,0-0.02-0.01-0.03-0.01l-0.69,0c-0.05,0-0.09-0.04-0.09-0.09
		C32.91,116.75,32.91,116.74,32.92,116.73z"/>
	<path class="st0" d="M51.14,116.85h-1.47c-0.06,0-0.12,0.04-0.15,0.1l-1.17,3.18c-0.03,0.07-0.02,0.15,0.03,0.22
		c0.4,0.63,0.85,1.25,1.33,1.85c0.15,0.19,0.06,0.41-0.01,0.63c-0.45,1.33-0.88,2.49-1.28,3.48c-0.09,0.21-0.23,0.35-0.48,0.37
		c-0.79,0.05-1.58,0.04-2.37-0.02c-0.11-0.01-0.19-0.11-0.19-0.22c0-0.02,0.01-0.04,0.01-0.05l1.43-3.89
		c0.03-0.08,0.11-0.14,0.2-0.14l0.38,0c0.1,0,0.13,0.05,0.1,0.14l-1.28,3.42c-0.02,0.04,0.01,0.09,0.05,0.1
		c0.01,0,0.02,0.01,0.03,0.01l1.49,0.01c0.05,0,0.08-0.02,0.1-0.07c0.51-1.35,0.9-2.39,1.15-3.11c0.04-0.12,0.02-0.24-0.07-0.35
		c-0.46-0.57-0.88-1.16-1.26-1.78c-0.13-0.21-0.09-0.4-0.01-0.61c0.43-1.21,0.87-2.42,1.32-3.64c0.07-0.18,0.24-0.3,0.43-0.3
		c0.58,0,1.2-0.01,1.84-0.01c0.23,0,0.45,0.03,0.67,0.1c0.04,0.01,0.06,0.05,0.06,0.09c-0.01,0.15-0.04,0.29-0.09,0.42
		c-0.45,1.22-0.89,2.44-1.33,3.64c-0.04,0.12-0.12,0.17-0.25,0.17l-0.3-0.01c-0.13,0-0.17-0.06-0.13-0.18l1.27-3.47
		C51.22,116.88,51.2,116.85,51.14,116.85z"/>
	<path class="st0" d="M67.44,116.73l0.15-0.48c0.01-0.04,0.05-0.06,0.08-0.06l2.41-0.01c0.05,0,0.09,0.04,0.09,0.09
		c0,0.01,0,0.02-0.01,0.03l-0.18,0.49c-0.01,0.03-0.05,0.06-0.08,0.06h-0.82c-0.04,0-0.07,0.02-0.08,0.06l-3.58,9.72
		c-0.01,0.04-0.05,0.06-0.08,0.06l-0.47-0.01c-0.05,0-0.09-0.04-0.09-0.09c0-0.01,0-0.02,0.01-0.03l3.5-9.59
		c0.02-0.05-0.01-0.1-0.05-0.11c-0.01,0-0.02-0.01-0.03-0.01l-0.69,0c-0.05,0-0.09-0.04-0.09-0.09
		C67.43,116.75,67.44,116.74,67.44,116.73z"/>
	<path class="st0" d="M26.47,123.15c0.02-0.14-0.01-0.16-0.09-0.03l-2.14,3.46c-0.06,0.09-0.14,0.14-0.25,0.13l-0.35-0.02
		c-0.11-0.01-0.14-0.05-0.08-0.15l3-4.9c0.07-0.11,0.11-0.23,0.13-0.36l0.62-4.95c0.01-0.07,0.05-0.1,0.12-0.11l0.49-0.01
		c0.05,0,0.07,0.02,0.06,0.07l-0.43,3.38c-0.03,0.24,0.02,0.26,0.14,0.05l2.02-3.33c0.07-0.12,0.17-0.17,0.31-0.17l0.24,0.01
		c0.16,0,0.2,0.07,0.11,0.21c-0.86,1.43-1.72,2.86-2.57,4.28c-0.25,0.42-0.46,0.75-0.53,1.26c-0.2,1.54-0.41,3.08-0.61,4.64
		c-0.01,0.04-0.04,0.07-0.09,0.07l-0.51-0.01c-0.06,0-0.08-0.03-0.07-0.09L26.47,123.15z"/>
	<path class="st0" d="M61.32,119.89l-2.41,6.65c-0.04,0.11-0.12,0.16-0.23,0.16l-0.33-0.01c-0.1,0-0.13-0.05-0.1-0.15l3.7-10.22
		c0.02-0.06,0.07-0.09,0.13-0.09l0.47,0.01c0.05,0,0.08,0.04,0.08,0.09c0,0.01,0,0.02-0.01,0.03c-0.23,0.54-0.36,0.89-0.37,1.05
		c-0.16,1.88-0.31,3.69-0.45,5.43c-0.02,0.27,0.01,0.28,0.11,0.02l2.38-6.53c0.03-0.07,0.08-0.11,0.15-0.1l0.44,0.01
		c0.05,0,0.08,0.04,0.08,0.09c0,0.01,0,0.02,0,0.03l-3.71,10.2c-0.04,0.11-0.11,0.16-0.23,0.15l-0.33-0.01
		c-0.11,0-0.15-0.06-0.11-0.16c0.17-0.43,0.26-0.72,0.28-0.87c0.18-1.92,0.35-3.84,0.51-5.75c0-0.01-0.01-0.02-0.03-0.02
		C61.33,119.88,61.32,119.89,61.32,119.89z"/>
	<path class="st0" d="M74.38,116.89l-0.67-0.01c-0.05,0-0.09-0.04-0.09-0.09c0-0.01,0-0.02,0-0.03l0.15-0.46
		c0.01-0.04,0.05-0.06,0.09-0.06l2.38,0c0.05,0,0.09,0.04,0.09,0.09c0,0.01,0,0.02-0.01,0.03l-0.16,0.46
		c-0.01,0.04-0.05,0.06-0.08,0.06l-0.83,0.01c-0.04,0-0.07,0.02-0.08,0.06l-3.31,8.99c-0.02,0.05,0.01,0.1,0.05,0.12
		c0.01,0,0.02,0.01,0.03,0.01l0.65,0.02c0.05,0,0.09,0.04,0.09,0.09c0,0.01,0,0.02,0,0.02l-0.14,0.46
		c-0.01,0.04-0.05,0.06-0.09,0.06l-2.37-0.01c-0.05,0-0.09-0.04-0.09-0.09c0-0.01,0-0.02,0-0.03l0.16-0.46
		c0.01-0.04,0.05-0.06,0.09-0.06l0.84,0.01c0.04,0,0.07-0.02,0.09-0.06l3.29-8.99c0.02-0.05-0.01-0.1-0.05-0.12
		C74.4,116.89,74.39,116.89,74.38,116.89z"/>
	<path class="st0" d="M18.11,126.08l1.84-0.02c0.12,0,0.16,0.05,0.13,0.17l-0.09,0.31c-0.03,0.1-0.09,0.15-0.2,0.16
		c-0.74,0.03-1.52,0.04-2.33,0.03c-0.08,0-0.12,0-0.14-0.01c-0.1-0.04-0.13-0.1-0.09-0.2l3.74-10.2c0.02-0.04,0.04-0.06,0.09-0.06
		l2.59,0c0.07,0,0.09,0.03,0.07,0.09l-0.16,0.47c-0.01,0.05-0.06,0.08-0.11,0.08l-1.94,0.01c-0.05,0-0.09,0.03-0.1,0.07
		c-0.46,1.26-0.92,2.52-1.38,3.79c-0.05,0.15-0.09,0.29-0.11,0.42c-0.01,0.05,0.01,0.07,0.06,0.07l0.59,0.01
		c0.13,0,0.18,0.06,0.14,0.19l-0.07,0.23c-0.03,0.11-0.1,0.17-0.22,0.17l-0.74,0.04c-0.04,0-0.07,0.02-0.08,0.06l-1.54,4.06
		c-0.01,0.02,0,0.05,0.03,0.06C18.1,126.08,18.11,126.08,18.11,126.08z"/>
	<path class="st0" d="M54.65,121.25l0.65,0.02c0.05,0,0.1,0.05,0.1,0.1c0,0.01,0,0.02-0.01,0.03l-0.14,0.39
		c-0.01,0.04-0.05,0.06-0.09,0.07l-0.81,0.04c-0.04,0-0.07,0.03-0.09,0.06l-1.51,3.98c-0.02,0.05,0.01,0.11,0.06,0.13
		c0.01,0,0.02,0.01,0.04,0.01l1.82-0.02c0.05,0,0.1,0.04,0.1,0.1c0,0.01,0,0.02,0,0.03l-0.14,0.44c-0.01,0.04-0.05,0.07-0.09,0.07
		l-2.58,0.04c-0.05,0-0.1-0.04-0.1-0.1c0-0.01,0-0.03,0.01-0.04l3.77-10.28c0.01-0.04,0.05-0.06,0.09-0.06l2.54,0
		c0.05,0,0.1,0.04,0.1,0.1c0,0.01,0,0.02,0,0.03l-0.15,0.44c-0.01,0.04-0.05,0.07-0.09,0.07l-1.96,0.02c-0.04,0-0.08,0.03-0.09,0.07
		l-1.51,4.15c-0.02,0.05,0.01,0.11,0.06,0.13C54.63,121.25,54.64,121.25,54.65,121.25z"/>
	<path class="st0" d="M41.8,116.24l-2.4-0.01c-0.12,0-0.22,0.07-0.26,0.18l-3.65,9.93c-0.01,0.03-0.02,0.07-0.02,0.1
		c0,0.16,0.13,0.28,0.29,0.28l2.43-0.04c0.12,0,0.22-0.08,0.26-0.18l3.63-9.88c0.01-0.03,0.02-0.06,0.02-0.1
		C42.08,116.37,41.95,116.24,41.8,116.24z M41.27,116.97l-3.31,9.02c-0.01,0.03-0.04,0.05-0.07,0.05l-1.53,0.02
		c-0.01,0-0.02,0-0.02,0c0,0,0,0,0,0c-0.01,0-0.01-0.01-0.01-0.01c0,0-0.01,0-0.01-0.01c0,0-0.01-0.01-0.01-0.01
		c0,0-0.01-0.01-0.01-0.01c0,0,0-0.01,0-0.01c0-0.01,0-0.01,0-0.02c0,0,0,0,0,0c0-0.01,0-0.02,0-0.02l3.31-9.01
		c0.01-0.03,0.04-0.05,0.07-0.05l1.53-0.03c0.01,0,0.02,0,0.03,0c0,0,0,0,0,0c0.01,0,0.02,0.01,0.02,0.01c0,0,0.01,0.01,0.01,0.01
		c0,0,0.01,0.01,0.01,0.01c0,0.01,0.01,0.02,0.01,0.03c0,0,0,0,0,0C41.27,116.95,41.27,116.96,41.27,116.97z"/>
	<path class="st0" d="M82.01,116.43c-0.47-0.31-1.36-0.2-1.96-0.19c-0.05,0-0.1,0.04-0.12,0.09l-3.77,10.23
		c-0.03,0.08,0,0.12,0.08,0.12c0.66,0.03,1.33,0.04,2.02,0.02c0.95-0.03,1.11-0.67,1.42-1.52c0.89-2.37,1.76-4.75,2.62-7.13
		C82.52,117.43,82.59,116.81,82.01,116.43z M81.78,117.65c-1,2.69-1.95,5.36-2.97,8.08c-0.08,0.2-0.27,0.33-0.48,0.33l-1.24,0
		c-0.01,0-0.01,0-0.02,0c0,0,0,0,0,0c0,0-0.01,0-0.01-0.01c0,0,0,0,0,0c0,0,0,0-0.01-0.01c0,0,0,0-0.01-0.01c0,0,0,0,0,0
		c0,0,0-0.01,0-0.01c0,0,0,0,0,0c0-0.01,0-0.01,0-0.02l3.3-8.99c0.02-0.06,0.08-0.1,0.15-0.11
		C80.98,116.87,82.14,116.69,81.78,117.65z"/>
	<path class="st0" d="M89.01,116.24h-2.41c-0.12,0-0.22,0.07-0.26,0.18l-3.66,9.93c-0.01,0.03-0.02,0.07-0.02,0.1
		c0,0.15,0.13,0.28,0.28,0.27l2.43-0.03c0.12,0,0.22-0.07,0.26-0.18l3.63-9.9c0.01-0.03,0.02-0.06,0.02-0.1
		C89.29,116.36,89.17,116.24,89.01,116.24z M88.48,116.95L85.17,126c-0.01,0.02-0.03,0.04-0.05,0.04l-1.56,0.02
		c-0.01,0-0.01,0-0.02,0c0,0,0,0,0,0c0,0-0.01,0-0.01-0.01c0,0-0.01,0-0.01-0.01c0,0,0-0.01-0.01-0.01c0,0,0-0.01-0.01-0.01
		c0,0,0-0.01,0-0.01c0,0,0-0.01,0-0.01c0,0,0,0,0,0c0-0.01,0-0.01,0-0.02l3.32-9.05c0.01-0.02,0.03-0.04,0.05-0.04l1.56-0.02
		c0.01,0,0.01,0,0.02,0c0,0,0,0,0,0c0,0,0.01,0,0.01,0.01c0,0,0,0,0.01,0c0,0,0,0.01,0.01,0.01c0,0,0,0.01,0.01,0.01c0,0,0,0,0,0.01
		c0,0,0,0.01,0,0.01c0,0,0,0,0,0C88.49,116.94,88.48,116.94,88.48,116.95z"/>
</g>
</svg>
