<?xml version="1.0" encoding="utf-8"?>
<!-- Generator: Adobe Illustrator 28.1.0, SVG Export Plug-In . SVG Version: 6.00 Build 0)  -->
<svg version="1.1" id="Capa_1" xmlns="http://www.w3.org/2000/svg" xmlns:xlink="http://www.w3.org/1999/xlink" x="0px" y="0px"
	 viewBox="0 0 300 170" style="enable-background:new 0 0 300 170;" xml:space="preserve">
<style type="text/css">
	.st0{fill:#BFBFBF;}
</style>
<g>
	<g>
		<path class="st0" d="M151.44,54.24c3.89-0.79,6.54-0.09,6.08,4.53c-0.02,0.2-0.13,0.3-0.33,0.3h-5.65c-0.2,0-0.31-0.1-0.31-0.31
			v-4.26C151.23,54.35,151.3,54.26,151.44,54.24z"/>
		<path class="st0" d="M151.42,61.34c2.33-0.52,6.05-0.61,6.07,2.6c0.06,7.26,0.08,14.52,0.06,21.77c0,0.14-0.11,0.25-0.25,0.25l0,0
			h-5.7c-0.25,0-0.37-0.12-0.37-0.37V61.56C151.23,61.44,151.29,61.36,151.42,61.34z"/>
		<g>
			<path class="st0" d="M35.62,69.64c3.79,1.4,4.59,6.67,3.55,9.97c-1.93,6.17-8.68,7.24-14.28,6.73
				c-6.32-0.57-10.39-3.23-10.91-9.96c-0.02-0.31,0.12-0.47,0.43-0.47h5.69c0.19,0,0.3,0.09,0.32,0.28
				c0.38,2.72,1.94,4.28,4.68,4.68c2.52,0.37,8.07,0.11,7.85-3.83c-0.37-6.36-19.68-1.93-18.4-15.06c0.71-7.2,7.84-9.02,14-8.31
				c5.68,0.65,9.44,3.55,9.63,9.57c0,0.16-0.07,0.24-0.23,0.24c-2.04,0.11-4.69,0.43-5.76-1.1c-2.3-3.3-5.32-4.26-9.07-2.88
				c-2.77,1.01-3.1,4.05-0.66,5.77c0.9,0.63,1.77,1.05,2.61,1.23C28.66,67.33,32.17,68.37,35.62,69.64z"/>
			<path class="st0" d="M106.49,63.9v-9.43c0-0.19,0.09-0.29,0.28-0.31c3.3-0.34,5.89-0.19,5.91,3.87
				c0.02,5.96,0.01,11.92-0.04,17.88c-0.08,8.68-6.69,11.33-14.31,10.09c-8.99-1.45-9.9-10.98-8.03-18.13
				c1.54-5.9,8.06-9.06,13.52-5.99c0.87,0.49,1.58,1.41,2.4,2.14C106.4,64.19,106.49,64.15,106.49,63.9z M102.34,66.65
				c-8.39-2.05-8.83,16.9,0.63,13.91c4.21-1.33,4.2-9.35,2.13-12.15C104.45,67.53,103.53,66.94,102.34,66.65z"/>
			<path class="st0" d="M192.59,64.23c5.96-6.14,16.22-3.92,16.3,5.63c0.07,8.11,0.1,13.39,0.1,15.84c0,0.15-0.12,0.27-0.27,0.27
				l0,0h-5.8c-0.16,0-0.24-0.08-0.24-0.24c-0.04-4.23-0.04-8.44-0.01-12.64c0.02-2.92-1.26-6.61-4.93-6.57
				c-4.7,0.06-5.29,3.74-5.33,7.8c-0.04,3.79-0.04,7.59-0.02,11.39c0,0.14-0.11,0.26-0.26,0.26c0,0,0,0-0.01,0h-5.69
				c-0.25,0-0.37-0.12-0.37-0.37V54.47c0-0.2,0.1-0.3,0.29-0.32c2.98-0.24,5.78-0.56,5.96,3.25c0.1,2.09,0.1,4.32,0,6.7
				c0,0.1,0.07,0.18,0.16,0.18C192.51,64.28,192.56,64.26,192.59,64.23z"/>
			<path class="st0" d="M254.67,54.23c3.87-0.76,6.69-0.17,6.22,4.52c-0.02,0.21-0.14,0.31-0.35,0.31h-5.83
				c-0.14,0-0.25-0.11-0.25-0.25v-4.33C254.46,54.34,254.53,54.26,254.67,54.23z"/>
			<path class="st0" d="M54.28,66.1c-1.71-0.27-4.11-0.32-5.09,1.44c-0.07,0.13-0.19,0.2-0.34,0.2h-5.8c-0.15,0-0.21-0.07-0.18-0.21
				c0.31-2,1.17-3.57,2.56-4.71c3.79-3.1,15.08-2.99,17.1,2.25c0.29,0.76,0.44,2,0.46,3.71c0.05,6.89,1.31,14.18-6.31,16.81
				c-2.89,1-5.81,1.16-8.76,0.5c-4.91-1.12-6.88-5.73-5.28-10.45c1.69-4.96,8.07-4.48,12.34-5.72C58.06,69.01,56.9,66.51,54.28,66.1
				z M48.73,79.87c1.34,2.06,4.51,1.59,6.14,0.34c1.9-1.47,2.31-4,2.01-6.31c-0.02-0.16-0.11-0.22-0.26-0.16
				c-1.69,0.56-3.4,1.06-5.13,1.49C49.41,75.76,47.31,77.7,48.73,79.87z"/>
			<path class="st0" d="M77.59,66.39c-3.27-0.59-5.2,1.01-5.19,4.21c0.02,5.07,0.03,10.11,0.01,15.11c0,0.13-0.11,0.24-0.25,0.24
				h-5.83c-0.2,0-0.31-0.1-0.31-0.31c-0.11-6.54-0.1-11.82,0.02-15.83c0.24-8.11,8.07-10.27,14.68-8.53
				c4.97,1.3,6.4,5.65,6.43,10.31c0.02,4.67,0.02,9.33,0,14c0,0.18-0.09,0.28-0.26,0.3c-3.49,0.39-6.15,0.36-6.16-3.93
				c-0.01-3.67-0.02-7.33-0.02-10.99C80.7,68.5,80.14,66.85,77.59,66.39z"/>
			<path class="st0" d="M160.78,74.41c-0.41-8.18,3.3-13.84,12.1-13.59c5.1,0.15,8.95,2.65,9.9,7.92c0.03,0.17-0.04,0.25-0.21,0.25
				h-6.34c-0.19,0-0.32-0.09-0.41-0.26c-1.45-2.96-5.24-3.09-7.22-0.83c-3,3.43-1.87,15.88,5.59,12.64c1-0.44,2.01-1.88,2.96-2.1
				c1.12-0.25,2.91-0.28,5.38-0.07c0.13,0.01,0.18,0.08,0.15,0.2c-1.25,6.04-6.45,8.68-12.17,7.93
				C163.59,85.58,161.11,80.89,160.78,74.41z"/>
			<path class="st0" d="M218.44,75.64c-0.12,5.23,5.37,7.12,8.78,3.42c1.04-1.14,4.96-0.8,6.41-0.79c0.12,0,0.22,0.1,0.22,0.23
				c0,0.02,0,0.03-0.01,0.05c-2.74,11.04-19.35,10.74-21.56-0.61c-1.24-6.39-0.41-14.76,7.06-16.69c3.75-0.97,8.52-0.55,11.44,2.05
				c3.12,2.78,3.72,7.71,3.58,11.68c-0.01,0.25-0.21,0.45-0.46,0.45h-15.24C218.52,75.42,218.45,75.49,218.44,75.64z M218.72,70.84
				h8.66c0.07,0,0.12-0.06,0.12-0.12v-0.08c0-2.55-1.99-4.62-4.45-4.62h-0.01c-2.46,0-4.45,2.07-4.45,4.62v0.08
				C218.59,70.78,218.65,70.84,218.72,70.84z"/>
			<path class="st0" d="M264.52,67.48c0.5-4.31,4.02-6.36,8.13-6.58c5.35-0.29,11.65,0.25,11.97,6.98
				c0.21,4.63,0.16,8.17-0.17,10.63c-0.96,7.26-10.24,9.13-15.98,7.32c-5.41-1.7-6.4-9.88-2-13.13c2.65-1.95,6.85-1.98,9.8-2.61
				c0.94-0.2,2.08-1.02,2.12-2.08c0.12-2.61-6.23-2.67-7.64-0.51c-0.1,0.15-0.23,0.22-0.41,0.22h-5.6
				C264.58,67.74,264.5,67.65,264.52,67.48z M272.69,75.37c-3.76,0.97-3.66,5.97,0.49,5.86c4.16-0.1,5.93-3.39,5.2-7.3
				c-0.03-0.14-0.11-0.18-0.24-0.14C276.32,74.38,274.5,74.9,272.69,75.37z"/>
			<path class="st0" d="M138.67,77.62c0.01,0.06,0.07,0.1,0.14,0.09c0.04-0.01,0.08-0.04,0.09-0.09c1.02-4.61,2.06-9.23,3.13-13.85
				c0.79-3.43,4.76-2.71,7.03-2.57c0.18,0.01,0.24,0.1,0.19,0.27l-6.73,24.24c-0.05,0.17-0.16,0.26-0.34,0.26h-6.06
				c-0.13,0-0.25-0.1-0.28-0.23l-3.48-16.61c-0.02-0.09-0.11-0.14-0.2-0.12c-0.06,0.01-0.1,0.06-0.12,0.12l-3.64,16.51
				c-0.05,0.22-0.19,0.33-0.41,0.33h-6.03c-0.15,0-0.25-0.07-0.29-0.22l-6.65-24.21c-0.07-0.23,0.02-0.35,0.27-0.35h5.67
				c0.25,0,0.41,0.12,0.47,0.37l3.63,15.86c0.02,0.09,0.1,0.15,0.19,0.13c0.07-0.01,0.12-0.07,0.13-0.13l3.29-15.95
				c0.04-0.18,0.15-0.27,0.33-0.27h6.07c0.2,0,0.37,0.14,0.41,0.34L138.67,77.62z"/>
			<path class="st0" d="M237.14,85.72c-0.11-10.2-2.74-25.55,13.4-24.53c0.21,0.01,0.32,0.13,0.32,0.34v5.86
				c0,0.22-0.11,0.33-0.33,0.34c-4.69,0.13-6.94,0.4-6.97,5.78c-0.02,4.07-0.03,8.13-0.01,12.18c0,0.14-0.11,0.26-0.26,0.26
				c0,0,0,0-0.01,0h-5.93C237.22,85.96,237.14,85.88,237.14,85.72z"/>
			<path class="st0" d="M254.76,61.2c2.07-0.14,6.07-0.66,6.09,2.73c0.05,7.26,0.06,14.52,0.05,21.78c0,0.14-0.11,0.25-0.25,0.25
				l0,0h-5.82c-0.25,0-0.37-0.12-0.37-0.37V61.52C254.46,61.32,254.56,61.21,254.76,61.2z"/>
			<path class="st0" d="M210.69,92.48c-4.82-3.56-10.44,2.17-3.65,3.94c3.68,0.96,9.74,1.44,9.44,7.15
				c-0.18,3.46-2.18,5.48-6.01,6.05c-4.98,0.75-10.98-0.34-11.16-6.63c0-0.16,0.13-0.29,0.29-0.3c0,0,0,0,0,0l3.67,0
				c0.2,0,0.32,0.1,0.35,0.3c0.57,3.78,7.38,4.21,8.34,1.16c1.39-4.45-11.99-2.24-12.32-9.79c-0.29-6.38,6.9-7.67,11.59-6.22
				c2.77,0.86,4.21,2.84,4.33,5.95c0,0.14-0.06,0.21-0.2,0.23c-1.95,0.19-3.65,0.37-4.38-1.46
				C210.92,92.71,210.82,92.58,210.69,92.48z"/>
			<path class="st0" d="M222.86,96.13v9.31c0,0.26,0.2,0.48,0.46,0.5l1.75,0.15c0.14,0.01,0.25,0.12,0.25,0.26l0.02,2.64
				c0,0.2-0.1,0.31-0.3,0.32c-3.53,0.29-6.49,0.68-6.51-3.6c-0.03-5.76-0.03-11.53-0.01-17.3c0-0.18,0.09-0.29,0.27-0.31
				c3.86-0.52,4.13,0.97,4.05,4.42c0,0.14,0.11,0.26,0.25,0.26c0,0,0,0,0.01,0h1.86c0.2,0,0.32,0.1,0.35,0.3
				c0.22,1.72-0.54,2.67-2.27,2.85C222.92,95.94,222.86,96.01,222.86,96.13z"/>
			<path class="st0" d="M242.95,102.44c-0.34,0-0.61,0.27-0.61,0.61c0,0.07,0.01,0.14,0.04,0.21c1.12,2.95,3.05,3.63,5.54,1.87
				c1.36-0.96,2.94-1.19,4.75-0.69c0.19,0.05,0.24,0.17,0.18,0.35c-1.5,4.08-4.52,5.7-9.05,4.85c-5.88-1.11-6.52-7.59-5.3-12.28
				c1.15-4.41,6.36-5.78,10.19-4.39c3.82,1.39,4.68,5.54,4.52,9.14c-0.01,0.22-0.13,0.33-0.35,0.33H242.95z M242.76,99.22l5.61-0.01
				c0.07,0,0.12-0.06,0.12-0.12l0-0.07c0-1.6-1.3-2.9-2.9-2.9h-0.07c-1.6,0-2.89,1.31-2.89,2.91c0,0,0,0,0,0l0,0.07
				C242.64,99.17,242.69,99.22,242.76,99.22z"/>
			<path class="st0" d="M272.42,96.96c0.49-4.81,6.74-4.83,10.08-3.96c2.76,0.72,3.43,2.3,3.44,5.12c0.02,4.78,0.96,9.36-4.56,11.18
				c-3.75,1.24-8.98,0.71-9.5-4.2c-0.36-3.47,1.9-5.06,4.93-5.71c1.65-0.35,4.17-0.21,4.94-1.77c0.08-0.15,0.06-0.34-0.04-0.48
				c-1.02-1.44-3.98-1.47-5.07-0.08c-0.1,0.13-0.24,0.19-0.4,0.19h-3.57C272.48,97.23,272.4,97.14,272.42,96.96z M277.47,102.54
				c-2.57,0.83-1.36,4.63,1.87,3.54c1.94-0.65,2.75-2.16,2.42-4.52c-0.02-0.16-0.11-0.22-0.27-0.18
				C280.11,101.74,278.77,102.12,277.47,102.54z"/>
			<path class="st0" d="M227.69,97.4c1.26-3.49,4.71-4.99,8.32-4.52c0.16,0.02,0.23,0.11,0.23,0.27v3.73c0,0.22-0.11,0.33-0.32,0.35
				c-2.95,0.17-4.48,0.31-4.5,3.82c-0.01,2.7-0.02,5.41-0.01,8.11c0,0.23-0.11,0.34-0.34,0.34h-3.77c-0.21,0-0.32-0.11-0.32-0.32
				C226.89,105.61,226.48,100.77,227.69,97.4z"/>
			<path class="st0" d="M265.82,107.93c-3.85,3.9-9.49,1.65-10.71-3.16c-1.91-7.54,2.12-13.84,10.42-11.68
				c3.07,0.8,4.68,3.13,4.84,6.98c0.22,5.65,0.2,9.36-0.07,11.14c-0.65,4.28-4.83,5.44-8.53,5.23c-3.36-0.19-5.51-1.85-6.46-4.99
				c-0.04-0.14,0.04-0.29,0.18-0.33c0.03-0.01,0.05-0.01,0.08-0.01h3.83c0.17,0,0.3,0.07,0.41,0.2c2.74,3.5,7.07,0.9,6.22-3.32
				C266,107.84,265.93,107.82,265.82,107.93z M262.57,106.09c1.95,0.03,3.56-2.16,3.6-4.89c0.04-2.73-1.51-4.96-3.46-4.99l0,0
				c-1.95-0.03-3.56,2.16-3.6,4.89C259.06,103.83,260.61,106.06,262.57,106.09L262.57,106.09z"/>
		</g>
	</g>
</g>
</svg>
