<?xml version="1.0" encoding="utf-8"?>
<!-- Generator: Adobe Illustrator 28.1.0, SVG Export Plug-In . SVG Version: 6.00 Build 0)  -->
<svg version="1.1" id="Capa_1" xmlns="http://www.w3.org/2000/svg" xmlns:xlink="http://www.w3.org/1999/xlink" x="0px" y="0px"
	 viewBox="0 0 118 170" style="enable-background:new 0 0 118 170;" xml:space="preserve">
<style type="text/css">
	.st0{fill:#BFBFBF;}
</style>
<g>
	<path class="st0" d="M83.59,96.31c4.63-4.07,7.04-9.32,8.17-15.23c0.2-1.05,0.16-2.15,0.24-3.36c-2.09,0.31-3.95,0.5-5.68,1.26
		c-1.08,0.48-2.16,0.7-3.36,0.48c-1.36-0.25-2.6,0.32-4.04,0.78c0.42,0.22,0.67,0.37,0.94,0.5c2.55,1.26,2.99,3.9,1.03,5.96
		c-0.93,0.97-1.77,2.03-2.59,3.1c-0.75,0.97-1.68,1.63-2.82,2.03c-1.08,0.38-1.19,0.77-0.47,1.67c0.22,0.28,0.47,0.54,0.71,0.81
		c0.22,0.24,0.44,0.48,0.79,0.86c-0.48,0.02-0.8,0.12-1.05,0.03c-1.13-0.39-2.36-0.53-3.14-1.72c-0.36-0.55-1.21-0.79-1.88-1.2
		c0.08-0.2,0.19-0.45,0.35-0.83c-0.64,0.18-1.17,0.34-1.78,0.52c0.35,0.74,0.67,1.42,1.06,2.24c-1.48-0.15-2.87-0.12-3.82-1.38
		c-0.61-0.8-1.39-1.05-2.37-0.86c-2.64,0.52-5.27,1.07-7.93,1.48c-2.02,0.31-3.99-0.04-5.78-1.09c-0.23-0.13-0.45-0.29-0.89-0.57
		c1.92-0.08,3.15-0.98,4.28-2.1c0.98-0.97,2.25-1.36,3.58-1.64c0.79-0.17,1.58-0.44,2.28-0.83c1.08-0.59,2.09-1.29,3.11-1.99
		c0.84-0.57,1.52-1.28,1.66-2.41c-0.5,0-0.93-0.06-1.35,0.01c-2.72,0.48-5.45,0.95-8.16,1.53c-0.76,0.16-1.44,0.71-2.17,1.05
		c-0.36,0.17-0.73,0.37-1.11,0.41c-1.04,0.11-1.93,0.44-2.78,1.12c-2.39,1.92-5.11,2.93-8.22,2.45c-0.79-0.12-1.53-0.48-2.3-0.73
		c0.01-0.07,0.01-0.15,0.02-0.22c0.62-0.2,1.24-0.4,2.04-0.65c-1.07-0.45-2-0.84-2.92-1.23c0-0.06,0.01-0.11,0.01-0.17
		c0.42-0.13,0.85-0.26,1.44-0.44c-0.52-0.85-1-1.64-1.51-2.48c0.2-0.07,0.4-0.15,0.75-0.28c-0.81-0.35-1.49-0.64-2.39-1.02
		c0.7-0.21,1.21-0.37,1.55-0.47c0.28-0.71,0.51-1.31,0.79-2.04c0.72,0.62,1.31,1.09,1.87,1.6c1.75,1.62,3.73,2.14,6.1,1.64
		c1.87-0.39,3.77-0.82,5.71-0.42c1.75,0.36,3.4-0.27,5.08-0.51c2.08-0.29,4.14-0.71,6.22-1.02c0.8-0.12,1.19-0.46,1.36-1.28
		c0.43-2.08,1.73-3.57,3.47-4.69c1.46-0.94,2.22-2.35,2.82-3.91c-1.39-0.37-2.72,0.17-3.7,1.44c-0.31,0.4-0.67,0.77-1.03,1.13
		c-0.09,0.09-0.26,0.08-0.4,0.12c-0.02-0.16-0.1-0.33-0.05-0.46c0.22-0.6,0.48-1.18,0.78-1.89c-0.34,0.12-0.56,0.19-0.92,0.31
		c0.27-0.68,0.52-1.28,0.79-1.97c-2.53-0.41-4.65,0.63-6.91,1.67c0-0.43,0-0.77,0-1.11c-0.01-0.57,0.19-1.18-0.39-1.61
		c-0.04-0.03-0.07-0.1-0.06-0.14c0.23-0.8,0.49-1.59,0.7-2.4c0.31-1.15,0.42-1.26,1.74-1.46c-0.75-0.98-1.02-2.02-0.41-3.23
		c0.39,0.26,0.77,0.51,1.14,0.76c1.43,0.96,2.98,1.58,4.72,1.7c1.21,0.09,1.75-0.23,2.21-1.34c0.11-0.26,0.2-0.53,0.28-0.8
		c0.52-1.83,1.76-2.82,3.59-3.15c1.16-0.21,1.24-0.32,1.24-1.52c-0.01-1.74-0.2-3.48,0.49-5.17c0.24-0.58-0.34-0.81-0.76-0.95
		c-2.31-0.74-4.6-1.67-6.97-2.12c-9.05-1.7-17.59-0.14-25.14,5.15c-7.64,5.36-11.51,12.92-11.28,22.35
		c0.16,6.56,2.86,12.14,7.05,17.06c0.2,0.23,0.4,0.46,0.6,0.7c0.03,0.04,0.04,0.09,0.08,0.21c-0.21,0.02-0.4,0.06-0.59,0.06
		c-2,0.01-4,0.03-6,0c-0.31,0-0.71-0.17-0.91-0.4c-6.87-7.77-9.65-16.72-7.3-26.91c1.68-7.28,6.07-12.9,12.15-17.1
		c7.7-5.31,16.31-7.37,25.61-6.54c6.74,0.6,13.08,2.47,18.84,6.09c7.37,4.64,12.89,10.87,15.02,19.4
		c2.56,10.22,0.08,19.38-7.23,27.11c-0.21,0.23-0.61,0.37-0.93,0.39c-0.96,0.05-1.93,0.02-2.89,0.02
		C83.65,96.43,83.62,96.37,83.59,96.31z M91.99,75.82c-0.42-4.96-1.89-9.46-4.67-13.5c-2.75-3.99-6.34-7.07-10.47-9.74
		c0.28,2.78,2.54,5.43,5.16,6.2c0.42,0.12,0.83,0.26,1.22,0.45c2.24,1.1,2.38,1.84,0.74,3.75c-0.05,0.06-0.11,0.11-0.15,0.18
		c-0.28,0.44-0.56,0.46-1.01,0.17c-0.45-0.29-0.99-0.44-1.5-0.65c-0.08,0.08-0.16,0.15-0.25,0.23c0.22,0.47,0.43,0.94,0.69,1.49
		c-0.41,0.08-0.82,0.17-1.03,0.21c-0.25,0.6-0.45,1.04-0.62,1.5c-0.06,0.15-0.05,0.33-0.03,0.5c0.02,0.24,0.07,0.47,0.1,0.71
		c-0.29-0.02-0.59,0.02-0.86-0.06c-0.54-0.18-1.06-0.42-1.59-0.63c-0.04,0.06-0.09,0.11-0.13,0.17c0.1,0.14,0.18,0.36,0.32,0.41
		c0.89,0.29,0.85,0.95,0.75,1.69c-0.06,0.45-0.15,0.95-0.04,1.37c0.12,0.46,0.37,1.09,0.73,1.25c1.88,0.83,2.99,2.36,3.99,4.02
		c0.11,0.19,0.28,0.45,0.45,0.47c1.51,0.18,2.96,0.87,4.54,0.51C89.52,76.23,90.71,76.05,91.99,75.82z"/>
	<path class="st0" d="M50.67,106.17c1.7,0,3.22-0.03,4.75,0.01c1.04,0.03,2.12,0,3.12,0.24c2.52,0.6,3.63,3.56,2.12,5.68
		c-0.46,0.64-1.26,1.04-2.03,1.65c0.6,1.26,0.87,2.92,2.45,4.06c-1.38,0-2.55,0-3.78,0c0.58-1.46-0.48-2.54-0.88-3.79
		c-0.04-0.14-0.29-0.29-0.45-0.3c-0.71-0.03-1.42-0.01-2.21-0.01c0.08,1.44-0.39,2.85,0.74,4.09c-1.29,0-2.48,0-3.79,0
		c0.96-0.9,0.77-2.02,0.77-3.1c0.01-1.95-0.01-3.89,0.01-5.84C51.49,107.92,51.5,107.01,50.67,106.17z M53.83,113.09
		c1.14-0.08,2.23-0.09,3.31-0.24c0.87-0.12,1.56-0.66,1.68-1.56c0.12-0.85,0.11-1.73,0.01-2.58c-0.1-0.83-0.7-1.42-1.5-1.56
		c-1-0.17-2.03-0.17-3.04-0.19c-0.15,0-0.43,0.31-0.43,0.49C53.82,109.28,53.83,111.11,53.83,113.09z"/>
	<path class="st0" d="M79.28,109.38c0.22-0.6,0.55-1.07,0.52-1.51c-0.04-0.66-0.67-0.84-1.25-0.91c-1.54-0.2-2.81,0.5-3.39,1.95
		c-0.66,1.67-0.79,3.4-0.24,5.12c0.6,1.87,2.36,3.07,4.33,2.99c0-1.42,0-2.84,0-4.49c-0.57,0.25-1.06,0.47-1.69,0.74
		c0.1-0.46,0.17-0.83,0.25-1.22c1.42,0,2.77,0,4.12,0c-0.53,1.92-0.57,3.83,0.09,5.79c-0.21,0.01-0.43,0.03-0.65,0.03
		c-1.37-0.04-2.76,0.05-4.11-0.17c-4.24-0.7-6.31-5.15-4.21-8.92c0.57-1.03,1.43-1.73,2.52-2.15c1.48-0.57,3.01-0.6,4.54-0.24
		c0.37,0.09,0.73,0.25,1.04,0.47c0.82,0.56,0.96,1.65,0.35,2.35C80.89,109.9,79.85,109.92,79.28,109.38z"/>
	<path class="st0" d="M30.68,113.4c0.05,0.3,0.05,0.62,0.17,0.9c0.25,0.62,0.44,1.34,0.88,1.8c0.96,1.01,3.25,1.22,4.48,0.55
		c0.71-0.39,1.12-0.99,1.14-1.79c0.01-0.78-0.45-1.31-1.13-1.6c-0.85-0.35-1.74-0.61-2.6-0.92c-0.72-0.26-1.46-0.5-2.14-0.84
		c-1.01-0.52-1.58-1.38-1.53-2.55c0.04-1.15,0.76-1.91,1.74-2.22c1.08-0.34,2.25-0.55,3.37-0.51c1.25,0.05,2.48,0.45,3.83,0.71
		c-0.3,0.87-0.53,1.53-0.82,2.38c-0.23-0.29-0.42-0.43-0.44-0.58c-0.17-1-0.88-1.46-1.74-1.61c-0.79-0.14-1.65-0.19-2.42-0.01
		c-1.36,0.31-1.69,1.92-0.61,2.81c0.5,0.41,1.14,0.68,1.75,0.91c1,0.38,2.05,0.65,3.05,1.04c1.17,0.46,2.02,1.22,2.01,2.62
		c-0.01,1.34-0.74,2.42-2.15,2.87c-2.58,0.83-5.1,0.74-7.43-0.84c-0.51-0.35-0.71-0.74-0.4-1.35c0.28-0.56,0.47-1.17,0.7-1.76
		C30.48,113.4,30.58,113.4,30.68,113.4z"/>
	<path class="st0" d="M71.89,115.34c0.04,0.79,0.08,1.57,0.12,2.43c-3.16,0-6.27,0-9.51,0c0.99-0.88,0.74-2.01,0.75-3.09
		c0.01-2-0.01-4,0.01-6c0.01-0.88,0.03-1.74-0.8-2.48c3.24,0,6.32,0,9.54,0c-0.04,0.84-0.08,1.68-0.11,2.53
		c-0.09,0.04-0.19,0.08-0.28,0.12c-0.27-0.33-0.51-0.68-0.8-0.99c-0.28-0.29-0.58-0.75-0.9-0.78c-1.27-0.13-2.55-0.15-3.83-0.14
		c-0.17,0-0.46,0.41-0.47,0.64c-0.05,1.33-0.02,2.65-0.02,3.94c1.09,0.64,1.19-0.63,1.88-0.95c0,0.94,0,1.77,0,2.69
		c-0.71-0.11-0.77-1.53-1.85-0.82c0,1.3-0.02,2.7,0.03,4.1c0.01,0.19,0.38,0.51,0.58,0.51c1.07,0.01,2.15-0.04,3.22-0.11
		c0.64-0.05,1.15-0.31,1.41-1c0.12-0.32,0.52-0.53,0.79-0.79C71.72,115.22,71.81,115.28,71.89,115.34z"/>
	<path class="st0" d="M85.23,117.81c-0.71,0-1.29,0-2.09,0c1.42-0.9,1.54-2.32,1.98-3.56c0.62-1.76,1.16-3.55,1.8-5.3
		c0.35-0.95,0.54-1.83-0.54-2.76c1.16,0,2.06-0.03,2.95,0.03c0.14,0.01,0.32,0.35,0.39,0.57c0.93,2.76,1.85,5.53,2.78,8.3
		c0.33,0.98,0.51,2.05,1.49,2.72c-1.18,0-2.35,0-3.62,0c0.83-1.15-0.03-2.08-0.28-3.08c-0.02-0.09-0.24-0.2-0.37-0.2
		c-1.28-0.02-2.56-0.02-3.84,0c-0.13,0-0.34,0.09-0.37,0.18C85.23,115.69,84.42,116.63,85.23,117.81z M87.83,108.18
		c-0.06-0.01-0.11-0.02-0.17-0.03c-0.62,1.85-1.23,3.7-1.87,5.6c1.37,0,2.63,0,3.99,0C89.11,111.83,88.47,110,87.83,108.18z"/>
	<path class="st0" d="M46.43,117.81c-1.21,0-2.4,0-3.71,0c0.97-0.95,0.74-2.13,0.75-3.25c0.01-2.07,0.01-4.15,0-6.22
		c-0.01-1.3-0.06-1.33-1.35-1.28c-0.71,0.03-0.71,0.03-2.22,0.97c-0.04-0.61-0.08-1.18-0.13-1.8c3.25,0,6.44,0,9.75,0
		c-0.03,0.59-0.07,1.18-0.1,1.77c-0.05,0.05-0.1,0.11-0.16,0.16c-0.51-1.28-1.57-1.05-2.53-1.12c-0.67-0.05-0.94,0.22-0.94,0.86
		c-0.01,2.43-0.03,4.86-0.03,7.29C45.77,116.71,45.79,116.71,46.43,117.81z"/>
	<path class="st0" d="M60.79,97.16c0.8,0,1.74,0,2.51,0c-0.11,0.77-0.28,1.52-0.32,2.28c-0.06,1.02-0.03,2.05-0.01,3.07
		c0.03,1.11,0.49,1.54,1.57,1.52c1.11-0.02,1.61-0.5,1.61-1.57c0-1.02,0.04-2.05-0.01-3.07c-0.04-0.74-0.19-1.47-0.3-2.23
		c0.79,0,1.75,0,2.71,0c-0.61,1.4-0.69,6.31-0.09,7.46c-0.42,0-0.86,0.11-1.2-0.02c-0.81-0.32-1.53-0.3-2.36-0.02
		c-0.56,0.19-1.28,0.07-1.89-0.06c-1.25-0.27-1.9-1.14-1.92-2.43c-0.01-0.95,0.04-1.9-0.01-2.84
		C61.05,98.57,60.89,97.89,60.79,97.16z"/>
	<path class="st0" d="M40.92,99.45c-0.28-0.11-0.52-0.18-0.74-0.3c-0.42-0.22-0.45-0.49-0.13-0.85c1.12-1.26,4.05-1.44,5.21-0.2
		c0.4,0.42,0.62,1.12,0.68,1.71c0.11,1.07,0,2.15,0.04,3.23c0.02,0.56,0.19,1.12,0.3,1.76c-0.79,0-1.72,0-2.64,0
		c-0.24,0-0.49,0-0.73-0.03c-0.83-0.09-1.69-0.07-2.48-0.3c-1.08-0.33-1.55-1.12-1.53-2.14c0.02-1.07,0.53-1.92,1.6-2.19
		c1.09-0.27,2.25-0.3,3.45-0.45c0.2-0.9-0.11-1.64-0.96-1.89C42.04,97.52,41.39,98.01,40.92,99.45z M44.02,102.29
		c0-0.28,0-0.56,0-0.85c0-0.94-0.41-1.32-1.36-1.25c-1.38,0.1-2.17,1.53-1.67,3.02c0.28,0.83,1.01,1.18,2.06,1.01
		c0.85-0.14,0.96-0.3,0.96-1.4C44.02,102.65,44.02,102.47,44.02,102.29z"/>
	<path class="st0" d="M89.15,99.77c0.17-1.25-0.16-1.92-1.01-2.13c-0.96-0.23-1.54,0.22-2.02,1.63c-0.25-0.08-0.51-0.14-0.74-0.26
		c-0.45-0.24-0.46-0.53-0.09-0.9c1.17-1.18,3.78-1.34,5.07-0.29c0.58,0.47,0.8,1.11,0.81,1.83c0.01,0.9-0.03,1.8,0.02,2.69
		c0.04,0.77,0.16,1.53,0.26,2.4c-0.82-0.05-1.78-0.11-2.74-0.16c-0.2-0.01-0.4,0.06-0.59,0.03c-0.9-0.11-1.83-0.13-2.69-0.39
		c-0.87-0.27-1.33-1-1.32-1.96c0.01-1.02,0.44-1.77,1.37-2.21C86.34,99.64,87.55,99.54,89.15,99.77z M89.22,102.04
		c0-0.23,0-0.46,0-0.69c0-1.01-0.52-1.45-1.53-1.28c-0.78,0.13-1.33,0.56-1.53,1.32c-0.21,0.81-0.25,1.66,0.4,2.3
		c0.59,0.58,1.35,0.5,2.09,0.29c0.72-0.21,0.55-0.81,0.57-1.33C89.23,102.45,89.22,102.24,89.22,102.04z"/>
	<path class="st0" d="M58.51,102.02c-0.05-2.31,0.57-4.62-0.24-6.89c0.38,0,0.83,0,1.12,0c-0.11,0.73-0.29,1.46-0.31,2.19
		c-0.04,2.15-0.01,4.31-0.01,6.46c0,0.28,0,0.55,0,0.83c-0.07,0.04-0.13,0.09-0.2,0.13c-0.21-0.2-0.46-0.37-0.63-0.6
		c-1.8-2.34-3.58-4.68-5.37-7.02c-0.17-0.22-0.34-0.43-0.54-0.68c-0.42,1.2-0.18,7.29,0.33,8.19c-0.47,0-0.91,0-1.16,0
		c0.43-3.15,0.35-6.29,0.03-9.48c0.69,0,1.55,0,2.21,0c0.38,0.72,0.66,1.41,1.08,1.99C56.02,98.8,57.28,100.4,58.51,102.02z"/>
	<path class="st0" d="M30.55,104.77c0.61-1.28,0.61-8.21,0-9.47c0.92,0,1.82,0,2.58,0c-0.09,0.7-0.23,1.39-0.24,2.08
		c-0.03,1.97,0,3.94-0.02,5.91c-0.01,0.68,0.21,0.99,0.93,0.92c0.56-0.06,1.13-0.02,1.69-0.01c0.8,0.02,1.45-0.18,1.79-1.02
		c0.09-0.22,0.38-0.36,0.75-0.69c0,0.89,0,1.56,0,2.29C35.59,104.77,33.08,104.77,30.55,104.77z"/>
	<path class="st0" d="M71.48,100.72c-0.03,1.79,0.51,2.83,1.6,3.16c1.27,0.38,2.38,0.09,3.26-1.03c0.06,0.08,0.12,0.16,0.17,0.24
		c-0.22,0.31-0.39,0.68-0.67,0.92c-1.39,1.17-4.23,0.88-5.4-0.5c-1.29-1.53-1.13-4.15,0.34-5.44c1.23-1.08,3.3-1.24,4.66-0.35
		c0.27,0.18,0.59,0.4,0.7,0.68c0.23,0.57,0.57,1.25,0.42,1.76c-0.09,0.31-0.99,0.51-1.53,0.55
		C73.87,100.78,72.7,100.72,71.48,100.72z M71.54,100.32c0.93,0,1.83,0.04,2.71-0.01c0.64-0.04,0.94-0.5,0.88-1.13
		c-0.06-0.68-0.47-1.12-1.12-1.31C72.58,97.45,71.47,98.51,71.54,100.32z"/>
	<path class="st0" d="M76.94,97.15c0.85,0,1.79,0,2.57,0c0.17,0.82,0.27,1.59,0.49,2.34c0.36,1.22,0.79,2.43,1.3,3.65
		c0.51-1.98,1.73-3.74,1.66-5.95c0.32,0,0.78,0,1.05,0c-0.39,0.91-0.85,1.88-1.22,2.88c-0.49,1.35-0.95,2.71-1.35,4.08
		c-0.18,0.61-0.58,0.52-1.01,0.55c-0.43,0.02-0.69-0.06-0.84-0.54c-0.53-1.69-1.08-3.37-1.68-5.03
		C77.66,98.44,77.28,97.82,76.94,97.15z"/>
	<path class="st0" d="M64.87,121.77c0.63-0.05,1.39-0.12,2.15-0.17c1.07-0.06,1.75,0.26,2,0.94c0.3,0.81,0.03,1.49-0.91,2.19
		c0.29,0.52,0.59,1.04,0.94,1.65c-0.41,0.03-0.8,0.07-1.11,0.09c-0.3-0.59-0.52-1.15-0.87-1.62c-0.11-0.14-0.57-0.02-0.99-0.02
		c0.07,0.62,0.13,1.13,0.21,1.75c-0.36,0.02-0.77,0.04-1.05,0.06C65.11,125,64.99,123.42,64.87,121.77z M66.05,124.57
		c0.45-0.03,0.79,0.03,1.05-0.09c0.38-0.18,0.94-0.46,0.98-0.76c0.07-0.49-0.05-1.23-0.39-1.5c-0.35-0.28-1.05-0.15-1.6-0.17
		c-0.05,0-0.16,0.25-0.15,0.39C65.96,123.12,66.01,123.81,66.05,124.57z"/>
	<path class="st0" d="M44.28,123.53c-0.06,0.58-0.11,1.1-0.16,1.67c-0.37-0.06-0.77-0.12-1.07-0.17c0.27-1.63,0.52-3.2,0.79-4.86
		c0.84,0.15,1.8,0.27,2.73,0.52c0.89,0.24,1.24,0.89,1.1,1.76c-0.14,0.85-0.68,1.28-1.64,1.26c-0.28,0-0.56-0.06-0.84-0.09
		C44.92,123.58,44.64,123.56,44.28,123.53z M44.37,123.17c0.37,0.07,0.66,0.21,0.91,0.15c0.44-0.1,1.07-0.21,1.22-0.5
		c0.21-0.44,0.25-1.2,0-1.55c-0.27-0.36-0.98-0.41-1.51-0.56c-0.05-0.02-0.21,0.15-0.23,0.25C44.61,121.68,44.5,122.41,44.37,123.17
		z"/>
	<path class="st0" d="M60.42,121.84c1.21,0,2.43,0,3.69,0c0,0.33,0,0.65,0,1.22c-0.66-1.17-1.57-0.93-2.43-0.89
		c-0.09,0.63-0.18,1.26-0.28,1.89c0.07,0.04,0.14,0.08,0.21,0.12c0.19-0.11,0.39-0.22,0.65-0.37c0.01,0.31,0.03,0.59,0.04,0.96
		c-0.25-0.15-0.45-0.26-0.79-0.45c0,0.69-0.02,1.26,0.02,1.83c0.01,0.11,0.29,0.29,0.44,0.28c0.74-0.03,1.58,0.18,1.97-0.87
		c0.06,0.05,0.11,0.09,0.17,0.14c0.02,0.3,0.05,0.6,0.08,0.98c-1.3,0-2.54,0-3.77,0C60.42,125.11,60.42,123.52,60.42,121.84z"/>
	<path class="st0" d="M50.52,122.26c0-0.77,0.2-1.12,0.94-1.01c1.04,0.15,2.09,0.22,3.18,0.32c-1.02,1.41-2.02,2.78-3.03,4.18
		c1.12,0.42,1.71,0.37,2.62-0.17c-0.02,0.63-0.22,0.92-0.93,0.81c-0.97-0.16-1.97-0.2-2.98-0.3c1.04-1.44,2.03-2.81,3.14-4.34
		C52.29,121.74,51.35,121.25,50.52,122.26z"/>
	<path class="st0" d="M59.07,125.8c0.05,0.7-0.18,0.93-0.84,0.89c-0.99-0.07-1.98-0.02-3.1-0.02c1.05-1.6,1.97-3.01,2.91-4.45
		c-1.13-0.4-1.95-0.28-2.8,0.37c-0.04-0.67,0.12-1,0.89-0.94c1.04,0.08,2.08,0.02,3.28,0.02c-1.07,1.63-1.99,3.04-2.93,4.5
		C57.83,126.49,58.34,126.41,59.07,125.8z"/>
	<path class="st0" d="M76.66,125.15c-0.34,0.08-0.73,0.16-1.08,0.24c-0.2-0.42-0.31-0.84-0.57-1.14c-0.12-0.14-0.52-0.07-0.79-0.02
		c-1.28,0.23-1.35,0.33-1.11,1.61c-0.16,0.03-0.32,0.06-0.44,0.09c0.2-1.67,0.69-3.28,0.48-5.01c0.86-0.36,0.86-0.36,1.39,0.57
		C75.24,122.69,75.94,123.9,76.66,125.15z M74.81,123.8c-0.43-0.74-0.81-1.38-1.18-2.02c-0.06,0.01-0.13,0.02-0.19,0.02
		c-0.08,0.74-0.17,1.49-0.26,2.31C73.78,124,74.25,123.91,74.81,123.8z"/>
	<path class="st0" d="M69.73,121.37c0.26-0.04,0.65-0.09,0.98-0.14c0.21,1.62,0.41,3.19,0.63,4.85c-0.28,0.04-0.69,0.09-0.98,0.13
		C70.15,124.58,69.94,123.01,69.73,121.37z"/>
	<path class="st0" d="M48.7,120.94c0.17,0.02,0.42,0.03,0.68,0.07c0.15,0.02,0.29,0.07,0.29,0.07c-0.21,1.61-0.41,3.16-0.63,4.84
		c-0.27-0.03-0.68-0.07-0.97-0.11C48.28,124.16,48.48,122.59,48.7,120.94z"/>
</g>
</svg>
