<?xml version="1.0" encoding="utf-8"?>
<!-- Generator: Adobe Illustrator 28.1.0, SVG Export Plug-In . SVG Version: 6.00 Build 0)  -->
<svg version="1.1" id="Capa_1" xmlns="http://www.w3.org/2000/svg" xmlns:xlink="http://www.w3.org/1999/xlink" x="0px" y="0px"
	 viewBox="0 0 170 170" style="enable-background:new 0 0 170 170;" xml:space="preserve">
<style type="text/css">
	.st0{fill:#BFBFBF;}
	.st1{fill:#BFBFBF;fill-opacity:0.051;}
</style>
<g>
	<path class="st0" d="M78.25,57.11h2.52c7.08,0.18,11.79,2.91,17.42,6.96c0.08,0.06,0.1,0.17,0.04,0.25
		c-0.01,0.01-0.01,0.02-0.02,0.02l-7.95,8.16c-0.17,0.17-0.43,0.19-0.61,0.04c-3.75-2.97-8.29-4.58-12.97-3.65
		c-11.93,2.36-15.01,18.46-8.09,27.34c6.04,7.76,15.48,5.94,21.95,0.13c0.12-0.1,0.23-0.1,0.34,0.01l7.88,7.64
		c0.12,0.11,0.12,0.3,0.01,0.42c0,0,0,0,0,0c-7.91,8.57-19.51,10.36-30.2,6.55c-6.73-2.4-11.54-6.85-14.45-13.35
		c-3.81-8.52-2.88-19.93,1.79-27.88C60.52,61.88,69.16,57.42,78.25,57.11z"/>
	<path class="st0" d="M142.28,57.11h1.74c5.8,0.33,10.57,2.89,15.11,6.44c0.08,0.07,0.1,0.19,0.04,0.28c0,0.01-0.01,0.01-0.01,0.02
		l-7.35,8.03c-0.1,0.11-0.21,0.12-0.32,0.02c-1.18-1.03-2.42-2.29-3.72-2.94c-2.71-1.36-5.54-1.45-8.51-0.27
		c-1.64,0.65-2.62,1.67-2.94,3.07c-1.5,6.49,8.84,8.19,12.73,9.86c5.46,2.35,9.3,6.52,9.91,12.82c0.87,8.84-4.27,15.26-12.27,17.34
		c-8.9,2.32-19.12,0.59-25.8-6.31c-0.1-0.1-0.1-0.27,0-0.37c0,0,0,0,0.01-0.01l7.64-7.49c0.1-0.1,0.26-0.1,0.36,0
		c3.24,3.38,6.92,5.39,11.67,5c2.66-0.22,5.05-1.44,5.96-4.16c1.38-4.14-2.39-6.55-5.47-7.71c-3.95-1.49-6.85-2.61-8.69-3.38
		c-5.44-2.29-9.36-6.46-9.44-12.83c-0.14-10.22,6.95-15.99,16.15-17.05C140.15,57.32,141.22,57.21,142.28,57.11z"/>
	<path class="st0" d="M10.79,68.92v-9.99l40.83-0.03c0.09,0,0.17,0.08,0.17,0.18l0,9.65c0,0.14-0.07,0.21-0.21,0.21l-14.32,0
		c-0.05,0-0.1,0.05-0.1,0.1l0,0l0.01,42.3c0,0.17-0.08,0.25-0.25,0.25l-11.22,0c-0.07,0-0.12-0.06-0.12-0.13l0.01-42.3
		c0-0.15-0.07-0.22-0.22-0.22L10.79,68.92z"/>
	<path class="st0" d="M103.55,58.9h11.3c0.08,0,0.14,0.07,0.14,0.15v52.4c0,0.08-0.06,0.15-0.14,0.15h-11.3
		c-0.08,0-0.14-0.07-0.14-0.15v-52.4C103.41,58.97,103.48,58.9,103.55,58.9z"/>
	<path class="st0" d="M93.4,84.94c0,7.63-5.99,13.82-13.37,13.82c-7.39,0-13.37-6.19-13.37-13.82l0,0c0-7.63,5.99-13.82,13.37-13.82
		l0,0C87.42,71.12,93.4,77.31,93.4,84.94z M89.07,81.68l-0.45,0c-0.15,0-0.23,0.08-0.23,0.24l0.01,1.13c0,0.13-0.04,0.25-0.12,0.36
		c-0.55,0.73-1.01,1.36-1.19,2.31c-0.34,1.8-0.7,3.59-1.08,5.4c-0.03,0.15-0.1,0.28-0.2,0.39c-0.78,0.85-1.7,2.49-2.61,3.05
		c-0.38,0.23-0.86,0.12-1.1-0.26c-1.17-1.86-0.52-3.67-1.68-5.5c-0.07-0.11-0.11-0.24-0.11-0.38c-0.02-0.92-0.47-1.32-1.35-1.2
		c-0.95,0.13-1.74,0.14-2.35,0.01c-0.13-0.03-0.24-0.11-0.3-0.23c-1.16-2.4-0.67-4.18,1.47-5.35c0.16-0.08,0.26-0.24,0.28-0.43
		c0.06-0.47-0.08-0.86-0.4-1.18c-0.09-0.09-0.09-0.24-0.01-0.33c0,0,0.01-0.01,0.01-0.01c0.24-0.23,0.52-0.34,0.85-0.32
		c0.2,0.01,0.32-0.08,0.37-0.28c0.55-2.18,2.29-0.93,3.07-2.04c0.36-0.52,0.25-0.7-0.36-0.56c-0.44,0.11-0.59,0.82-1.3,0.57
		c-0.16-0.06-0.21-0.17-0.17-0.33c0.1-0.42,0.29-0.79,0.58-1.1c0.34-0.38,0.8-0.33,1.1-0.82c0.08-0.12,0.23-0.15,0.35-0.08
		c0.03,0.02,0.06,0.05,0.08,0.08c0.28,0.46,0.67,0.54,1.19,0.25c0.22-0.12,0.27-0.32,0.17-0.61c-0.05-0.15-0.15-0.21-0.3-0.18
		c-0.26,0.04-0.48-0.02-0.67-0.19c-0.12-0.12-0.26-0.19-0.43-0.23c-1.24-0.26-2.35-0.02-3.34,0.71c-0.12,0.09-0.26,0.15-0.41,0.16
		c-0.57,0.04-0.84,0.45-1.31,0.49c-0.45,0.04-0.74-0.19-0.87-0.7c-0.05-0.19-0.16-0.27-0.35-0.26l-0.18,0.01
		c-0.13,0.01-0.21,0.07-0.26,0.19c-0.25,0.75-0.62,1.23-1.11,1.46c-2.7,1.23-4.28,3.3-4.72,6.23c-0.08,0.56,0.01,1.15,0.28,1.78
		c0.78,1.85,1.11,2.9,2.82,4.56c0.11,0.11,0.15,0.23,0.14,0.39c-0.1,0.93-0.28,1.84-0.54,2.73c-0.64,2.16,3.85,4.06,5.29,4.34
		c1.07,0.2,2.32,0.12,3.49,0.11c0.99-0.01,1.84-0.16,2.54-0.46c3.36-1.46,6.97-5.47,6.96-9.57c0-1.63,0.4-3.65-1.13-4.78
		c-0.08-0.06-0.14-0.04-0.17,0.06l-0.1,0.26C89.21,81.63,89.15,81.68,89.07,81.68z M84.79,79.26l0.02-0.24
		c0.01-0.08-0.03-0.12-0.11-0.12l-1.12,0c-0.07,0-0.1,0.04-0.12,0.1c-0.01,0.06-0.02,0.12-0.03,0.18c-0.02,0.13,0.03,0.19,0.16,0.19
		l1.09-0.01C84.75,79.36,84.78,79.32,84.79,79.26z M81.3,80c-0.09-0.49-0.36-0.72-0.81-0.69c-0.64,0.04-1.08,0.64-1.44,1.15
		c-0.05,0.08-0.04,0.18,0.03,0.24c0.03,0.02,0.06,0.03,0.09,0.03l1.45,0.06c0.16,0.01,0.3,0.11,0.36,0.25
		c0.28,0.67,0.76,0.87,1.45,0.6c0.76-0.3,1.47-0.31,2.11-0.04c0.14,0.06,0.23,0.01,0.27-0.14c0.12-0.53-0.07-0.89-0.58-1.09
		c-0.25-0.1-0.69-0.13-1.33-0.11c-0.16,0.01-0.28-0.07-0.35-0.22c-0.03-0.07-0.07-0.13-0.13-0.18c-0.1-0.09-0.24-0.08-0.32,0.02
		c-0.01,0.01-0.01,0.01-0.02,0.02c-0.12,0.18-0.28,0.29-0.49,0.32C81.44,80.25,81.33,80.18,81.3,80z M86.27,84.15
		c-0.12-0.53-0.43-0.91-0.93-1.11c-0.17-0.07-0.26-0.01-0.26,0.18c-0.04,0.83,0.28,1.42,0.96,1.76c0.16,0.08,0.31,0.06,0.44-0.07
		c0.06-0.06,0.07-0.14,0.04-0.22l-0.18-0.34C86.3,84.28,86.28,84.21,86.27,84.15z"/>
	<path class="st1" d="M89.24,81.56l0.1-0.26c0.03-0.1,0.09-0.12,0.17-0.06c1.53,1.13,1.13,3.16,1.13,4.78
		c0.01,4.1-3.6,8.11-6.96,9.57c-0.7,0.3-1.55,0.46-2.54,0.46c-1.16,0.01-2.42,0.09-3.49-0.11c-1.44-0.28-5.93-2.18-5.29-4.34
		c0.26-0.89,0.44-1.8,0.54-2.73c0.01-0.15-0.03-0.28-0.14-0.39c-1.71-1.66-2.04-2.71-2.82-4.56c-0.27-0.63-0.36-1.23-0.28-1.78
		c0.44-2.93,2.02-5,4.72-6.23c0.49-0.23,0.86-0.71,1.11-1.46c0.04-0.12,0.13-0.19,0.26-0.19l0.18-0.01c0.18-0.01,0.3,0.08,0.35,0.26
		c0.13,0.5,0.42,0.73,0.87,0.7c0.47-0.04,0.73-0.45,1.31-0.49c0.15-0.01,0.29-0.06,0.41-0.16c0.99-0.74,2.11-0.98,3.34-0.71
		c0.16,0.03,0.3,0.11,0.43,0.23c0.19,0.17,0.41,0.24,0.67,0.19c0.15-0.02,0.25,0.04,0.3,0.18c0.1,0.28,0.04,0.49-0.17,0.61
		c-0.52,0.29-0.91,0.21-1.19-0.25c-0.07-0.12-0.22-0.16-0.34-0.08c-0.03,0.02-0.06,0.05-0.08,0.08c-0.31,0.48-0.77,0.44-1.1,0.82
		c-0.28,0.32-0.48,0.68-0.58,1.1c-0.04,0.16,0.01,0.27,0.17,0.33c0.71,0.25,0.86-0.46,1.3-0.57c0.6-0.15,0.72,0.04,0.36,0.56
		c-0.78,1.12-2.52-0.14-3.07,2.04c-0.05,0.2-0.17,0.29-0.37,0.28c-0.32-0.01-0.61,0.1-0.85,0.32c-0.09,0.08-0.1,0.23-0.02,0.33
		c0,0,0.01,0.01,0.01,0.01c0.32,0.32,0.46,0.72,0.4,1.18c-0.02,0.18-0.13,0.34-0.28,0.43c-2.14,1.17-2.63,2.95-1.47,5.35
		c0.06,0.12,0.17,0.21,0.3,0.23c0.61,0.12,1.4,0.12,2.35-0.01c0.88-0.12,1.32,0.28,1.35,1.2c0,0.13,0.04,0.26,0.11,0.38
		c1.15,1.84,0.51,3.64,1.68,5.5c0.24,0.38,0.72,0.5,1.1,0.26c0.9-0.55,1.83-2.2,2.61-3.05c0.1-0.11,0.17-0.24,0.2-0.39
		c0.38-1.8,0.74-3.6,1.08-5.4c0.18-0.96,0.64-1.58,1.19-2.31c0.08-0.11,0.12-0.22,0.12-0.36l-0.01-1.13c0-0.16,0.08-0.24,0.23-0.24
		l0.45,0C89.15,81.68,89.21,81.63,89.24,81.56z"/>
	<path class="st1" d="M84.69,79.36l-1.09,0.01c-0.13,0-0.18-0.06-0.16-0.19c0.01-0.06,0.02-0.12,0.03-0.18
		c0.01-0.06,0.05-0.1,0.12-0.1l1.12,0c0.08,0,0.12,0.04,0.11,0.12l-0.02,0.24C84.78,79.32,84.75,79.36,84.69,79.36z"/>
	<path class="st1" d="M81.61,80.23c0.21-0.03,0.37-0.13,0.49-0.32c0.07-0.11,0.21-0.13,0.31-0.06c0.01,0.01,0.01,0.01,0.02,0.02
		c0.05,0.05,0.1,0.11,0.13,0.18c0.07,0.15,0.19,0.22,0.35,0.22c0.64-0.02,1.08,0.01,1.33,0.11c0.51,0.2,0.7,0.57,0.58,1.09
		c-0.04,0.15-0.13,0.2-0.27,0.14c-0.64-0.27-1.35-0.25-2.11,0.04c-0.69,0.27-1.18,0.07-1.45-0.6c-0.06-0.15-0.2-0.25-0.36-0.25
		l-1.45-0.06c-0.09,0-0.16-0.08-0.16-0.18c0-0.03,0.01-0.07,0.03-0.09c0.36-0.51,0.8-1.12,1.44-1.15c0.45-0.03,0.71,0.2,0.81,0.69
		C81.33,80.18,81.44,80.25,81.61,80.23z"/>
	<path class="st1" d="M86.33,84.34l0.18,0.34c0.04,0.08,0.03,0.15-0.04,0.22c-0.13,0.13-0.28,0.16-0.44,0.07
		c-0.68-0.35-1-0.93-0.96-1.76c0.01-0.19,0.1-0.24,0.26-0.18c0.5,0.21,0.81,0.58,0.93,1.11C86.28,84.21,86.3,84.28,86.33,84.34z"/>
</g>
</svg>
