<?xml version="1.0" encoding="utf-8"?>
<!-- Generator: Adobe Illustrator 28.1.0, SVG Export Plug-In . SVG Version: 6.00 Build 0)  -->
<svg version="1.1" id="Capa_1" xmlns="http://www.w3.org/2000/svg" xmlns:xlink="http://www.w3.org/1999/xlink" x="0px" y="0px"
	 viewBox="0 0 290 170" style="enable-background:new 0 0 290 170;" xml:space="preserve">
<style type="text/css">
	.st0{fill:#BFBFBF;}
</style>
<g>
	<g>
		<g>
			<path class="st0" d="M35.06,68.43c-0.07-0.31-0.33-0.55-0.64-0.6c-0.99-0.16-2.19-0.24-3.6-0.25
				c-5.82-0.07-11.57-0.08-17.23-0.06c-0.43,0-0.81,0.3-0.91,0.72l-1.3,5.42c-0.01,0.06-0.01,0.12-0.01,0.17
				c0,0.04,0.01,0.07,0.02,0.11c0.01,0.03,0.02,0.07,0.04,0.1c0.02,0.03,0.04,0.06,0.06,0.09c0.02,0.03,0.04,0.05,0.07,0.08
				c0.03,0.02,0.06,0.04,0.09,0.06c0.03,0.02,0.07,0.04,0.1,0.05c0.05,0.02,0.11,0.04,0.17,0.04l7.4,0.08c0.25,0,0.44,0.2,0.44,0.44
				l-0.18,22.64c0,0.37,0.3,0.67,0.67,0.67l6.99,0.02c0.27,0,0.48-0.21,0.48-0.48l0.02-22.75c0,0,0,0,0-0.01
				c0-0.04,0.01-0.07,0.02-0.1c0.01-0.04,0.01-0.07,0.02-0.11c0.01-0.03,0.04-0.06,0.06-0.09c0.02-0.03,0.03-0.06,0.06-0.08
				c0.02-0.02,0.06-0.04,0.09-0.06c0.03-0.02,0.05-0.04,0.09-0.06c0.03-0.01,0.07-0.01,0.11-0.02c0.03-0.01,0.07-0.02,0.1-0.02
				c0,0,0,0,0.01,0l7.72,0.11c0.04,0,0.08-0.01,0.11-0.02c0.02-0.01,0.04-0.02,0.07-0.03c0.02-0.01,0.04-0.02,0.05-0.04
				c0.02-0.01,0.03-0.03,0.05-0.05c0.01-0.02,0.03-0.03,0.04-0.05c0.01-0.02,0.02-0.04,0.02-0.06c0.01-0.02,0.01-0.05,0.02-0.07
				c0-0.04,0.01-0.07,0-0.11L35.06,68.43z"/>
			<path class="st0" d="M60.88,91.6c-0.01-0.03-0.01-0.05-0.02-0.08c-0.01-0.03-0.03-0.05-0.05-0.07c-0.02-0.02-0.03-0.05-0.05-0.07
				c-0.02-0.02-0.04-0.03-0.07-0.05c-0.03-0.02-0.05-0.03-0.08-0.04c-0.05-0.02-0.09-0.03-0.14-0.03l-12.49-0.28
				c-0.24,0-0.44-0.2-0.44-0.44l0.04-4.28c0-0.06,0.01-0.12,0.03-0.17c0.07-0.16,0.23-0.27,0.41-0.27l8.59,0.01
				c0.19,0,0.36-0.12,0.42-0.3l1.81-5.51c0.02-0.05,0.02-0.1,0.02-0.16c0-0.03-0.01-0.06-0.02-0.09c-0.01-0.03-0.01-0.05-0.02-0.08
				c-0.01-0.03-0.03-0.05-0.05-0.07c-0.02-0.02-0.03-0.05-0.05-0.07c-0.02-0.02-0.04-0.03-0.07-0.05c-0.03-0.02-0.05-0.04-0.08-0.05
				c-0.05-0.02-0.1-0.03-0.15-0.03L47.9,79.31c0,0,0,0-0.01,0c-0.03,0-0.06-0.01-0.08-0.02c-0.03-0.01-0.06-0.01-0.09-0.02
				c-0.03-0.01-0.05-0.03-0.07-0.05c-0.02-0.02-0.05-0.03-0.07-0.05c-0.02-0.02-0.03-0.05-0.05-0.07c-0.02-0.02-0.04-0.04-0.05-0.07
				c-0.01-0.03-0.01-0.06-0.02-0.09c-0.01-0.03-0.02-0.05-0.02-0.08c0,0,0,0,0-0.01l0.03-4.17c0-0.25,0.2-0.44,0.44-0.44l11.57-0.01
				c0.05,0,0.1-0.01,0.14-0.03c0.03-0.01,0.06-0.02,0.08-0.04c0.02-0.01,0.05-0.03,0.07-0.05c0.02-0.02,0.04-0.04,0.06-0.06
				c0.02-0.02,0.03-0.04,0.05-0.07c0.01-0.02,0.02-0.05,0.03-0.08c0.01-0.03,0.02-0.06,0.02-0.09c0-0.05,0-0.1-0.01-0.14l-1.45-5.6
				c-0.05-0.2-0.23-0.33-0.43-0.33l-18.1-0.09c-0.03,0-0.06,0.01-0.09,0.02c-0.03,0.01-0.06,0.01-0.09,0.02
				c-0.03,0.01-0.05,0.03-0.07,0.05c-0.02,0.02-0.05,0.03-0.07,0.05c-0.02,0.02-0.03,0.05-0.05,0.07c-0.02,0.02-0.04,0.04-0.05,0.07
				c-0.01,0.03-0.01,0.06-0.02,0.09c-0.01,0.03-0.02,0.06-0.02,0.09l-0.23,29.62c0,0.03,0.01,0.06,0.02,0.09
				c0.01,0.03,0.01,0.06,0.02,0.09c0.01,0.03,0.03,0.05,0.05,0.07c0.02,0.02,0.03,0.05,0.05,0.07c0.02,0.02,0.05,0.03,0.07,0.05
				c0.02,0.02,0.04,0.03,0.07,0.05c0.03,0.01,0.06,0.01,0.09,0.02c0.03,0.01,0.06,0.02,0.09,0.02l19.03-0.37
				c0.19,0,0.36-0.13,0.42-0.32l1.72-5.66c0.01-0.05,0.02-0.1,0.01-0.15C60.89,91.66,60.88,91.63,60.88,91.6z"/>
			<path class="st0" d="M83.87,86.17c-0.3-0.57-0.09-1.28,0.48-1.58c5.55-3.01,8.42-12.09,1.6-15.6c-1.1-0.57-2.92-0.87-5.46-0.9
				c-4.71-0.07-9.38-0.15-13.99-0.25c-0.41-0.01-0.77,0.26-0.88,0.65l-1.57,5.64c-0.07,0.24,0.03,0.36,0.28,0.35
				c4.51-0.08,8.98-0.09,13.41-0.04c1.65,0.01,2.8,0.49,3.45,1.43c0.18,0.27,0.21,0.55,0.08,0.85c-1.11,2.48-3.94,4.81-6.19,6.34
				c-0.74,0.51-1,1.48-0.59,2.29c3.03,6.02,6.64,11.68,10.82,16.97c0.17,0.21,0.47,0.25,0.68,0.09l5.48-4.12
				c0.45-0.34,0.48-0.72,0.1-1.13C88.51,93.84,85.94,90.18,83.87,86.17z"/>
			<g>
				<path class="st0" d="M142.01,67.74c-3.41-0.16-6.49,0.39-9.25,1.64c-3.12,1.42-4.88,3.79-5.28,7.11
					c-1.02,8.61,3.3,22.97,14.37,22.12c8.71-0.67,11.79-10.37,12.78-17.35C155.93,72.12,150.27,68.13,142.01,67.74z M144.94,87.94
					c-0.78,1.88-2.67,6.03-5.34,3.8c-4.01-3.35-7.42-16.48,0.37-17.71c2.23-0.35,3.97,0.16,5.21,1.55
					C147.8,78.49,146.32,84.65,144.94,87.94z"/>
			</g>
			<path class="st0" d="M122.64,68.05l-6.86-0.01c-0.15,0-0.3,0.08-0.38,0.2l-6.05,9.45c-0.03,0.05-0.07,0.09-0.11,0.12
				c0,0,0,0-0.01,0c-0.03,0.02-0.07,0.03-0.1,0.05c-0.02,0.01-0.04,0.02-0.05,0.02c-0.03,0.01-0.06,0-0.08,0
				c-0.03,0-0.06,0.01-0.09,0c-0.02,0-0.04-0.01-0.06-0.02c-0.04-0.01-0.07-0.02-0.11-0.04c0,0,0,0-0.01,0
				c-0.05-0.03-0.09-0.07-0.12-0.11l-6.76-9.3c-0.08-0.12-0.22-0.18-0.36-0.18l-6.2,0.05c-0.25,0-0.44,0.2-0.44,0.44l-0.3,29.04
				c0,0.03,0.01,0.06,0.02,0.09c0.01,0.03,0.01,0.06,0.02,0.09c0.01,0.03,0.03,0.05,0.05,0.07c0.02,0.02,0.03,0.05,0.05,0.07
				c0.02,0.02,0.05,0.03,0.07,0.05c0.02,0.02,0.04,0.04,0.07,0.05c0.03,0.01,0.06,0.01,0.09,0.02c0.03,0.01,0.06,0.02,0.09,0.02h7
				c0.03,0,0.06-0.01,0.09-0.02c0.03-0.01,0.06-0.01,0.09-0.02c0.03-0.01,0.05-0.03,0.07-0.05c0.02-0.02,0.05-0.03,0.07-0.05
				c0.02-0.02,0.03-0.05,0.05-0.07c0.02-0.02,0.04-0.04,0.05-0.07c0.01-0.03,0.01-0.06,0.02-0.09c0.01-0.03,0.02-0.06,0.02-0.09
				l-0.23-16.93c0-0.07,0.02-0.13,0.04-0.18c0.01-0.02,0.02-0.03,0.03-0.05c0.02-0.04,0.05-0.07,0.08-0.1
				c0.01-0.01,0.01-0.01,0.02-0.02c0.01-0.01,0.03-0.01,0.05-0.02c0.03-0.02,0.05-0.03,0.08-0.04c0.03-0.01,0.06-0.01,0.09-0.02
				c0.02,0,0.03-0.01,0.05-0.01c0.01,0,0.02,0.01,0.02,0.01c0.04,0,0.09,0.01,0.13,0.03c0.02,0.01,0.04,0.01,0.05,0.02
				c0.06,0.03,0.11,0.07,0.15,0.12l5.62,7.64c0.03,0.04,0.07,0.08,0.12,0.11c0.03,0.02,0.06,0.03,0.09,0.04
				c0.02,0.01,0.05,0.02,0.07,0.03c0.03,0.01,0.06,0,0.09,0c0.03,0,0.06,0,0.08,0c0.03-0.01,0.05-0.02,0.07-0.03
				c0.03-0.01,0.06-0.02,0.09-0.04c0.04-0.03,0.08-0.06,0.11-0.11l5.34-7.66c0.04-0.06,0.09-0.1,0.15-0.13
				c0.02-0.01,0.03-0.01,0.05-0.02c0.05-0.02,0.09-0.03,0.14-0.03c0.01,0,0.02-0.01,0.04-0.01c0.01,0,0.02,0.01,0.03,0.01
				c0.03,0,0.06,0.01,0.09,0.02c0.03,0.01,0.06,0.02,0.08,0.03c0.01,0.01,0.02,0.01,0.03,0.01c0.01,0.01,0.01,0.02,0.02,0.03
				c0.04,0.03,0.07,0.07,0.1,0.11c0.01,0.02,0.02,0.03,0.03,0.05c0.03,0.06,0.05,0.13,0.04,0.2l-0.57,16.95
				c0,0.03,0.01,0.06,0.02,0.09c0.01,0.03,0.01,0.06,0.02,0.09c0.01,0.03,0.03,0.05,0.05,0.07c0.02,0.02,0.03,0.05,0.05,0.07
				c0.02,0.02,0.05,0.03,0.07,0.05c0.02,0.02,0.04,0.04,0.07,0.05c0.03,0.01,0.06,0.01,0.09,0.02c0.03,0.01,0.06,0.02,0.09,0.02
				l7.26-0.01c0.25,0,0.44-0.2,0.44-0.44l0.01-29.25C123.08,68.25,122.88,68.05,122.64,68.05z"/>
			<path class="st0" d="M203.54,91.25c-0.01-0.02-0.01-0.04-0.02-0.06c-0.01-0.02-0.02-0.04-0.04-0.05
				c-0.01-0.02-0.03-0.04-0.04-0.05c-0.02-0.01-0.03-0.02-0.05-0.04c-0.02-0.01-0.04-0.02-0.06-0.03c-0.04-0.01-0.07-0.02-0.11-0.02
				l-10.06-0.1c0,0,0,0-0.01,0c-0.02,0-0.04-0.01-0.06-0.02c-0.02-0.01-0.05-0.01-0.07-0.02c-0.02-0.01-0.04-0.02-0.05-0.04
				c-0.02-0.01-0.04-0.02-0.05-0.04c-0.01-0.02-0.02-0.04-0.04-0.05c-0.01-0.02-0.03-0.04-0.04-0.06c-0.01-0.02-0.01-0.04-0.01-0.07
				c0-0.02-0.01-0.04-0.01-0.06c0,0,0,0,0-0.01l0.89-22.07c0-0.03-0.01-0.05-0.01-0.07c0-0.02-0.01-0.05-0.01-0.07
				c-0.01-0.02-0.02-0.04-0.03-0.06c-0.01-0.02-0.02-0.04-0.04-0.05c-0.02-0.02-0.03-0.03-0.05-0.04c-0.02-0.01-0.03-0.03-0.06-0.04
				c-0.02-0.01-0.04-0.01-0.07-0.02c-0.02-0.01-0.05-0.01-0.07-0.01l-7.54,0.03c-0.19,0-0.34,0.15-0.34,0.34l-0.28,29.54
				c0,0.03,0.01,0.05,0.01,0.07c0,0.02,0.01,0.05,0.02,0.07c0.01,0.02,0.02,0.04,0.04,0.06c0.01,0.02,0.02,0.04,0.04,0.05
				c0.02,0.02,0.04,0.03,0.05,0.04c0.02,0.01,0.04,0.03,0.06,0.04c0.02,0.01,0.04,0.01,0.07,0.02c0.02,0,0.05,0.01,0.07,0.01
				l15.83-0.02c0.15,0,0.29-0.1,0.33-0.25l1.84-6.66c0.01-0.04,0.01-0.08,0.01-0.11C203.55,91.3,203.55,91.28,203.54,91.25z"/>
			<path class="st0" d="M173.37,68.21c-4.51,0.09-9.06,0.15-13.64,0.18c-0.23,0-0.37,0.11-0.42,0.34l-1.3,5.49
				c-0.01,0.03,0,0.06,0,0.09c0,0.02,0.01,0.04,0.01,0.06c0.01,0.02,0.01,0.04,0.02,0.05c0.01,0.02,0.02,0.03,0.03,0.05
				c0.01,0.01,0.02,0.03,0.04,0.04c0.01,0.01,0.03,0.02,0.04,0.03c0.02,0.01,0.03,0.02,0.05,0.02c0.03,0.01,0.06,0.02,0.09,0.02
				c6.08,0.01,10.11,0,12.1-0.04c2.55-0.06,3.9,1.81,2.53,4.11c-1.28,2.17-3.15,3.72-5.61,4.64c-0.32,0.12-0.49,0.01-0.49-0.33
				l-0.05-6.34c0-0.38-0.31-0.68-0.68-0.68l-6.68,0.01c-0.29,0-0.53,0.23-0.53,0.52l0.01,21.31c0,0.22,0.18,0.4,0.4,0.4l6.92,0.02
				c0.14,0,0.27-0.05,0.37-0.14c0.01-0.01,0.03-0.01,0.04-0.02c0.09-0.08,0.14-0.2,0.16-0.32c0-0.03,0.02-0.05,0.02-0.08l0.08-6.14
				c0-0.28,0.14-0.47,0.41-0.57c4.94-1.81,12.24-6.19,13.83-11.53C182.69,74.08,179.47,68.08,173.37,68.21z"/>
			<path class="st0" d="M229.98,68.82c-0.05-0.2-0.17-0.31-0.38-0.33c-4.01-0.37-7.75-0.1-11.24,0.79
				c-5.15,1.32-7.82,4.65-10.25,9.13c-3.9,7.17-1.52,17.24,2.82,23.5c0.03,0.04,0.06,0.06,0.09,0.09c0.03,0.03,0.06,0.06,0.09,0.08
				c0.03,0.02,0.07,0.03,0.11,0.04c0.04,0.01,0.07,0.03,0.11,0.04c0.04,0.01,0.08,0,0.12,0c0.04,0,0.08,0,0.11,0
				c0.04-0.01,0.07-0.03,0.11-0.05c0.04-0.02,0.08-0.03,0.12-0.05l4.55-3.32c0.31-0.23,0.4-0.66,0.21-1
				c-1.54-2.71-2.4-5.65-2.59-8.79c-0.02-0.31,0.12-0.46,0.42-0.45l7.93,0.11c0.27,0,0.49,0.22,0.49,0.49l-0.1,8.45
				c0,0.05,0.02,0.09,0.03,0.13c0.01,0.04,0.01,0.09,0.03,0.13c0.02,0.04,0.05,0.07,0.07,0.11c0.02,0.03,0.04,0.07,0.07,0.1
				c0.03,0.03,0.07,0.05,0.1,0.07c0.04,0.02,0.07,0.05,0.11,0.07s0.09,0.02,0.13,0.03c0.04,0.01,0.08,0.03,0.13,0.03l6.62-0.01
				c0.29,0,0.52-0.23,0.52-0.52V77.5c0-0.06-0.02-0.12-0.04-0.18c-0.01-0.06-0.01-0.12-0.04-0.17c-0.02-0.05-0.06-0.1-0.1-0.14
				c-0.03-0.05-0.05-0.1-0.09-0.14c-0.04-0.04-0.09-0.06-0.14-0.09c-0.05-0.03-0.09-0.07-0.14-0.1c-0.05-0.02-0.11-0.02-0.17-0.03
				c-0.06-0.01-0.11-0.03-0.17-0.03l-6,0.04c-0.64,0.01-0.96,0.33-0.95,0.97l0.05,3.95c0,0.26-0.13,0.4-0.4,0.4l-7.09,0.01
				c-0.08,0-0.15-0.02-0.21-0.05c-0.01,0-0.01,0-0.02,0c-0.02-0.01-0.03-0.03-0.05-0.04c-0.03-0.02-0.06-0.04-0.08-0.06
				c-0.02-0.02-0.04-0.05-0.05-0.08c-0.02-0.03-0.03-0.05-0.05-0.08c-0.01-0.03-0.02-0.07-0.02-0.1c0-0.02-0.01-0.04-0.01-0.07
				c0-0.01,0-0.01,0-0.02c0-0.07,0.01-0.14,0.05-0.21c3.48-7.01,9.75-6.08,16.23-6.15c0.04,0,0.08-0.01,0.12-0.02
				c0.02-0.01,0.05-0.02,0.07-0.03c0.02-0.01,0.04-0.02,0.06-0.04c0.02-0.02,0.03-0.03,0.05-0.05c0.01-0.02,0.03-0.04,0.04-0.06
				c0.01-0.02,0.02-0.04,0.02-0.07c0.01-0.02,0.01-0.05,0.01-0.08c0-0.04,0-0.08-0.01-0.12L229.98,68.82z"/>
			<path class="st0" d="M251.51,69.54c0-0.26-0.13-0.4-0.39-0.43c-4.63-0.55-8.31-0.59-11.05-0.11c-6.51,1.15-6.1,8.46-2.75,12.56
				c2.24,2.74,4.69,5.54,7.35,8.39c0.08,0.09,0.14,0.2,0.19,0.31c0.02,0.05,0.02,0.1,0.03,0.15c0.01,0.06,0.03,0.12,0.03,0.19
				c0,0.01,0,0.01,0,0.02c0,0.08-0.03,0.15-0.05,0.22c-0.01,0.04-0.01,0.09-0.03,0.13c-0.02,0.04-0.05,0.07-0.08,0.11
				c-0.04,0.07-0.08,0.13-0.14,0.19c0,0-0.01,0.01-0.01,0.01c-0.05,0.04-0.11,0.07-0.16,0.1c-0.04,0.03-0.08,0.06-0.13,0.08
				c-0.11,0.04-0.23,0.07-0.35,0.07l-8.68-0.06c-0.06,0-0.11,0.01-0.16,0.03c-0.03,0.01-0.06,0.03-0.08,0.05
				c-0.02,0.01-0.05,0.03-0.07,0.04c-0.02,0.02-0.04,0.04-0.05,0.07c-0.02,0.02-0.04,0.04-0.05,0.07c-0.01,0.02-0.02,0.05-0.02,0.08
				c-0.01,0.03-0.02,0.06-0.02,0.09c0,0.05,0,0.11,0.02,0.16l1.7,5.43c0.12,0.4,0.48,0.67,0.9,0.68c3.36,0.09,6.73,0.05,10.1-0.12
				c7.94-0.41,7.16-8.71,3.18-12.94c-2.46-2.62-4.98-5.4-7.57-8.36c-0.06-0.07-0.1-0.15-0.14-0.24c-0.01-0.02-0.02-0.04-0.02-0.07
				c-0.01-0.02-0.02-0.04-0.02-0.06c-0.01-0.03,0-0.06,0-0.09c0-0.05-0.01-0.11,0-0.16c0.01-0.05,0.02-0.1,0.04-0.14
				c0.02-0.05,0.03-0.09,0.06-0.14c0.03-0.05,0.06-0.09,0.1-0.13c0.02-0.02,0.03-0.05,0.06-0.08c0.02-0.01,0.04-0.02,0.06-0.04
				c0.02-0.01,0.04-0.03,0.06-0.04c0.08-0.05,0.16-0.09,0.26-0.11c2.94-0.59,5.7-0.07,8.67-0.28c0.29-0.02,0.38-0.17,0.28-0.44
				C251.89,73.05,251.55,71.32,251.51,69.54z"/>
			<path class="st0" d="M277.28,69.35c-0.06-0.24-0.27-0.4-0.51-0.4l-20-0.04c-0.25,0-0.47,0.18-0.52,0.42l-1.12,5.62
				c-0.01,0.05,0,0.1,0,0.15c0,0.04,0.01,0.07,0.02,0.1c0.01,0.03,0.02,0.06,0.04,0.09c0.02,0.03,0.03,0.06,0.06,0.08
				c0.02,0.03,0.04,0.05,0.07,0.07c0.03,0.02,0.05,0.04,0.08,0.05c0.03,0.02,0.06,0.03,0.1,0.04c0.05,0.01,0.1,0.03,0.15,0.03
				l6.86,0.04c0.28,0,0.51,0.23,0.52,0.52l0.15,21.67c0,0.04,0.01,0.07,0.02,0.11c0.01,0.03,0.01,0.07,0.02,0.1
				c0.01,0.03,0.04,0.06,0.06,0.08c0.02,0.03,0.03,0.06,0.06,0.08c0.02,0.02,0.06,0.04,0.08,0.06c0.03,0.02,0.05,0.04,0.08,0.05
				c0.03,0.01,0.07,0.01,0.1,0.02c0.04,0.01,0.07,0.02,0.11,0.02l6.99-0.13c0.04,0,0.07-0.02,0.1-0.02c0.03-0.01,0.07-0.01,0.1-0.02
				c0.03-0.01,0.05-0.04,0.08-0.05c0.03-0.02,0.06-0.04,0.09-0.06c0.03-0.03,0.04-0.07,0.06-0.1c0.01-0.02,0.03-0.04,0.04-0.07
				c0.02-0.04,0.02-0.08,0.02-0.13c0-0.03,0.01-0.05,0.01-0.08l-0.8-21.5c0,0,0-0.01,0-0.01c0-0.03,0.01-0.06,0.02-0.1
				c0.01-0.03,0.01-0.07,0.02-0.1c0.01-0.03,0.04-0.06,0.05-0.08c0.02-0.03,0.03-0.06,0.06-0.08c0.02-0.02,0.05-0.04,0.08-0.06
				c0.03-0.02,0.05-0.04,0.08-0.06c0.03-0.01,0.07-0.02,0.1-0.02c0.03-0.01,0.06-0.02,0.09-0.02c0,0,0.01,0,0.01,0l7.2-0.04
				c0.06,0,0.11-0.02,0.16-0.03c0.03-0.01,0.07-0.03,0.1-0.04c0.03-0.02,0.06-0.03,0.08-0.06c0.03-0.02,0.05-0.05,0.07-0.07
				s0.04-0.05,0.05-0.08c0.01-0.03,0.03-0.06,0.03-0.09c0.01-0.03,0.02-0.07,0.02-0.1c0-0.05,0.01-0.11-0.01-0.16L277.28,69.35z"/>
			<path class="st0" d="M73.09,75.89C73.09,75.89,73.09,75.89,73.09,75.89l-0.07,0l-7.4-0.06c-0.12,0-0.23,0.05-0.31,0.13
				c-0.08,0.08-0.13,0.19-0.13,0.31l-0.19,21.47c0,0.24,0.19,0.44,0.43,0.44h0l7.47,0.07c0.08,0,0.16-0.03,0.23-0.07
				c0.13-0.08,0.21-0.21,0.22-0.36l0.19-21.28l0-0.19c0-0.12-0.05-0.23-0.13-0.31C73.32,75.94,73.21,75.89,73.09,75.89z"/>
		</g>
	</g>
</g>
</svg>
